<?xml version="1.0" encoding="utf-8"?>
<!-- Generator: Adobe Illustrator 20.0.0, SVG Export Plug-In . SVG Version: 6.00 Build 0)  -->
<svg version="1.1" id="Layer_2" xmlns="http://www.w3.org/2000/svg" xmlns:xlink="http://www.w3.org/1999/xlink" x="0px" y="0px"
	 viewBox="0 0 710 710" style="enable-background:new 0 0 710 710;" xml:space="preserve">
<style type="text/css">
	.st0{fill:none;stroke:#4F4F4F;stroke-miterlimit:10;}
</style>
<polyline class="st0" points="19.9,709.5 19.9,403 2,403 "/>
<rect x="11.3" y="357.8" class="st0" width="72.1" height="19.1"/>
<polygon class="st0" points="60.1,341.3 34.6,341.3 22.7,357.8 71.9,357.8 "/>
<rect x="17.9" y="384.3" class="st0" width="6.4" height="10.5"/>
<rect x="32.6" y="384.3" class="st0" width="6.4" height="10.5"/>
<rect x="47.5" y="384.3" class="st0" width="6.4" height="10.5"/>
<rect x="62.2" y="384.3" class="st0" width="6.4" height="10.5"/>
<rect x="77" y="384.3" class="st0" width="6.4" height="10.5"/>
<rect x="47.5" y="403" class="st0" width="6.4" height="12.9"/>
<rect x="62.2" y="403" class="st0" width="6.4" height="12.9"/>
<rect x="77" y="403" class="st0" width="6.4" height="12.9"/>
<rect x="47.5" y="423.6" class="st0" width="6.4" height="12.9"/>
<rect x="62.2" y="423.6" class="st0" width="6.4" height="12.9"/>
<rect x="77" y="423.6" class="st0" width="6.4" height="12.9"/>
<rect x="47.5" y="444.3" class="st0" width="6.4" height="12.9"/>
<rect x="62.2" y="444.3" class="st0" width="6.4" height="12.9"/>
<rect x="77" y="444.3" class="st0" width="6.4" height="12.9"/>
<rect x="47.5" y="464.9" class="st0" width="6.4" height="12.9"/>
<rect x="32.6" y="403" class="st0" width="6.4" height="12.9"/>
<rect x="32.6" y="423.6" class="st0" width="6.4" height="12.9"/>
<rect x="32.6" y="444.3" class="st0" width="6.4" height="12.9"/>
<rect x="32.6" y="464.9" class="st0" width="6.4" height="12.9"/>
<rect x="62.2" y="464.9" class="st0" width="6.4" height="12.9"/>
<rect x="47.5" y="485.4" class="st0" width="6.4" height="12.9"/>
<rect x="32.6" y="485.4" class="st0" width="6.4" height="12.9"/>
<rect x="32.6" y="506" class="st0" width="6.4" height="12.9"/>
<rect x="32.6" y="526.6" class="st0" width="6.4" height="12.9"/>
<rect x="32.6" y="547.2" class="st0" width="6.4" height="12.9"/>
<rect x="32.6" y="567.7" class="st0" width="6.4" height="12.9"/>
<rect x="32.6" y="588.3" class="st0" width="6.4" height="12.9"/>
<rect x="32.6" y="608.9" class="st0" width="6.4" height="10.2"/>
<polygon class="st0" points="68.6,491.4 62.2,495.8 62.2,485.4 68.6,485.4 "/>
<rect x="77" y="464.9" class="st0" width="6.4" height="12.9"/>
<rect x="77" y="485.4" class="st0" width="6.4" height="4.1"/>
<polygon class="st0" points="99.1,508.1 71.6,489.5 43.9,508.1 43.9,619 99.1,619 "/>
<polyline class="st0" points="146.9,598.2 146.9,508.1 119.2,489.5 71.6,489.5 "/>
<line class="st0" x1="99.1" y1="619" x2="146.9" y2="619"/>
<line class="st0" x1="99.1" y1="508.1" x2="146.9" y2="508.1"/>
<line class="st0" x1="43.9" y1="508.1" x2="146.9" y2="508.1"/>
<polygon class="st0" points="146.9,517.3 43.9,517.3 43.9,517.3 "/>
<polygon class="st0" points="146.9,526.9 43.9,526.9 43.9,526.9 "/>
<polygon class="st0" points="146.9,536.3 43.9,536.3 43.9,536.3 "/>
<polygon class="st0" points="146.9,545.9 43.9,545.9 43.9,545.9 "/>
<polygon class="st0" points="146.9,555.4 43.9,555.4 43.9,555.4 "/>
<polygon class="st0" points="146.9,564.8 43.9,564.8 43.9,564.8 "/>
<polygon class="st0" points="146.9,574.4 43.9,574.4 43.9,574.4 "/>
<polygon class="st0" points="146.9,583.9 43.9,583.9 43.9,583.9 "/>
<polygon class="st0" points="146.9,593.4 43.9,593.4 43.9,593.4 "/>
<polygon class="st0" points="109.2,602.9 43.9,602.9 43.9,602.9 "/>
<polygon class="st0" points="109.2,612.4 43.9,612.4 43.9,612.4 "/>
<rect x="109.2" y="598.2" class="st0" width="94.9" height="20.8"/>
<polyline class="st0" points="73.8,619 248.9,619 248.9,709.5 2,709.5 2,707.8 2,376.9 92.7,376.9 92.7,489.5 "/>
<line class="st0" x1="166.6" y1="598.2" x2="166.6" y2="619"/>
<rect x="37.5" y="626.2" class="st0" width="13.2" height="5"/>
<rect x="37.5" y="637.1" class="st0" width="13.2" height="5"/>
<rect x="37.5" y="647.9" class="st0" width="13.2" height="5"/>
<rect x="37.5" y="658.9" class="st0" width="13.2" height="5"/>
<rect x="37.5" y="669.7" class="st0" width="13.2" height="5"/>
<rect x="37.5" y="680.6" class="st0" width="13.2" height="5"/>
<rect x="37.5" y="691.5" class="st0" width="13.2" height="5"/>
<rect x="82.1" y="626.2" class="st0" width="13.2" height="5"/>
<rect x="82.1" y="637.1" class="st0" width="13.2" height="5"/>
<rect x="82.1" y="647.9" class="st0" width="13.2" height="5"/>
<rect x="82.1" y="658.9" class="st0" width="13.2" height="5"/>
<rect x="82.1" y="669.7" class="st0" width="13.2" height="5"/>
<rect x="82.1" y="680.6" class="st0" width="13.2" height="5"/>
<rect x="82.1" y="691.5" class="st0" width="13.2" height="5"/>
<rect x="100.7" y="626.2" class="st0" width="13.2" height="5"/>
<rect x="100.7" y="637.1" class="st0" width="13.2" height="5"/>
<rect x="100.7" y="647.9" class="st0" width="13.2" height="5"/>
<rect x="100.7" y="658.9" class="st0" width="13.2" height="5"/>
<rect x="100.7" y="669.7" class="st0" width="13.2" height="5"/>
<rect x="100.7" y="680.6" class="st0" width="13.2" height="5"/>
<rect x="100.7" y="691.5" class="st0" width="13.2" height="5"/>
<rect x="119.1" y="626.2" class="st0" width="13.2" height="5"/>
<rect x="119.1" y="637.1" class="st0" width="13.2" height="5"/>
<rect x="119.1" y="647.9" class="st0" width="13.2" height="5"/>
<rect x="119.1" y="658.9" class="st0" width="13.2" height="5"/>
<rect x="119.1" y="669.7" class="st0" width="13.2" height="5"/>
<rect x="119.1" y="680.6" class="st0" width="13.2" height="5"/>
<rect x="119.1" y="691.5" class="st0" width="13.2" height="5"/>
<rect x="151.5" y="626.2" class="st0" width="13.2" height="5"/>
<rect x="151.5" y="637.1" class="st0" width="13.2" height="5"/>
<rect x="151.5" y="647.9" class="st0" width="13.2" height="5"/>
<rect x="151.5" y="658.9" class="st0" width="13.2" height="5"/>
<rect x="151.5" y="669.7" class="st0" width="13.2" height="5"/>
<rect x="151.5" y="680.6" class="st0" width="13.2" height="5"/>
<rect x="151.5" y="691.5" class="st0" width="13.2" height="5"/>
<rect x="170" y="626.2" class="st0" width="13.2" height="5"/>
<rect x="170" y="637.1" class="st0" width="13.2" height="5"/>
<rect x="170" y="647.9" class="st0" width="13.2" height="5"/>
<rect x="170" y="658.9" class="st0" width="13.2" height="5"/>
<rect x="170" y="669.7" class="st0" width="13.2" height="5"/>
<rect x="170" y="680.6" class="st0" width="13.2" height="5"/>
<rect x="170" y="691.5" class="st0" width="13.2" height="5"/>
<rect x="204.1" y="626.2" class="st0" width="13.2" height="5"/>
<rect x="204.1" y="637.1" class="st0" width="13.2" height="5"/>
<rect x="204.1" y="647.9" class="st0" width="13.2" height="5"/>
<rect x="204.1" y="658.9" class="st0" width="13.2" height="5"/>
<rect x="204.1" y="669.7" class="st0" width="13.2" height="5"/>
<rect x="204.1" y="680.6" class="st0" width="13.2" height="5"/>
<rect x="204.1" y="691.5" class="st0" width="13.2" height="5"/>
<rect x="222.6" y="626.2" class="st0" width="13.2" height="5"/>
<rect x="222.6" y="637.1" class="st0" width="13.2" height="5"/>
<rect x="222.6" y="647.9" class="st0" width="13.2" height="5"/>
<rect x="222.6" y="658.9" class="st0" width="13.2" height="5"/>
<rect x="222.6" y="669.7" class="st0" width="13.2" height="5"/>
<rect x="222.6" y="680.6" class="st0" width="13.2" height="5"/>
<rect x="222.6" y="691.5" class="st0" width="13.2" height="5"/>
<line class="st0" x1="191.6" y1="619" x2="191.6" y2="709.5"/>
<polyline class="st0" points="146.9,547.2 229.3,547.2 229.3,619 146.9,619 "/>
<line class="st0" x1="158.1" y1="547.2" x2="158.1" y2="598.2"/>
<polyline class="st0" points="92.7,457.1 151.1,457.1 151.1,547.2 "/>
<polyline class="st0" points="169.6,547.2 169.6,480.2 251.5,480.2 251.5,533.3 253.3,533.3 "/>
<polyline class="st0" points="186.3,480.2 186.3,384.3 266.9,384.3 "/>
<polyline class="st0" points="203.4,384.3 203.4,317.8 265.8,317.8 "/>
<line class="st0" x1="151.1" y1="464.9" x2="186.3" y2="464.9"/>
<polyline class="st0" points="351.2,167.6 351.2,182.6 223.6,182.6 223.6,167.6 "/>
<polyline class="st0" points="223.6,161.3 223.6,147.5 262.2,134 312.8,134 351.2,147.5 351.2,161.3 "/>
<rect x="215.4" y="182.6" class="st0" width="144" height="7"/>
<polygon class="st0" points="318.6,119.9 295.1,114.3 279.8,114.3 256.2,119.9 256.2,120.4 262.2,134 312.8,134 318.6,120.4 "/>
<polygon class="st0" points="289.2,42.6 285.7,42.6 279.8,114.3 295.1,114.3 "/>
<line class="st0" x1="256.2" y1="119.9" x2="318.6" y2="119.9"/>
<g>
	<line class="st0" x1="222.2" y1="182.6" x2="222.2" y2="188.9"/>
	<line class="st0" x1="229.2" y1="182.6" x2="229.2" y2="188.9"/>
	<line class="st0" x1="236" y1="182.6" x2="236" y2="188.9"/>
	<line class="st0" x1="242.8" y1="182.6" x2="242.8" y2="188.9"/>
	<line class="st0" x1="249.7" y1="182.6" x2="249.7" y2="188.9"/>
	<line class="st0" x1="256.6" y1="182.6" x2="256.6" y2="188.9"/>
	<line class="st0" x1="263.5" y1="182.6" x2="263.5" y2="188.9"/>
	<line class="st0" x1="270.3" y1="182.6" x2="270.3" y2="188.9"/>
	<line class="st0" x1="277.1" y1="182.6" x2="277.1" y2="188.9"/>
	<line class="st0" x1="284" y1="182.6" x2="284" y2="188.9"/>
	<line class="st0" x1="290.9" y1="182.6" x2="290.9" y2="188.9"/>
	<line class="st0" x1="297.7" y1="182.6" x2="297.7" y2="188.9"/>
	<line class="st0" x1="304.6" y1="182.6" x2="304.6" y2="188.9"/>
	<line class="st0" x1="311.4" y1="182.6" x2="311.4" y2="188.9"/>
	<line class="st0" x1="318.3" y1="182.6" x2="318.3" y2="188.9"/>
	<line class="st0" x1="325.2" y1="182.6" x2="325.2" y2="188.9"/>
	<line class="st0" x1="332" y1="182.6" x2="332" y2="188.9"/>
	<line class="st0" x1="338.8" y1="182.6" x2="338.8" y2="188.9"/>
	<line class="st0" x1="345.8" y1="182.6" x2="345.8" y2="188.9"/>
	<line class="st0" x1="352.6" y1="182.6" x2="352.6" y2="188.9"/>
</g>
<rect x="198.5" y="161.3" class="st0" width="177.8" height="6.3"/>
<line class="st0" x1="217.3" y1="147.6" x2="357.6" y2="147.6"/>
<polyline class="st0" points="275.7,258.2 275.7,189.7 300.1,189.7 300.1,258.2 "/>
<line class="st0" x1="275.7" y1="511" x2="275.7" y2="468.5"/>
<line class="st0" x1="275.7" y1="635.3" x2="275.7" y2="522.5"/>
<polyline class="st0" points="300.1,646.7 300.1,709.5 275.7,709.5 275.7,646.7 "/>
<line class="st0" x1="300.1" y1="522.5" x2="300.1" y2="635.3"/>
<line class="st0" x1="300.1" y1="468.5" x2="300.1" y2="511"/>
<g>
	<path class="st0" d="M240.9,619"/>
	<path class="st0" d="M252.9,190.4c0,0,14,54.1,14,199.9c0,49.5-14.4,153-26,228.8"/>
	<path class="st0" d="M270.2,190.4c0,0,9.1,81.3,9.1,199.9c0,95.9-29.7,319.2-29.7,319.2"/>
	<path class="st0" d="M322.8,190.4c0,0-14,54.1-14,199.9c0,83.3,40.5,319.2,40.5,319.2"/>
	<path class="st0" d="M305.5,190.4c0,0-9.1,81.3-9.1,199.9c0,95.9,29.7,319.2,29.7,319.2"/>
</g>
<line class="st0" x1="287.9" y1="646.7" x2="287.9" y2="709.5"/>
<line class="st0" x1="287.9" y1="522.5" x2="287.9" y2="635.3"/>
<line class="st0" x1="287.9" y1="188.9" x2="287.9" y2="511"/>
<polygon class="st0" points="304.8,522.5 271,522.5 272,511 303.7,511 "/>
<polygon class="st0" points="318.2,646.7 257.5,646.7 258.9,635.3 316.9,635.3 "/>
<polyline class="st0" points="317.7,497.2 411.2,497.2 411.2,608.7 333.3,608.7 "/>
<polyline class="st0" points="411.2,609.5 410.2,710.3 262.3,708.9 248.4,708.8 "/>
<polyline class="st0" points="403.5,497.2 403.5,457.1 420,457.1 513.4,550.6 513.4,710.3 401.1,710.3 "/>
<polyline class="st0" points="345.8,497.2 345.8,436.6 439.4,436.6 439.4,475.8 "/>
<polyline class="st0" points="464.7,468.5 464.7,229.6 395.9,229.6 395.9,321.3 376.3,321.3 376.3,436.6 "/>
<polyline class="st0" points="439.4,468.5 489.4,468.5 489.4,526.9 "/>
<polyline class="st0" points="479.9,468.5 479.9,426.5 500.5,426.5 "/>
<polyline class="st0" points="500.5,537.7 500.5,372.5 584,372.5 584,579.1 "/>
<polyline class="st0" points="506.7,543.9 506.7,513.7 562.3,513.7 562.3,608.7 "/>
<polyline class="st0" points="601.8,577.8 601.8,414.9 699.1,414.9 699.1,527.8 "/>
<polyline class="st0" points="608.7,415.4 608.7,326.8 692.1,326.8 692.1,415.4 "/>
<polyline class="st0" points="625.6,326.8 625.6,317.8 675.2,317.8 675.2,326.8 "/>
<polygon class="st0" points="652.5,294.9 648.4,294.9 624.9,317.8 676,317.8 "/>
<g>
	<line class="st0" x1="102.3" y1="488.8" x2="102.3" y2="464.9"/>
	<line class="st0" x1="110.1" y1="488.8" x2="110.1" y2="464.9"/>
	<line class="st0" x1="118" y1="488.8" x2="118" y2="464.9"/>
	<line class="st0" x1="125.8" y1="494" x2="125.8" y2="464.9"/>
	<line class="st0" x1="133.6" y1="499.2" x2="133.6" y2="464.9"/>
	<line class="st0" x1="141.4" y1="504.5" x2="141.4" y2="464.9"/>
</g>
<line class="st0" x1="186.3" y1="391.1" x2="214.2" y2="391.1"/>
<line class="st0" x1="186.3" y1="398" x2="214.2" y2="398"/>
<line class="st0" x1="186.3" y1="404.8" x2="214.2" y2="404.8"/>
<line class="st0" x1="186.3" y1="411.7" x2="214.2" y2="411.7"/>
<line class="st0" x1="186.3" y1="418.6" x2="214.2" y2="418.6"/>
<line class="st0" x1="186.3" y1="425.4" x2="214.2" y2="425.4"/>
<line class="st0" x1="186.3" y1="432.2" x2="214.2" y2="432.2"/>
<line class="st0" x1="186.3" y1="439.2" x2="214.2" y2="439.2"/>
<line class="st0" x1="186.3" y1="446" x2="214.2" y2="446"/>
<line class="st0" x1="186.3" y1="452.8" x2="214.2" y2="452.8"/>
<line class="st0" x1="186.3" y1="459.7" x2="214.2" y2="459.7"/>
<line class="st0" x1="186.3" y1="466.6" x2="214.2" y2="466.6"/>
<line class="st0" x1="186.3" y1="473.4" x2="214.2" y2="473.4"/>
<line class="st0" x1="223" y1="391.1" x2="223" y2="480.2"/>
<line class="st0" x1="228.8" y1="391.1" x2="228.8" y2="480.2"/>
<line class="st0" x1="234.5" y1="391.1" x2="234.5" y2="480.2"/>
<line class="st0" x1="240.1" y1="391.1" x2="240.1" y2="480.2"/>
<line class="st0" x1="245.8" y1="391.1" x2="245.8" y2="480.2"/>
<line class="st0" x1="251.4" y1="391.1" x2="251.4" y2="480.2"/>
<line class="st0" x1="257.2" y1="391.1" x2="257.2" y2="502.8"/>
<line class="st0" x1="203.4" y1="379.1" x2="260.5" y2="379.1"/>
<line class="st0" x1="203.4" y1="372.9" x2="260.5" y2="372.9"/>
<line class="st0" x1="203.4" y1="366.7" x2="260.5" y2="366.7"/>
<line class="st0" x1="203.4" y1="360.5" x2="260.5" y2="360.5"/>
<line class="st0" x1="203.4" y1="354.3" x2="260.5" y2="354.3"/>
<line class="st0" x1="203.4" y1="348.2" x2="260.5" y2="348.2"/>
<line class="st0" x1="203.4" y1="341.9" x2="260.5" y2="341.9"/>
<line class="st0" x1="203.4" y1="335.8" x2="260.5" y2="335.8"/>
<line class="st0" x1="203.4" y1="329.5" x2="260.5" y2="329.5"/>
<line class="st0" x1="169.6" y1="485.8" x2="164.1" y2="485.8"/>
<line class="st0" x1="169.6" y1="491.5" x2="164.1" y2="491.5"/>
<line class="st0" x1="169.6" y1="497.2" x2="164.1" y2="497.2"/>
<line class="st0" x1="169.6" y1="502.8" x2="164.1" y2="502.8"/>
<line class="st0" x1="169.6" y1="508.4" x2="164.1" y2="508.4"/>
<line class="st0" x1="169.6" y1="514.1" x2="164.1" y2="514.1"/>
<line class="st0" x1="169.6" y1="519.7" x2="164.1" y2="519.7"/>
<line class="st0" x1="169.6" y1="525.3" x2="164.1" y2="525.3"/>
<line class="st0" x1="169.6" y1="531" x2="164.1" y2="531"/>
<line class="st0" x1="169.6" y1="536.6" x2="164.1" y2="536.6"/>
<line class="st0" x1="169.6" y1="542.3" x2="164.1" y2="542.3"/>
<line class="st0" x1="160.7" y1="464.9" x2="160.7" y2="547.2"/>
<rect x="178.9" y="489.5" class="st0" width="12.6" height="4.4"/>
<rect x="197.5" y="489.5" class="st0" width="12.6" height="4.4"/>
<rect x="178.9" y="497.8" class="st0" width="12.6" height="4.4"/>
<rect x="197.5" y="497.8" class="st0" width="12.6" height="4.4"/>
<rect x="178.9" y="506" class="st0" width="12.6" height="4.4"/>
<rect x="197.5" y="506" class="st0" width="12.6" height="4.4"/>
<rect x="178.9" y="514.2" class="st0" width="12.6" height="4.4"/>
<rect x="197.5" y="514.2" class="st0" width="12.6" height="4.4"/>
<rect x="395.8" y="503.7" class="st0" width="8.5" height="4.4"/>
<rect x="381.1" y="503.7" class="st0" width="8.5" height="4.4"/>
<rect x="366.4" y="503.7" class="st0" width="8.5" height="4.4"/>
<rect x="351.7" y="503.7" class="st0" width="8.5" height="4.4"/>
<rect x="395.8" y="514.6" class="st0" width="8.5" height="4.4"/>
<rect x="381.1" y="514.6" class="st0" width="8.5" height="4.4"/>
<rect x="366.4" y="514.6" class="st0" width="8.5" height="4.4"/>
<rect x="351.7" y="514.6" class="st0" width="8.5" height="4.4"/>
<rect x="395.8" y="525.3" class="st0" width="8.5" height="4.4"/>
<rect x="381.1" y="525.3" class="st0" width="8.5" height="4.4"/>
<rect x="366.4" y="525.3" class="st0" width="8.5" height="4.4"/>
<rect x="351.7" y="525.3" class="st0" width="8.5" height="4.4"/>
<rect x="395.8" y="536.1" class="st0" width="8.5" height="4.4"/>
<rect x="381.1" y="536.1" class="st0" width="8.5" height="4.4"/>
<rect x="366.4" y="536.1" class="st0" width="8.5" height="4.4"/>
<rect x="351.7" y="536.1" class="st0" width="8.5" height="4.4"/>
<rect x="395.8" y="546.9" class="st0" width="8.5" height="4.4"/>
<rect x="381.1" y="546.9" class="st0" width="8.5" height="4.4"/>
<rect x="366.4" y="546.9" class="st0" width="8.5" height="4.4"/>
<rect x="351.7" y="546.9" class="st0" width="8.5" height="4.4"/>
<rect x="395.8" y="557.7" class="st0" width="8.5" height="4.4"/>
<rect x="381.1" y="557.7" class="st0" width="8.5" height="4.4"/>
<rect x="366.4" y="557.7" class="st0" width="8.5" height="4.4"/>
<rect x="351.7" y="557.7" class="st0" width="8.5" height="4.4"/>
<rect x="395.8" y="568.5" class="st0" width="8.5" height="4.4"/>
<rect x="381.1" y="568.5" class="st0" width="8.5" height="4.4"/>
<rect x="366.4" y="568.5" class="st0" width="8.5" height="4.4"/>
<rect x="351.7" y="568.5" class="st0" width="8.5" height="4.4"/>
<rect x="395.8" y="579.3" class="st0" width="8.5" height="4.4"/>
<rect x="381.1" y="579.3" class="st0" width="8.5" height="4.4"/>
<rect x="366.4" y="579.3" class="st0" width="8.5" height="4.4"/>
<rect x="351.7" y="579.3" class="st0" width="8.5" height="4.4"/>
<rect x="395.8" y="590" class="st0" width="8.5" height="4.4"/>
<rect x="381.1" y="590" class="st0" width="8.5" height="4.4"/>
<rect x="366.4" y="590" class="st0" width="8.5" height="4.4"/>
<rect x="351.7" y="590" class="st0" width="8.5" height="4.4"/>
<rect x="546.4" y="521.3" class="st0" width="8.5" height="4.4"/>
<rect x="531.8" y="521.3" class="st0" width="8.5" height="4.4"/>
<rect x="546.4" y="532.1" class="st0" width="8.5" height="4.4"/>
<rect x="531.8" y="532.1" class="st0" width="8.5" height="4.4"/>
<rect x="546.4" y="542.9" class="st0" width="8.5" height="4.4"/>
<rect x="531.8" y="542.9" class="st0" width="8.5" height="4.4"/>
<rect x="546.4" y="553.7" class="st0" width="8.5" height="4.4"/>
<rect x="531.8" y="553.7" class="st0" width="8.5" height="4.4"/>
<rect x="546.4" y="564.5" class="st0" width="8.5" height="4.4"/>
<rect x="531.8" y="564.5" class="st0" width="8.5" height="4.4"/>
<rect x="546.4" y="575.3" class="st0" width="8.5" height="4.4"/>
<rect x="531.8" y="575.3" class="st0" width="8.5" height="4.4"/>
<rect x="546.4" y="586" class="st0" width="8.5" height="4.4"/>
<rect x="531.8" y="586" class="st0" width="8.5" height="4.4"/>
<rect x="546.4" y="596.9" class="st0" width="8.5" height="4.4"/>
<rect x="531.8" y="596.9" class="st0" width="8.5" height="4.4"/>
<rect x="531.8" y="607.4" class="st0" width="8.5" height="4.4"/>
<rect x="531.8" y="618.2" class="st0" width="8.5" height="4.4"/>
<rect x="531.8" y="629" class="st0" width="8.5" height="4.4"/>
<rect x="531.8" y="639.7" class="st0" width="8.5" height="4.4"/>
<rect x="531.8" y="650.6" class="st0" width="8.5" height="4.4"/>
<rect x="531.8" y="661.3" class="st0" width="8.5" height="4.4"/>
<rect x="531.8" y="672.2" class="st0" width="8.5" height="4.4"/>
<rect x="531.8" y="682.9" class="st0" width="8.5" height="4.4"/>
<rect x="531.8" y="693.7" class="st0" width="8.5" height="4.4"/>
<rect x="178.9" y="522.4" class="st0" width="12.6" height="4.4"/>
<rect x="197.5" y="522.4" class="st0" width="12.6" height="4.4"/>
<rect x="178.9" y="530.7" class="st0" width="12.6" height="4.4"/>
<rect x="197.5" y="530.7" class="st0" width="12.6" height="4.4"/>
<rect x="178.9" y="538.9" class="st0" width="12.6" height="4.4"/>
<rect x="197.5" y="538.9" class="st0" width="12.6" height="4.4"/>
<rect x="239.3" y="489.5" class="st0" width="12.2" height="4.4"/>
<rect x="239.3" y="497.8" class="st0" width="12.2" height="4.4"/>
<rect x="239.3" y="506" class="st0" width="12.2" height="4.4"/>
<rect x="239.3" y="514.2" class="st0" width="12.2" height="4.4"/>
<rect x="239.3" y="522.4" class="st0" width="12.2" height="4.4"/>
<rect x="239.3" y="530.7" class="st0" width="12.6" height="4.4"/>
<polygon class="st0" points="251.2,543.3 239.3,543.3 239.3,538.9 251.9,538.9 "/>
<polyline class="st0" points="251.2,551.6 239.3,551.6 239.3,547.1 251.9,547.1 "/>
<polyline class="st0" points="249.7,559.8 239.3,559.8 239.3,555.3 250.3,555.3 "/>
<polyline class="st0" points="247.8,568 239.3,568 239.3,563.6 249.1,563.6 "/>
<polyline class="st0" points="247.2,576.2 239.3,576.2 239.3,571.8 247.8,571.8 "/>
<polyline class="st0" points="246.1,584.5 239.3,584.5 239.3,580 246.7,580 "/>
<polyline class="st0" points="244.5,592.7 239.3,592.7 239.3,588.2 245.5,588.2 "/>
<polyline class="st0" points="243.3,600.9 239.3,600.9 239.3,596.5 244,596.5 "/>
<polyline class="st0" points="242.4,609.1 239.3,609.1 239.3,604.7 243.1,604.7 "/>
<line class="st0" x1="226.6" y1="480.1" x2="226.6" y2="547.1"/>
<line class="st0" x1="158.1" y1="554.3" x2="166" y2="554.3"/>
<line class="st0" x1="158.1" y1="561.8" x2="166" y2="561.8"/>
<line class="st0" x1="158.1" y1="569.3" x2="166" y2="569.3"/>
<line class="st0" x1="158.1" y1="576.9" x2="166" y2="576.9"/>
<line class="st0" x1="158.1" y1="584.4" x2="166" y2="584.4"/>
<line class="st0" x1="158.1" y1="591.9" x2="166" y2="591.9"/>
<line class="st0" x1="171.1" y1="554.3" x2="178.9" y2="554.3"/>
<line class="st0" x1="171.1" y1="561.8" x2="178.9" y2="561.8"/>
<line class="st0" x1="171.1" y1="569.3" x2="178.9" y2="569.3"/>
<line class="st0" x1="171.1" y1="576.9" x2="178.9" y2="576.9"/>
<line class="st0" x1="171.1" y1="584.4" x2="178.9" y2="584.4"/>
<line class="st0" x1="171.1" y1="591.9" x2="178.9" y2="591.9"/>
<line class="st0" x1="216.4" y1="554.3" x2="224.2" y2="554.3"/>
<line class="st0" x1="216.4" y1="561.8" x2="224.2" y2="561.8"/>
<line class="st0" x1="216.4" y1="569.3" x2="224.2" y2="569.3"/>
<line class="st0" x1="216.4" y1="576.9" x2="224.2" y2="576.9"/>
<line class="st0" x1="216.4" y1="584.4" x2="224.2" y2="584.4"/>
<line class="st0" x1="216.4" y1="591.9" x2="224.2" y2="591.9"/>
<line class="st0" x1="216.4" y1="600.9" x2="224.2" y2="600.9"/>
<line class="st0" x1="216.4" y1="609.9" x2="224.2" y2="609.9"/>
<line class="st0" x1="203.9" y1="554.3" x2="211.7" y2="554.3"/>
<line class="st0" x1="203.9" y1="561.8" x2="211.7" y2="561.8"/>
<line class="st0" x1="203.9" y1="569.3" x2="211.7" y2="569.3"/>
<line class="st0" x1="203.9" y1="576.9" x2="211.7" y2="576.9"/>
<line class="st0" x1="203.9" y1="584.4" x2="211.7" y2="584.4"/>
<line class="st0" x1="203.9" y1="591.9" x2="211.7" y2="591.9"/>
<line class="st0" x1="203.9" y1="600.9" x2="211.7" y2="600.9"/>
<line class="st0" x1="203.9" y1="609.9" x2="211.7" y2="609.9"/>
<line class="st0" x1="186.2" y1="547.2" x2="186.2" y2="598.2"/>
<line class="st0" x1="197.1" y1="547.2" x2="197.1" y2="598.2"/>
<line class="st0" x1="11.3" y1="363.7" x2="83.4" y2="363.7"/>
<line class="st0" x1="401.1" y1="236.9" x2="457.3" y2="236.9"/>
<line class="st0" x1="401.1" y1="244" x2="457.3" y2="244"/>
<line class="st0" x1="401.1" y1="251.1" x2="457.3" y2="251.1"/>
<line class="st0" x1="401.1" y1="258.1" x2="457.3" y2="258.1"/>
<line class="st0" x1="401.1" y1="265.2" x2="457.3" y2="265.2"/>
<line class="st0" x1="401.1" y1="272.2" x2="457.3" y2="272.2"/>
<line class="st0" x1="401.1" y1="279.3" x2="457.3" y2="279.3"/>
<line class="st0" x1="401.1" y1="286.4" x2="457.3" y2="286.4"/>
<line class="st0" x1="401.1" y1="293.4" x2="457.3" y2="293.4"/>
<line class="st0" x1="401.1" y1="300.4" x2="457.3" y2="300.4"/>
<line class="st0" x1="401.1" y1="307.5" x2="457.3" y2="307.5"/>
<line class="st0" x1="401.1" y1="314.6" x2="457.3" y2="314.6"/>
<line class="st0" x1="401.1" y1="321.6" x2="457.3" y2="321.6"/>
<line class="st0" x1="383.4" y1="328.6" x2="457.3" y2="328.6"/>
<line class="st0" x1="383.4" y1="335.8" x2="457.3" y2="335.8"/>
<line class="st0" x1="383.4" y1="342.8" x2="457.3" y2="342.8"/>
<line class="st0" x1="383.4" y1="349.8" x2="457.3" y2="349.8"/>
<line class="st0" x1="383.4" y1="356.9" x2="457.3" y2="356.9"/>
<line class="st0" x1="383.4" y1="364" x2="457.3" y2="364"/>
<line class="st0" x1="383.4" y1="371" x2="457.3" y2="371"/>
<line class="st0" x1="383.4" y1="378" x2="457.3" y2="378"/>
<line class="st0" x1="383.4" y1="436.6" x2="383.4" y2="386.3"/>
<line class="st0" x1="389.6" y1="436.6" x2="389.6" y2="386.3"/>
<line class="st0" x1="395.8" y1="436.6" x2="395.8" y2="386.3"/>
<line class="st0" x1="402" y1="436.6" x2="402" y2="386.3"/>
<line class="st0" x1="408.2" y1="436.6" x2="408.2" y2="386.3"/>
<line class="st0" x1="414.4" y1="436.6" x2="414.4" y2="386.3"/>
<line class="st0" x1="420.6" y1="436.6" x2="420.6" y2="386.3"/>
<line class="st0" x1="426.8" y1="436.6" x2="426.8" y2="386.3"/>
<line class="st0" x1="433" y1="436.6" x2="433" y2="386.3"/>
<line class="st0" x1="439.2" y1="436.6" x2="439.2" y2="386.3"/>
<line class="st0" x1="445.5" y1="468.5" x2="445.5" y2="386.3"/>
<line class="st0" x1="451.6" y1="468.5" x2="451.6" y2="386.3"/>
<line class="st0" x1="457.9" y1="468.5" x2="457.9" y2="386.3"/>
<line class="st0" x1="570.8" y1="372.5" x2="570.8" y2="579.1"/>
<line class="st0" x1="500.5" y1="384.3" x2="584" y2="384.3"/>
<line class="st0" x1="500.5" y1="392" x2="584" y2="392"/>
<line class="st0" x1="500.5" y1="399.8" x2="584" y2="399.8"/>
<line class="st0" x1="500.5" y1="407.6" x2="584" y2="407.6"/>
<line class="st0" x1="500.5" y1="415.4" x2="584" y2="415.4"/>
<line class="st0" x1="500.5" y1="423.3" x2="584" y2="423.3"/>
<line class="st0" x1="500.5" y1="431.1" x2="584" y2="431.1"/>
<line class="st0" x1="500.5" y1="438.8" x2="584" y2="438.8"/>
<line class="st0" x1="500.5" y1="446.6" x2="584" y2="446.6"/>
<line class="st0" x1="500.5" y1="454.4" x2="584" y2="454.4"/>
<line class="st0" x1="500.5" y1="462.2" x2="584" y2="462.2"/>
<line class="st0" x1="500.5" y1="470" x2="584" y2="470"/>
<line class="st0" x1="500.5" y1="477.7" x2="584" y2="477.7"/>
<line class="st0" x1="500.5" y1="485.6" x2="584" y2="485.6"/>
<line class="st0" x1="500.5" y1="493.4" x2="584" y2="493.4"/>
<line class="st0" x1="500.5" y1="501.2" x2="584" y2="501.2"/>
<line class="st0" x1="500.5" y1="509" x2="584" y2="509"/>
<line class="st0" x1="562.3" y1="516.7" x2="584" y2="516.7"/>
<line class="st0" x1="562.3" y1="524.5" x2="584" y2="524.5"/>
<line class="st0" x1="562.3" y1="532.3" x2="584" y2="532.3"/>
<line class="st0" x1="562.3" y1="540.1" x2="584" y2="540.1"/>
<line class="st0" x1="562.3" y1="548" x2="584" y2="548"/>
<line class="st0" x1="562.3" y1="555.7" x2="584" y2="555.7"/>
<line class="st0" x1="562.3" y1="563.5" x2="584" y2="563.5"/>
<line class="st0" x1="562.3" y1="571.3" x2="584" y2="571.3"/>
<line class="st0" x1="562.3" y1="577.8" x2="625.6" y2="577.8"/>
<line class="st0" x1="351.5" y1="444.3" x2="433" y2="444.3"/>
<line class="st0" x1="351.5" y1="450.7" x2="433" y2="450.7"/>
<line class="st0" x1="351.5" y1="457.1" x2="433" y2="457.1"/>
<line class="st0" x1="351.5" y1="463.7" x2="403.5" y2="463.7"/>
<line class="st0" x1="426" y1="463.7" x2="433" y2="463.7"/>
<line class="st0" x1="351.5" y1="470.1" x2="403.5" y2="470.1"/>
<line class="st0" x1="351.5" y1="476.6" x2="403.5" y2="476.6"/>
<line class="st0" x1="351.5" y1="483" x2="403.5" y2="483"/>
<line class="st0" x1="351.5" y1="489.5" x2="403.5" y2="489.5"/>
<line class="st0" x1="335.9" y1="620.9" x2="401.1" y2="620.9"/>
<line class="st0" x1="335.9" y1="626.2" x2="401.1" y2="626.2"/>
<line class="st0" x1="335.9" y1="631.5" x2="401.1" y2="631.5"/>
<line class="st0" x1="337.6" y1="636.8" x2="401.1" y2="636.8"/>
<line class="st0" x1="338.4" y1="642.2" x2="401.1" y2="642.2"/>
<line class="st0" x1="339.2" y1="647.5" x2="401.1" y2="647.5"/>
<line class="st0" x1="340.3" y1="652.7" x2="401.1" y2="652.7"/>
<line class="st0" x1="341" y1="658.1" x2="401.1" y2="658.1"/>
<line class="st0" x1="342" y1="663.4" x2="401.1" y2="663.4"/>
<line class="st0" x1="342.9" y1="668.7" x2="401.1" y2="668.7"/>
<line class="st0" x1="343.5" y1="674" x2="401.1" y2="674"/>
<line class="st0" x1="344.4" y1="679.3" x2="401.1" y2="679.3"/>
<line class="st0" x1="345.5" y1="684.7" x2="401.1" y2="684.7"/>
<line class="st0" x1="346.3" y1="689.9" x2="401.1" y2="689.9"/>
<line class="st0" x1="347" y1="695.3" x2="401.1" y2="695.3"/>
<line class="st0" x1="338.8" y1="497.7" x2="338.8" y2="609.9"/>
<line class="st0" x1="383.4" y1="608.7" x2="383.4" y2="709.5"/>
<line class="st0" x1="487.4" y1="436.6" x2="487.4" y2="468.5"/>
<line class="st0" x1="493.9" y1="436.6" x2="493.9" y2="531.1"/>
<line class="st0" x1="479.9" y1="436.6" x2="500.5" y2="436.6"/>
<line class="st0" x1="404.3" y1="473.4" x2="436.3" y2="473.4"/>
<line class="st0" x1="404.3" y1="479.6" x2="442.1" y2="479.6"/>
<line class="st0" x1="404.3" y1="485.8" x2="448.6" y2="485.8"/>
<line class="st0" x1="404.3" y1="491.9" x2="454.7" y2="491.9"/>
<line class="st0" x1="411.2" y1="498.1" x2="460.6" y2="498.1"/>
<line class="st0" x1="411.2" y1="504.2" x2="467.1" y2="504.2"/>
<line class="st0" x1="411.2" y1="510.4" x2="473.2" y2="510.4"/>
<line class="st0" x1="411.2" y1="516.5" x2="479.4" y2="516.5"/>
<line class="st0" x1="411.2" y1="522.7" x2="486.2" y2="522.7"/>
<line class="st0" x1="411.2" y1="528.8" x2="491.7" y2="528.8"/>
<line class="st0" x1="411.2" y1="535" x2="498" y2="535"/>
<line class="st0" x1="411.2" y1="541.1" x2="504.5" y2="541.1"/>
<line class="st0" x1="411.2" y1="547.3" x2="510.1" y2="547.3"/>
<line class="st0" x1="411.2" y1="553.4" x2="513.4" y2="553.4"/>
<line class="st0" x1="411.2" y1="559.6" x2="513.4" y2="559.6"/>
<line class="st0" x1="411.2" y1="565.7" x2="513.4" y2="565.7"/>
<line class="st0" x1="411.2" y1="571.9" x2="513.4" y2="571.9"/>
<line class="st0" x1="411.2" y1="578" x2="513.4" y2="578"/>
<line class="st0" x1="411.2" y1="584.2" x2="513.4" y2="584.2"/>
<line class="st0" x1="411.2" y1="590.3" x2="513.4" y2="590.3"/>
<line class="st0" x1="411.2" y1="596.5" x2="513.4" y2="596.5"/>
<line class="st0" x1="411.2" y1="602.6" x2="513.4" y2="602.6"/>
<line class="st0" x1="411.2" y1="608.8" x2="513.4" y2="608.8"/>
<line class="st0" x1="411.2" y1="614.9" x2="513.4" y2="614.9"/>
<line class="st0" x1="411.2" y1="621.1" x2="513.4" y2="621.1"/>
<line class="st0" x1="411.2" y1="627.2" x2="513.4" y2="627.2"/>
<line class="st0" x1="411.2" y1="633.4" x2="513.4" y2="633.4"/>
<line class="st0" x1="411.2" y1="639.5" x2="513.4" y2="639.5"/>
<line class="st0" x1="411.2" y1="645.7" x2="513.4" y2="645.7"/>
<line class="st0" x1="411.2" y1="651.9" x2="513.4" y2="651.9"/>
<line class="st0" x1="411.2" y1="658" x2="513.4" y2="658"/>
<line class="st0" x1="411.2" y1="664.2" x2="513.4" y2="664.2"/>
<line class="st0" x1="411.2" y1="670.3" x2="513.4" y2="670.3"/>
<line class="st0" x1="411.2" y1="676.5" x2="513.4" y2="676.5"/>
<line class="st0" x1="411.2" y1="682.6" x2="513.4" y2="682.6"/>
<line class="st0" x1="411.2" y1="688.8" x2="513.4" y2="688.8"/>
<line class="st0" x1="411.2" y1="694.9" x2="513.4" y2="694.9"/>
<line class="st0" x1="411.2" y1="701.1" x2="513.4" y2="701.1"/>
<line class="st0" x1="522.5" y1="514.6" x2="522.5" y2="710.3"/>
<rect x="454.6" y="477.7" class="st0" width="6.1" height="6.1"/>
<rect x="467.1" y="477.7" class="st0" width="6.1" height="6.1"/>
<rect x="479.5" y="477.7" class="st0" width="6.1" height="6.1"/>
<polyline class="st0" points="454.6,491 460.6,491 460.6,497 "/>
<rect x="467.1" y="491" class="st0" width="6.1" height="6.1"/>
<rect x="479.5" y="491" class="st0" width="6.1" height="6.1"/>
<polyline class="st0" points="467.1,504.2 473,504.2 473,510.3 "/>
<rect x="479.5" y="504.2" class="st0" width="6.1" height="6.1"/>
<rect x="645.9" y="352.4" class="st0" width="9.1" height="9.1"/>
<rect x="645.9" y="369.1" class="st0" width="9.1" height="9.1"/>
<rect x="645.9" y="385.7" class="st0" width="9.1" height="9.1"/>
<rect x="645.9" y="402.4" class="st0" width="9.1" height="9.1"/>
<rect x="645.9" y="419" class="st0" width="9.1" height="9.1"/>
<rect x="645.9" y="435.6" class="st0" width="9.1" height="9.1"/>
<rect x="608.7" y="435.6" class="st0" width="9.1" height="9.1"/>
<rect x="682.6" y="435.6" class="st0" width="9.1" height="9.1"/>
<rect x="608.7" y="452.3" class="st0" width="9.1" height="9.1"/>
<rect x="682.6" y="452.3" class="st0" width="9.1" height="9.1"/>
<rect x="608.7" y="468.9" class="st0" width="9.1" height="9.1"/>
<rect x="682.6" y="468.9" class="st0" width="9.1" height="9.1"/>
<rect x="608.7" y="485.6" class="st0" width="9.1" height="9.1"/>
<rect x="682.6" y="485.6" class="st0" width="9.1" height="9.1"/>
<rect x="608.7" y="502.2" class="st0" width="9.1" height="9.1"/>
<rect x="682.6" y="502.2" class="st0" width="9.1" height="9.1"/>
<rect x="608.7" y="518.9" class="st0" width="9.1" height="9.1"/>
<rect x="682.6" y="518.9" class="st0" width="9.1" height="9.1"/>
<rect x="608.7" y="535.5" class="st0" width="9.1" height="9.1"/>
<rect x="608.7" y="552.2" class="st0" width="9.1" height="9.1"/>
<rect x="608.7" y="568.8" class="st0" width="9.1" height="9.1"/>
<rect x="645.9" y="452.3" class="st0" width="9.1" height="9.1"/>
<rect x="645.9" y="468.9" class="st0" width="9.1" height="9.1"/>
<rect x="645.9" y="485.6" class="st0" width="9.1" height="9.1"/>
<rect x="645.9" y="502.2" class="st0" width="9.1" height="9.1"/>
<rect x="646" y="518.9" class="st0" width="9.1" height="9.1"/>
<rect x="646" y="535.5" class="st0" width="9.1" height="9.1"/>
<rect x="646" y="552.2" class="st0" width="9.1" height="9.1"/>
<rect x="646" y="568.8" class="st0" width="9.1" height="9.1"/>
<path class="st0" d="M675.2,527.5"/>
<path class="st0" d="M667.1,579.1"/>
<path class="st0" d="M675.2,527.5V357.4c0-12-9.8-21.8-21.9-21.8h-5.9c-12.1,0-21.9,9.8-21.9,21.8v220.3H670"/>
<rect x="625.6" y="361.4" class="st0" width="49.6" height="7.6"/>
<rect x="625.6" y="378" class="st0" width="49.6" height="7.6"/>
<rect x="670.2" y="527.8" class="st0" width="39.8" height="182.4"/>
<g>
	<line class="st0" x1="635.3" y1="385.7" x2="635.3" y2="577.5"/>
	<line class="st0" x1="665.6" y1="385.7" x2="665.6" y2="577.5"/>
</g>
<line class="st0" x1="608.7" y1="407.6" x2="625.6" y2="407.6"/>
<line class="st0" x1="674.5" y1="407.6" x2="691.3" y2="407.6"/>
<line class="st0" x1="608.7" y1="401.2" x2="625.6" y2="401.2"/>
<line class="st0" x1="674.5" y1="401.2" x2="691.3" y2="401.2"/>
<line class="st0" x1="608.7" y1="394.7" x2="625.6" y2="394.7"/>
<line class="st0" x1="674.5" y1="394.7" x2="691.3" y2="394.7"/>
<line class="st0" x1="608.7" y1="388.2" x2="625.6" y2="388.2"/>
<line class="st0" x1="674.5" y1="388.2" x2="691.3" y2="388.2"/>
<line class="st0" x1="608.7" y1="381.8" x2="625.6" y2="381.8"/>
<line class="st0" x1="674.5" y1="381.8" x2="691.3" y2="381.8"/>
<line class="st0" x1="608.7" y1="375.3" x2="625.6" y2="375.3"/>
<line class="st0" x1="674.5" y1="375.3" x2="691.3" y2="375.3"/>
<line class="st0" x1="608.7" y1="368.9" x2="625.6" y2="368.9"/>
<line class="st0" x1="674.5" y1="368.9" x2="691.3" y2="368.9"/>
<line class="st0" x1="608.7" y1="362.4" x2="625.6" y2="362.4"/>
<line class="st0" x1="674.5" y1="362.4" x2="691.3" y2="362.4"/>
<line class="st0" x1="608.7" y1="355.9" x2="625.6" y2="355.9"/>
<line class="st0" x1="674.5" y1="355.9" x2="691.3" y2="355.9"/>
<line class="st0" x1="608.7" y1="349.4" x2="627.2" y2="349.4"/>
<line class="st0" x1="674.5" y1="349.4" x2="691.3" y2="349.4"/>
<line class="st0" x1="608.7" y1="343" x2="631.2" y2="343"/>
<line class="st0" x1="669.7" y1="343" x2="691.3" y2="343"/>
<line class="st0" x1="608.7" y1="336.5" x2="641.6" y2="336.5"/>
<line class="st0" x1="659.2" y1="336.5" x2="691.3" y2="336.5"/>
<line class="st0" x1="601.8" y1="426.5" x2="625.1" y2="426.5"/>
<line class="st0" x1="675.4" y1="426.5" x2="698.8" y2="426.5"/>
<rect x="546.4" y="607.6" class="st0" width="123.7" height="102.6"/>
<line class="st0" x1="546.4" y1="710.3" x2="513.4" y2="710.3"/>
<rect x="570.8" y="586.6" class="st0" width="6.3" height="6.3"/>
<rect x="587.7" y="586.6" class="st0" width="6.3" height="6.3"/>
<rect x="604.6" y="586.6" class="st0" width="6.3" height="6.3"/>
<rect x="621.6" y="586.6" class="st0" width="6.3" height="6.3"/>
<rect x="638.5" y="586.6" class="st0" width="6.3" height="6.3"/>
<rect x="655.4" y="586.6" class="st0" width="6.3" height="6.3"/>
<rect x="570.8" y="601.3" class="st0" width="6.3" height="6.3"/>
<rect x="587.7" y="601.3" class="st0" width="6.3" height="6.3"/>
<rect x="604.6" y="601.3" class="st0" width="6.3" height="6.3"/>
<rect x="621.6" y="601.3" class="st0" width="6.3" height="6.3"/>
<rect x="638.5" y="601.3" class="st0" width="6.3" height="6.3"/>
<rect x="655.4" y="601.3" class="st0" width="6.3" height="6.3"/>
<rect x="557" y="619" class="st0" width="30.8" height="91.3"/>
<rect x="606.2" y="619" class="st0" width="64" height="91.3"/>
<line class="st0" x1="596.9" y1="608.7" x2="596.9" y2="710.3"/>
<line class="st0" x1="557" y1="625.3" x2="587.7" y2="625.3"/>
<line class="st0" x1="606.2" y1="625.3" x2="670.2" y2="625.3"/>
<line class="st0" x1="557" y1="631.2" x2="587.7" y2="631.2"/>
<line class="st0" x1="606.2" y1="631.2" x2="670.2" y2="631.2"/>
<line class="st0" x1="557" y1="637.1" x2="587.7" y2="637.1"/>
<line class="st0" x1="606.2" y1="637.1" x2="670.2" y2="637.1"/>
<line class="st0" x1="557" y1="643" x2="587.7" y2="643"/>
<line class="st0" x1="606.2" y1="643" x2="670.2" y2="643"/>
<line class="st0" x1="557" y1="648.8" x2="587.7" y2="648.8"/>
<line class="st0" x1="606.2" y1="648.8" x2="670.2" y2="648.8"/>
<line class="st0" x1="557" y1="654.8" x2="587.7" y2="654.8"/>
<line class="st0" x1="606.2" y1="654.8" x2="670.2" y2="654.8"/>
<line class="st0" x1="557" y1="660.6" x2="587.7" y2="660.6"/>
<line class="st0" x1="606.2" y1="660.6" x2="670.2" y2="660.6"/>
<line class="st0" x1="557" y1="666.5" x2="587.7" y2="666.5"/>
<line class="st0" x1="606.2" y1="666.5" x2="670.2" y2="666.5"/>
<line class="st0" x1="557" y1="672.5" x2="587.7" y2="672.5"/>
<line class="st0" x1="606.2" y1="672.5" x2="670.2" y2="672.5"/>
<line class="st0" x1="557" y1="678.3" x2="587.7" y2="678.3"/>
<line class="st0" x1="606.2" y1="678.3" x2="670.2" y2="678.3"/>
<line class="st0" x1="557" y1="684.2" x2="587.7" y2="684.2"/>
<line class="st0" x1="606.2" y1="684.2" x2="670.2" y2="684.2"/>
<line class="st0" x1="557" y1="690" x2="587.7" y2="690"/>
<line class="st0" x1="606.2" y1="690" x2="670.2" y2="690"/>
<line class="st0" x1="557" y1="696" x2="587.7" y2="696"/>
<line class="st0" x1="606.2" y1="696" x2="670.2" y2="696"/>
<line class="st0" x1="557" y1="701.8" x2="587.7" y2="701.8"/>
<line class="st0" x1="606.2" y1="701.8" x2="670.2" y2="701.8"/>
<line class="st0" x1="672.7" y1="546.9" x2="707.4" y2="546.9"/>
<line class="st0" x1="672.7" y1="553.7" x2="707.4" y2="553.7"/>
<line class="st0" x1="672.7" y1="560.6" x2="707.4" y2="560.6"/>
<line class="st0" x1="672.7" y1="567.4" x2="707.4" y2="567.4"/>
<line class="st0" x1="672.7" y1="574.2" x2="707.4" y2="574.2"/>
<line class="st0" x1="672.7" y1="581.1" x2="707.4" y2="581.1"/>
<line class="st0" x1="672.7" y1="587.9" x2="707.4" y2="587.9"/>
<line class="st0" x1="672.7" y1="594.7" x2="707.4" y2="594.7"/>
<line class="st0" x1="672.7" y1="601.6" x2="707.4" y2="601.6"/>
<line class="st0" x1="672.7" y1="608.5" x2="707.4" y2="608.5"/>
<line class="st0" x1="672.7" y1="615.3" x2="707.4" y2="615.3"/>
<line class="st0" x1="672.7" y1="622.2" x2="707.4" y2="622.2"/>
<line class="st0" x1="672.7" y1="629" x2="707.4" y2="629"/>
<line class="st0" x1="672.7" y1="635.8" x2="707.4" y2="635.8"/>
<line class="st0" x1="672.7" y1="642.7" x2="707.4" y2="642.7"/>
<line class="st0" x1="672.7" y1="649.5" x2="707.4" y2="649.5"/>
<line class="st0" x1="672.7" y1="656.3" x2="707.4" y2="656.3"/>
<line class="st0" x1="672.7" y1="663.2" x2="707.4" y2="663.2"/>
<line class="st0" x1="672.7" y1="670" x2="707.4" y2="670"/>
<line class="st0" x1="672.7" y1="676.8" x2="707.4" y2="676.8"/>
<line class="st0" x1="672.7" y1="683.7" x2="707.4" y2="683.7"/>
<line class="st0" x1="672.7" y1="683.5" x2="707.4" y2="683.5"/>
<line class="st0" x1="672.7" y1="690.3" x2="707.4" y2="690.3"/>
<line class="st0" x1="672.7" y1="697.2" x2="707.4" y2="697.2"/>
<line class="st0" x1="672.7" y1="704" x2="707.4" y2="704"/>
<line class="st0" x1="670.2" y1="534.9" x2="710" y2="534.9"/>
<line class="st0" x1="43.9" y1="619" x2="19.9" y2="619"/>
<g>
	<circle class="st0" cx="693" cy="37" r="9"/>
	<path class="st0" d="M660,28h-19.3C638.2,16.1,627.6,7.1,615,7.1c-12.9,0-23.6,9.3-25.9,21.5c-6,1.7-10.5,6.8-11.4,13.1h-7.8
		c-5,0-9,4-9,9s4,9,9,9h23.5h0.8h42.2c8,0,14.7-6,15.7-13.8h7.8c5,0,9-4,9-9S665,28,660,28z"/>
	<circle class="st0" cx="560.9" cy="22" r="6"/>
	<circle class="st0" cx="669" cy="7.2" r="6"/>
</g>
</svg>
