<?xml version="1.0" encoding="utf-8"?>
<!-- Generator: Adobe Illustrator 20.0.0, SVG Export Plug-In . SVG Version: 6.00 Build 0)  -->
<svg version="1.1" id="Layer_2" xmlns="http://www.w3.org/2000/svg" xmlns:xlink="http://www.w3.org/1999/xlink" x="0px" y="0px"
	 viewBox="0 0 710 710" style="enable-background:new 0 0 710 710;" xml:space="preserve">
<style type="text/css">
	.st0{fill:none;stroke:#4F4F4F;stroke-miterlimit:10;}
</style>
<g>
	<path class="st0" d="M0,592"/>
	<path class="st0" d="M78.2,592"/>
	<polyline class="st0" points="0,592 0,61.7 78.2,61.7 78.2,592 	"/>
	<path class="st0" d="M94.6,592"/>
	<path class="st0" d="M172.9,592"/>
	<polyline class="st0" points="94.6,592 94.6,61.7 172.9,61.7 172.9,592 	"/>
	<line class="st0" x1="78.2" y1="74" x2="94.6" y2="74"/>
	<g>
		<line class="st0" x1="42.7" y1="61.4" x2="42.7" y2="0"/>
		<line class="st0" x1="39.9" y1="5.9" x2="45.5" y2="5.9"/>
		<line class="st0" x1="39.9" y1="0" x2="45.5" y2="0"/>
	</g>
	<g>
		<line class="st0" x1="133.7" y1="61.4" x2="133.7" y2="0"/>
		<line class="st0" x1="131" y1="5.9" x2="136.6" y2="5.9"/>
		<line class="st0" x1="131" y1="0" x2="136.6" y2="0"/>
	</g>
	<g>
		<line class="st0" x1="0" y1="68.7" x2="78.2" y2="68.7"/>
		<line class="st0" x1="0" y1="76.6" x2="78.2" y2="76.6"/>
		<line class="st0" x1="0" y1="84.4" x2="78.2" y2="84.4"/>
		<line class="st0" x1="0" y1="92.3" x2="78.2" y2="92.3"/>
		<line class="st0" x1="0" y1="100" x2="78.2" y2="100"/>
		<line class="st0" x1="0" y1="107.9" x2="78.2" y2="107.9"/>
		<line class="st0" x1="0" y1="115.7" x2="78.2" y2="115.7"/>
		<line class="st0" x1="0" y1="123.6" x2="78.2" y2="123.6"/>
		<line class="st0" x1="0" y1="131.5" x2="78.2" y2="131.5"/>
		<line class="st0" x1="0" y1="139.3" x2="78.2" y2="139.3"/>
		<line class="st0" x1="0" y1="147.2" x2="78.2" y2="147.2"/>
		<line class="st0" x1="0" y1="155" x2="78.2" y2="155"/>
		<line class="st0" x1="0" y1="162.9" x2="78.2" y2="162.9"/>
		<line class="st0" x1="0" y1="170.8" x2="78.2" y2="170.8"/>
		<line class="st0" x1="0" y1="178.6" x2="78.2" y2="178.6"/>
		<line class="st0" x1="0" y1="186.5" x2="78.2" y2="186.5"/>
		<line class="st0" x1="0" y1="194.3" x2="78.2" y2="194.3"/>
		<line class="st0" x1="0" y1="202.2" x2="78.2" y2="202.2"/>
		<line class="st0" x1="0" y1="210.1" x2="78.2" y2="210.1"/>
		<line class="st0" x1="0" y1="217.9" x2="78.2" y2="217.9"/>
		<line class="st0" x1="0" y1="225.8" x2="78.2" y2="225.8"/>
		<line class="st0" x1="0" y1="233.6" x2="78.2" y2="233.6"/>
		<line class="st0" x1="0" y1="241.5" x2="78.2" y2="241.5"/>
		<line class="st0" x1="0" y1="249.3" x2="78.2" y2="249.3"/>
		<line class="st0" x1="0" y1="257.2" x2="78.2" y2="257.2"/>
		<line class="st0" x1="0" y1="265" x2="78.2" y2="265"/>
		<line class="st0" x1="0" y1="272.8" x2="78.2" y2="272.8"/>
		<line class="st0" x1="0" y1="280.7" x2="78.2" y2="280.7"/>
		<line class="st0" x1="0" y1="288.5" x2="78.2" y2="288.5"/>
		<line class="st0" x1="0" y1="296.4" x2="78.2" y2="296.4"/>
		<line class="st0" x1="0" y1="304.3" x2="78.2" y2="304.3"/>
		<line class="st0" x1="0" y1="312.1" x2="78.2" y2="312.1"/>
		<line class="st0" x1="0" y1="320" x2="78.2" y2="320"/>
		<line class="st0" x1="0" y1="327.8" x2="78.2" y2="327.8"/>
		<line class="st0" x1="0" y1="335.7" x2="78.2" y2="335.7"/>
		<line class="st0" x1="0" y1="343.5" x2="78.2" y2="343.5"/>
		<line class="st0" x1="0" y1="351.4" x2="78.2" y2="351.4"/>
		<line class="st0" x1="0" y1="359.3" x2="78.2" y2="359.3"/>
		<line class="st0" x1="0" y1="367.1" x2="78.2" y2="367.1"/>
		<line class="st0" x1="0" y1="375" x2="78.2" y2="375"/>
		<line class="st0" x1="0" y1="382.8" x2="78.2" y2="382.8"/>
		<line class="st0" x1="0" y1="390.7" x2="78.2" y2="390.7"/>
		<line class="st0" x1="0" y1="398.6" x2="78.2" y2="398.6"/>
		<line class="st0" x1="0" y1="406.4" x2="78.2" y2="406.4"/>
		<line class="st0" x1="0" y1="414.3" x2="78.2" y2="414.3"/>
		<line class="st0" x1="0" y1="422" x2="78.2" y2="422"/>
		<line class="st0" x1="0" y1="429.9" x2="78.2" y2="429.9"/>
		<line class="st0" x1="0" y1="437.7" x2="78.2" y2="437.7"/>
		<line class="st0" x1="0" y1="445.6" x2="78.2" y2="445.6"/>
		<line class="st0" x1="0" y1="453.5" x2="78.2" y2="453.5"/>
		<line class="st0" x1="0" y1="461.3" x2="78.2" y2="461.3"/>
		<line class="st0" x1="0" y1="469.2" x2="78.2" y2="469.2"/>
		<line class="st0" x1="0" y1="477" x2="78.2" y2="477"/>
		<line class="st0" x1="0" y1="484.9" x2="78.2" y2="484.9"/>
		<line class="st0" x1="0" y1="492.8" x2="78.2" y2="492.8"/>
		<line class="st0" x1="0" y1="500.6" x2="78.2" y2="500.6"/>
		<line class="st0" x1="0" y1="508.5" x2="78.2" y2="508.5"/>
		<line class="st0" x1="0" y1="516.3" x2="78.2" y2="516.3"/>
		<line class="st0" x1="0" y1="524.2" x2="78.2" y2="524.2"/>
		<line class="st0" x1="0" y1="532" x2="78.2" y2="532"/>
		<line class="st0" x1="0" y1="539.9" x2="78.2" y2="539.9"/>
		<line class="st0" x1="0" y1="547.8" x2="78.2" y2="547.8"/>
		<line class="st0" x1="0" y1="555.6" x2="78.2" y2="555.6"/>
		<line class="st0" x1="0" y1="563.5" x2="78.2" y2="563.5"/>
		<line class="st0" x1="0" y1="571.3" x2="78.2" y2="571.3"/>
		<line class="st0" x1="0" y1="579.2" x2="78.2" y2="579.2"/>
		<line class="st0" x1="0" y1="587" x2="78.2" y2="587"/>
	</g>
	<g>
		<line class="st0" x1="94.6" y1="68.7" x2="172.9" y2="68.7"/>
		<line class="st0" x1="94.6" y1="76.6" x2="172.9" y2="76.6"/>
		<line class="st0" x1="94.6" y1="84.4" x2="172.9" y2="84.4"/>
		<line class="st0" x1="94.6" y1="92.3" x2="172.9" y2="92.3"/>
		<line class="st0" x1="94.6" y1="100" x2="172.9" y2="100"/>
		<line class="st0" x1="94.6" y1="107.9" x2="172.9" y2="107.9"/>
		<line class="st0" x1="94.6" y1="115.7" x2="172.9" y2="115.7"/>
		<line class="st0" x1="94.6" y1="123.6" x2="172.9" y2="123.6"/>
		<line class="st0" x1="94.6" y1="131.5" x2="172.9" y2="131.5"/>
		<line class="st0" x1="94.6" y1="139.3" x2="172.9" y2="139.3"/>
		<line class="st0" x1="94.6" y1="147.2" x2="172.9" y2="147.2"/>
		<line class="st0" x1="94.6" y1="155" x2="172.9" y2="155"/>
		<line class="st0" x1="94.6" y1="162.9" x2="172.9" y2="162.9"/>
		<line class="st0" x1="94.6" y1="170.8" x2="172.9" y2="170.8"/>
		<line class="st0" x1="94.6" y1="178.6" x2="172.9" y2="178.6"/>
		<line class="st0" x1="94.6" y1="186.5" x2="172.9" y2="186.5"/>
		<line class="st0" x1="94.6" y1="194.3" x2="172.9" y2="194.3"/>
		<line class="st0" x1="94.6" y1="202.2" x2="172.9" y2="202.2"/>
		<line class="st0" x1="94.6" y1="210.1" x2="172.9" y2="210.1"/>
		<line class="st0" x1="94.6" y1="217.9" x2="172.9" y2="217.9"/>
		<line class="st0" x1="94.6" y1="225.8" x2="172.9" y2="225.8"/>
		<line class="st0" x1="94.6" y1="233.6" x2="172.9" y2="233.6"/>
		<line class="st0" x1="94.6" y1="241.5" x2="172.9" y2="241.5"/>
		<line class="st0" x1="94.6" y1="249.3" x2="172.9" y2="249.3"/>
		<line class="st0" x1="94.6" y1="257.2" x2="172.9" y2="257.2"/>
		<line class="st0" x1="94.6" y1="265" x2="172.9" y2="265"/>
		<line class="st0" x1="94.6" y1="272.8" x2="172.9" y2="272.8"/>
		<line class="st0" x1="94.6" y1="280.7" x2="172.9" y2="280.7"/>
		<line class="st0" x1="94.6" y1="288.5" x2="172.9" y2="288.5"/>
		<line class="st0" x1="94.6" y1="296.4" x2="172.9" y2="296.4"/>
		<line class="st0" x1="94.6" y1="304.3" x2="172.9" y2="304.3"/>
		<line class="st0" x1="94.6" y1="312.1" x2="172.9" y2="312.1"/>
		<line class="st0" x1="94.6" y1="320" x2="172.9" y2="320"/>
		<line class="st0" x1="94.6" y1="327.8" x2="172.9" y2="327.8"/>
		<line class="st0" x1="94.6" y1="335.7" x2="172.9" y2="335.7"/>
		<line class="st0" x1="94.6" y1="343.5" x2="172.9" y2="343.5"/>
		<line class="st0" x1="94.6" y1="351.4" x2="172.9" y2="351.4"/>
		<line class="st0" x1="94.6" y1="359.3" x2="172.9" y2="359.3"/>
		<line class="st0" x1="94.6" y1="367.1" x2="172.9" y2="367.1"/>
		<line class="st0" x1="94.6" y1="375" x2="172.9" y2="375"/>
		<line class="st0" x1="94.6" y1="382.8" x2="172.9" y2="382.8"/>
		<line class="st0" x1="94.6" y1="390.7" x2="172.9" y2="390.7"/>
		<line class="st0" x1="94.6" y1="398.6" x2="172.9" y2="398.6"/>
		<line class="st0" x1="94.6" y1="406.4" x2="172.9" y2="406.4"/>
		<line class="st0" x1="94.6" y1="414.3" x2="172.9" y2="414.3"/>
		<line class="st0" x1="94.6" y1="422" x2="172.9" y2="422"/>
		<line class="st0" x1="94.6" y1="429.9" x2="172.9" y2="429.9"/>
		<line class="st0" x1="94.6" y1="437.7" x2="172.9" y2="437.7"/>
		<line class="st0" x1="94.6" y1="445.6" x2="172.9" y2="445.6"/>
		<line class="st0" x1="94.6" y1="453.5" x2="172.9" y2="453.5"/>
		<line class="st0" x1="94.6" y1="461.3" x2="172.9" y2="461.3"/>
		<line class="st0" x1="94.6" y1="469.2" x2="172.9" y2="469.2"/>
		<line class="st0" x1="94.6" y1="477" x2="172.9" y2="477"/>
		<line class="st0" x1="94.6" y1="484.9" x2="172.9" y2="484.9"/>
		<line class="st0" x1="94.6" y1="492.8" x2="172.9" y2="492.8"/>
		<line class="st0" x1="94.6" y1="500.6" x2="172.9" y2="500.6"/>
		<line class="st0" x1="94.6" y1="508.5" x2="172.9" y2="508.5"/>
		<line class="st0" x1="94.6" y1="516.3" x2="172.9" y2="516.3"/>
		<line class="st0" x1="94.6" y1="524.2" x2="172.9" y2="524.2"/>
		<line class="st0" x1="94.6" y1="532" x2="172.9" y2="532"/>
		<line class="st0" x1="94.6" y1="539.9" x2="172.9" y2="539.9"/>
		<line class="st0" x1="94.6" y1="547.8" x2="172.9" y2="547.8"/>
		<line class="st0" x1="94.6" y1="555.6" x2="172.9" y2="555.6"/>
		<line class="st0" x1="94.6" y1="563.5" x2="172.9" y2="563.5"/>
		<line class="st0" x1="94.6" y1="571.3" x2="172.9" y2="571.3"/>
		<line class="st0" x1="94.6" y1="579.2" x2="172.9" y2="579.2"/>
		<line class="st0" x1="94.6" y1="587" x2="172.9" y2="587"/>
	</g>
	<g>
		<line class="st0" x1="82.3" y1="80.8" x2="90.4" y2="80.8"/>
		<line class="st0" x1="82.3" y1="88.5" x2="90.4" y2="88.5"/>
		<line class="st0" x1="82.3" y1="96.2" x2="90.4" y2="96.2"/>
		<line class="st0" x1="82.3" y1="103.8" x2="90.4" y2="103.8"/>
		<line class="st0" x1="82.3" y1="111.5" x2="90.4" y2="111.5"/>
		<line class="st0" x1="82.3" y1="119.1" x2="90.4" y2="119.1"/>
		<line class="st0" x1="82.3" y1="126.8" x2="90.4" y2="126.8"/>
		<line class="st0" x1="82.3" y1="134.5" x2="90.4" y2="134.5"/>
		<line class="st0" x1="82.3" y1="142.1" x2="90.4" y2="142.1"/>
		<line class="st0" x1="82.3" y1="149.7" x2="90.4" y2="149.7"/>
		<line class="st0" x1="82.3" y1="157.3" x2="90.4" y2="157.3"/>
		<line class="st0" x1="82.3" y1="165" x2="90.4" y2="165"/>
		<line class="st0" x1="82.3" y1="172.7" x2="90.4" y2="172.7"/>
		<line class="st0" x1="82.3" y1="180.3" x2="90.4" y2="180.3"/>
		<line class="st0" x1="82.3" y1="188" x2="90.4" y2="188"/>
		<line class="st0" x1="82.3" y1="195.6" x2="90.4" y2="195.6"/>
		<line class="st0" x1="82.3" y1="203.3" x2="90.4" y2="203.3"/>
		<line class="st0" x1="82.3" y1="211" x2="90.4" y2="211"/>
		<line class="st0" x1="82.3" y1="218.6" x2="90.4" y2="218.6"/>
		<line class="st0" x1="82.3" y1="226.3" x2="90.4" y2="226.3"/>
		<line class="st0" x1="82.3" y1="233.9" x2="90.4" y2="233.9"/>
		<line class="st0" x1="82.3" y1="241.6" x2="90.4" y2="241.6"/>
		<line class="st0" x1="82.3" y1="249.3" x2="90.4" y2="249.3"/>
		<line class="st0" x1="82.3" y1="256.8" x2="90.4" y2="256.8"/>
		<line class="st0" x1="82.3" y1="264.5" x2="90.4" y2="264.5"/>
		<line class="st0" x1="82.3" y1="272.1" x2="90.4" y2="272.1"/>
		<line class="st0" x1="82.3" y1="279.8" x2="90.4" y2="279.8"/>
		<line class="st0" x1="82.3" y1="287.5" x2="90.4" y2="287.5"/>
		<line class="st0" x1="82.3" y1="295.1" x2="90.4" y2="295.1"/>
		<line class="st0" x1="82.3" y1="302.8" x2="90.4" y2="302.8"/>
		<line class="st0" x1="82.3" y1="310.4" x2="90.4" y2="310.4"/>
		<line class="st0" x1="82.3" y1="318.1" x2="90.4" y2="318.1"/>
		<line class="st0" x1="82.3" y1="325.8" x2="90.4" y2="325.8"/>
		<line class="st0" x1="82.3" y1="333.4" x2="90.4" y2="333.4"/>
		<line class="st0" x1="82.3" y1="341.1" x2="90.4" y2="341.1"/>
		<line class="st0" x1="82.3" y1="348.7" x2="90.4" y2="348.7"/>
		<line class="st0" x1="82.3" y1="356.4" x2="90.4" y2="356.4"/>
		<line class="st0" x1="82.3" y1="364" x2="90.4" y2="364"/>
		<line class="st0" x1="82.3" y1="371.6" x2="90.4" y2="371.6"/>
		<line class="st0" x1="82.3" y1="379.3" x2="90.4" y2="379.3"/>
		<line class="st0" x1="82.3" y1="386.9" x2="90.4" y2="386.9"/>
		<line class="st0" x1="82.3" y1="394.6" x2="90.4" y2="394.6"/>
		<line class="st0" x1="82.3" y1="402.3" x2="90.4" y2="402.3"/>
		<line class="st0" x1="82.3" y1="409.9" x2="90.4" y2="409.9"/>
		<line class="st0" x1="82.3" y1="417.6" x2="90.4" y2="417.6"/>
		<line class="st0" x1="82.3" y1="425.2" x2="90.4" y2="425.2"/>
		<line class="st0" x1="82.3" y1="432.9" x2="90.4" y2="432.9"/>
		<line class="st0" x1="82.3" y1="440.5" x2="90.4" y2="440.5"/>
		<line class="st0" x1="82.3" y1="448.2" x2="90.4" y2="448.2"/>
		<line class="st0" x1="82.3" y1="455.9" x2="90.4" y2="455.9"/>
		<line class="st0" x1="82.3" y1="463.4" x2="90.4" y2="463.4"/>
		<line class="st0" x1="82.3" y1="471.1" x2="90.4" y2="471.1"/>
		<line class="st0" x1="82.3" y1="478.7" x2="90.4" y2="478.7"/>
		<line class="st0" x1="82.3" y1="486.4" x2="90.4" y2="486.4"/>
		<line class="st0" x1="82.3" y1="494.1" x2="90.4" y2="494.1"/>
		<line class="st0" x1="82.3" y1="501.7" x2="90.4" y2="501.7"/>
		<line class="st0" x1="82.3" y1="509.4" x2="90.4" y2="509.4"/>
		<line class="st0" x1="82.3" y1="517" x2="90.4" y2="517"/>
		<line class="st0" x1="82.3" y1="524.7" x2="90.4" y2="524.7"/>
		<line class="st0" x1="82.3" y1="532.4" x2="90.4" y2="532.4"/>
		<line class="st0" x1="82.3" y1="540" x2="90.4" y2="540"/>
		<line class="st0" x1="82.3" y1="547.7" x2="90.4" y2="547.7"/>
		<line class="st0" x1="82.3" y1="555.3" x2="90.4" y2="555.3"/>
		<line class="st0" x1="82.3" y1="563" x2="90.4" y2="563"/>
		<line class="st0" x1="82.3" y1="570.6" x2="90.4" y2="570.6"/>
		<line class="st0" x1="82.3" y1="578.2" x2="90.4" y2="578.2"/>
		<line class="st0" x1="82.3" y1="585.9" x2="90.4" y2="585.9"/>
	</g>
</g>
<g>
	<path class="st0" d="M366.6,634.9"/>
	<polyline class="st0" points="478.3,658 478.3,711.6 377.9,711.6 	"/>
	<polyline class="st0" points="366.6,634.9 366.6,327.4 478.3,327.4 478.3,634.9 	"/>
	<rect x="376.5" y="314.1" class="st0" width="88" height="13.3"/>
	<rect x="389.3" y="294.8" class="st0" width="63.6" height="19.2"/>
	<g>
		<line class="st0" x1="390" y1="674.7" x2="390" y2="711.6"/>
		<path class="st0" d="M390,674.7"/>
		<path class="st0" d="M390,634.9"/>
		<line class="st0" x1="390" y1="327.4" x2="390" y2="634.9"/>
		<line class="st0" x1="453.6" y1="658.6" x2="453.6" y2="711.6"/>
		<path class="st0" d="M453.6,658.6"/>
		<path class="st0" d="M453.6,634.9"/>
		<line class="st0" x1="453.6" y1="327.4" x2="453.6" y2="634.9"/>
	</g>
	<line class="st0" x1="366.6" y1="337.4" x2="478.3" y2="337.4"/>
	<line class="st0" x1="366.6" y1="347.3" x2="478.3" y2="347.3"/>
	<line class="st0" x1="366.6" y1="357.4" x2="478.3" y2="357.4"/>
	<line class="st0" x1="366.6" y1="367.4" x2="478.3" y2="367.4"/>
	<line class="st0" x1="366.6" y1="377.4" x2="478.3" y2="377.4"/>
	<line class="st0" x1="366.6" y1="387.4" x2="478.3" y2="387.4"/>
	<line class="st0" x1="366.6" y1="397.3" x2="478.3" y2="397.3"/>
	<line class="st0" x1="366.6" y1="407.4" x2="478.3" y2="407.4"/>
	<line class="st0" x1="366.6" y1="417.4" x2="478.3" y2="417.4"/>
	<line class="st0" x1="366.6" y1="427.4" x2="478.3" y2="427.4"/>
	<line class="st0" x1="366.6" y1="437.4" x2="478.3" y2="437.4"/>
	<line class="st0" x1="366.6" y1="447.5" x2="478.3" y2="447.5"/>
	<line class="st0" x1="366.6" y1="457.4" x2="478.3" y2="457.4"/>
	<line class="st0" x1="366.6" y1="467.4" x2="478.3" y2="467.4"/>
	<line class="st0" x1="366.6" y1="477.4" x2="478.3" y2="477.4"/>
	<line class="st0" x1="366.6" y1="487.4" x2="478.3" y2="487.4"/>
	<line class="st0" x1="366.6" y1="497.5" x2="478.3" y2="497.5"/>
	<line class="st0" x1="366.6" y1="507.4" x2="478.3" y2="507.4"/>
	<line class="st0" x1="366.6" y1="517.4" x2="478.3" y2="517.4"/>
	<line class="st0" x1="366.6" y1="527.4" x2="478.3" y2="527.4"/>
	<line class="st0" x1="366.6" y1="537.4" x2="478.3" y2="537.4"/>
	<line class="st0" x1="366.6" y1="547.5" x2="478.3" y2="547.5"/>
	<line class="st0" x1="366.6" y1="557.4" x2="478.3" y2="557.4"/>
	<line class="st0" x1="366.6" y1="567.4" x2="478.3" y2="567.4"/>
	<line class="st0" x1="366.6" y1="577.4" x2="478.3" y2="577.4"/>
	<line class="st0" x1="366.6" y1="587.5" x2="478.3" y2="587.5"/>
	<line class="st0" x1="366.6" y1="597.5" x2="478.3" y2="597.5"/>
	<line class="st0" x1="366.6" y1="607.4" x2="478.3" y2="607.4"/>
	<line class="st0" x1="366.6" y1="617.4" x2="478.3" y2="617.4"/>
	<line class="st0" x1="366.6" y1="627.4" x2="478.3" y2="627.4"/>
	<line class="st0" x1="408.2" y1="667.4" x2="478.3" y2="667.4"/>
	<path class="st0" d="M408.2,667.4"/>
	<line class="st0" x1="384.7" y1="677.4" x2="478.3" y2="677.4"/>
	<path class="st0" d="M384.7,677.4"/>
	<line class="st0" x1="378.2" y1="687.5" x2="478.3" y2="687.5"/>
	<path class="st0" d="M378.2,687.5"/>
	<line class="st0" x1="378.2" y1="697.5" x2="478.3" y2="697.5"/>
	<path class="st0" d="M378.2,697.5"/>
</g>
<g>
	<rect x="267.8" y="550.6" class="st0" width="74.1" height="160.9"/>
	<rect x="263.1" y="541.8" class="st0" width="83.6" height="8.8"/>
	<rect x="267.8" y="503.7" class="st0" width="74.1" height="38.1"/>
	<polygon class="st0" points="334.7,494.2 275.2,494.2 267.8,503.7 342,503.7 	"/>
	<rect x="275.3" y="445.7" class="st0" width="59.2" height="48.5"/>
	<rect x="272.6" y="440.3" class="st0" width="64.7" height="5.6"/>
	<rect x="281.7" y="423.8" class="st0" width="46.5" height="16.4"/>
	<polygon class="st0" points="281.7,423.8 305,374.5 328.2,423.8 	"/>
	<g>
		<rect x="287.2" y="427.9" class="st0" width="8.7" height="8.7"/>
		<rect x="300.6" y="427.9" class="st0" width="8.7" height="8.7"/>
		<rect x="314" y="427.9" class="st0" width="8.7" height="8.7"/>
	</g>
	<g>
		<circle class="st0" cx="305" cy="462.8" r="12.5"/>
		<circle class="st0" cx="305" cy="462.8" r="9.2"/>
	</g>
	<line class="st0" x1="275.3" y1="478.7" x2="334.6" y2="478.7"/>
	<g>
		<line class="st0" x1="278.6" y1="503.7" x2="278.6" y2="541.8"/>
		<line class="st0" x1="291.8" y1="503.7" x2="291.8" y2="541.8"/>
		<line class="st0" x1="305" y1="503.7" x2="305" y2="541.8"/>
		<line class="st0" x1="318.2" y1="503.7" x2="318.2" y2="541.8"/>
		<line class="st0" x1="331.3" y1="503.7" x2="331.3" y2="541.8"/>
	</g>
	<g>
		<g>
			<line class="st0" x1="267.8" y1="576" x2="342" y2="576"/>
			<line class="st0" x1="267.8" y1="580.9" x2="342" y2="580.9"/>
		</g>
		<g>
			<line class="st0" x1="267.8" y1="603.2" x2="342" y2="603.2"/>
			<line class="st0" x1="267.8" y1="608.1" x2="342" y2="608.1"/>
		</g>
		<g>
			<line class="st0" x1="267.8" y1="630.6" x2="342" y2="630.6"/>
			<line class="st0" x1="267.8" y1="635.4" x2="342" y2="635.4"/>
		</g>
		<g>
			<line class="st0" x1="267.8" y1="657.9" x2="342" y2="657.9"/>
			<line class="st0" x1="267.8" y1="662.8" x2="342" y2="662.8"/>
		</g>
		<g>
			<line class="st0" x1="267.8" y1="685.2" x2="342" y2="685.2"/>
			<line class="st0" x1="267.8" y1="690.1" x2="342" y2="690.1"/>
		</g>
	</g>
</g>
<g>
	<rect x="550.5" y="335.1" class="st0" width="141.4" height="11"/>
	<path class="st0" d="M553.1,335.1c1.2-29.9,31.2-53.8,68.1-53.8c36.9,0,66.9,23.9,68.1,53.8"/>
	<g>
		<polyline class="st0" points="611.8,285.2 611.8,332.7 591.7,290.6 		"/>
		<polyline class="st0" points="575.2,300.5 611.1,334 561.9,317.2 		"/>
	</g>
	<path class="st0" d="M557.1,335.1c1.2-28,29.4-50.4,64-50.4s62.9,22.4,64,50.4"/>
	<g>
		<polyline class="st0" points="630.4,285.2 630.4,332.7 650.7,290.6 		"/>
		<polyline class="st0" points="667.1,300.5 631.2,334 680.4,317.2 		"/>
	</g>
	<line class="st0" x1="553.7" y1="370.9" x2="688.9" y2="370.9"/>
	<line class="st0" x1="541.3" y1="408.6" x2="701.4" y2="408.6"/>
	<g>
		<polyline class="st0" points="608.8,267.7 608.8,278 622.8,278 		"/>
		<line class="st0" x1="614.9" y1="278" x2="614.9" y2="267.7"/>
		<polyline class="st0" points="633.7,267.7 633.7,278 619.6,278 		"/>
		<line class="st0" x1="627.5" y1="278" x2="627.5" y2="267.7"/>
		<line class="st0" x1="621.1" y1="278" x2="621.1" y2="254.6"/>
	</g>
	<g>
		<line class="st0" x1="581.1" y1="346.1" x2="661.5" y2="346.1"/>
		<line class="st0" x1="661.5" y1="711.4" x2="581.1" y2="711.4"/>
		<g>
			<line class="st0" x1="553.7" y1="346.1" x2="581.1" y2="346.1"/>
			<line class="st0" x1="581.1" y1="711.4" x2="553.7" y2="711.4"/>
			<polyline class="st0" points="553.7,634.8 553.7,370.9 541.3,370.9 541.3,408.6 			"/>
			<polyline class="st0" points="553.7,674.9 553.7,711.4 541.3,711.4 			"/>
			<path class="st0" d="M553.7,674.9"/>
			<path class="st0" d="M553.7,634.8"/>
			<path class="st0" d="M532.7,634.8"/>
			<path class="st0" d="M532.7,666.6"/>
			<polyline class="st0" points="541.3,669.6 541.3,711.4 532.7,711.4 532.7,666.6 			"/>
			<path class="st0" d="M541.3,669.6"/>
			<path class="st0" d="M541.3,634.8"/>
			<polyline class="st0" points="532.7,634.8 532.7,408.6 541.3,408.6 541.3,634.8 			"/>
		</g>
		<line class="st0" x1="611.8" y1="675.1" x2="611.8" y2="711.4"/>
		<path class="st0" d="M611.8,675.1"/>
		<path class="st0" d="M611.8,634.8"/>
		<line class="st0" x1="611.8" y1="346.1" x2="611.8" y2="634.8"/>
		<path class="st0" d="M596.1,711.4"/>
		<path class="st0" d="M596.1,634.8"/>
		<line class="st0" x1="596.1" y1="346.1" x2="596.1" y2="634.8"/>
		<path class="st0" d="M569,711.4"/>
		<path class="st0" d="M569,634.8"/>
		<line class="st0" x1="569" y1="346.1" x2="569" y2="634.8"/>
		<line class="st0" x1="561.6" y1="679.2" x2="561.6" y2="711.4"/>
		<path class="st0" d="M561.6,679.2"/>
		<path class="st0" d="M561.6,634.8"/>
		<line class="st0" x1="561.6" y1="346.1" x2="561.6" y2="634.8"/>
		<line class="st0" x1="547.4" y1="672.1" x2="547.4" y2="711.4"/>
		<path class="st0" d="M547.4,672.1"/>
		<path class="st0" d="M547.4,634.8"/>
		<line class="st0" x1="547.4" y1="370.9" x2="547.4" y2="634.8"/>
		<line class="st0" x1="537.2" y1="668.1" x2="537.2" y2="711.4"/>
		<path class="st0" d="M537.2,668.1"/>
		<path class="st0" d="M537.2,634.8"/>
		<line class="st0" x1="537.2" y1="408.6" x2="537.2" y2="634.8"/>
	</g>
	<g>
		<polyline class="st0" points="661.5,346.1 581.1,346.1 581.1,634.8 		"/>
		<line class="st0" x1="581.1" y1="711.4" x2="661.5" y2="711.4"/>
		<path class="st0" d="M581.1,634.8"/>
		<g>
			<polyline class="st0" points="688.9,346.1 661.5,346.1 661.5,634.8 			"/>
			<polyline class="st0" points="661.5,660.1 661.5,711.4 688.9,711.4 			"/>
			<path class="st0" d="M661.5,660.1"/>
			<path class="st0" d="M661.5,634.8"/>
			<polyline class="st0" points="688.9,634.8 688.9,370.9 701.4,370.9 701.4,408.6 			"/>
			<polyline class="st0" points="688.9,657.7 688.9,711.4 701.4,711.4 			"/>
			<path class="st0" d="M688.9,657.7"/>
			<path class="st0" d="M688.9,634.8"/>
			<polyline class="st0" points="710,634.8 710,408.6 701.4,408.6 701.4,634.8 			"/>
			<path class="st0" d="M710,634.8"/>
			<path class="st0" d="M710,658.2"/>
			<polyline class="st0" points="701.4,657.7 701.4,711.4 710,711.4 710,658.2 			"/>
			<path class="st0" d="M701.4,657.7"/>
			<path class="st0" d="M701.4,634.8"/>
		</g>
		<line class="st0" x1="630.7" y1="667.3" x2="630.7" y2="711.4"/>
		<path class="st0" d="M630.7,667.3"/>
		<path class="st0" d="M630.7,634.8"/>
		<line class="st0" x1="630.7" y1="346.1" x2="630.7" y2="634.8"/>
		<line class="st0" x1="646.5" y1="663" x2="646.5" y2="711.4"/>
		<path class="st0" d="M646.5,663"/>
		<path class="st0" d="M646.5,634.8"/>
		<line class="st0" x1="646.5" y1="346.1" x2="646.5" y2="634.8"/>
		<line class="st0" x1="673.7" y1="658.6" x2="673.7" y2="711.4"/>
		<path class="st0" d="M673.7,658.6"/>
		<path class="st0" d="M673.7,634.8"/>
		<line class="st0" x1="673.7" y1="346.1" x2="673.7" y2="634.8"/>
		<line class="st0" x1="681" y1="658.1" x2="681" y2="711.4"/>
		<path class="st0" d="M681,658.1"/>
		<path class="st0" d="M681,634.8"/>
		<line class="st0" x1="681" y1="346.1" x2="681" y2="634.8"/>
		<line class="st0" x1="695.1" y1="657.7" x2="695.1" y2="711.4"/>
		<path class="st0" d="M695.1,657.7"/>
		<path class="st0" d="M695.1,634.8"/>
		<line class="st0" x1="695.1" y1="370.9" x2="695.1" y2="634.8"/>
		<line class="st0" x1="705.3" y1="658" x2="705.3" y2="711.4"/>
		<path class="st0" d="M705.3,658"/>
		<path class="st0" d="M705.3,634.8"/>
		<line class="st0" x1="705.3" y1="408.6" x2="705.3" y2="634.8"/>
	</g>
</g>
<polyline class="st0" points="172.9,497.5 191.9,497.5 191.9,436.6 241.2,436.6 241.2,487.8 275.3,487.8 "/>
<polyline class="st0" points="334.6,487.8 352.9,487.8 352.9,592 366.6,592 "/>
<line class="st0" x1="478.3" y1="550.6" x2="532.7" y2="550.6"/>
<g>
	<line class="st0" x1="200.1" y1="443" x2="200.1" y2="585"/>
	<line class="st0" x1="205.6" y1="443" x2="205.6" y2="585"/>
	<line class="st0" x1="211.1" y1="443" x2="211.1" y2="585"/>
	<line class="st0" x1="216.5" y1="443" x2="216.5" y2="585"/>
	<line class="st0" x1="222" y1="443" x2="222" y2="585"/>
	<line class="st0" x1="227.6" y1="443" x2="227.6" y2="585"/>
	<line class="st0" x1="233" y1="443" x2="233" y2="585"/>
</g>
<path class="st0" d="M601,642.6v38.8c0,0,32.6-23.6,93.3-23.6h0.1c5.5,0,10.6,0.2,15.6,0.5v-15.7H601z"/>
<path class="st0" d="M378.2,642.6v38.8c0,0,32.6-23.6,93.3-23.6h0.1c60.6,0,93.3,23.6,93.3,23.6v-38.8H378.2z"/>
<polygon class="st0" points="342,642.6 342,711.6 378.2,711.6 378.2,681.4 378.2,642.6 "/>
<polygon class="st0" points="564.8,642.6 564.8,681.4 564.8,711.6 601,711.6 601,681.4 601,642.6 "/>
<polygon class="st0" points="564.8,642.6 601,642.6 710,642.6 710,634.9 342,634.9 342,642.6 378.2,642.6 "/>
<path class="st0" d="M168.6,643.1h78.5v-42.9h-6v0.2v-0.2h-72.6v42.9H168.6z M231.7,608.3h6v11.1h-6V608.3z M231.7,628.3h6v11.1h-6
	V628.3z M218.3,608.3h6v11.1h-6V608.3z M218.3,628.3h6v11.1h-6V628.3z M205,608.3h6v11.1h-6V608.3z M205,628.3h6v11.1h-6V628.3z
	 M191.6,608.3h6v11.1h-6V608.3z M191.6,628.3h6v11.1h-6V628.3z M178.3,608.3h6v11.1h-6V608.3z M178.3,628.3h6v11.1h-6V628.3z"/>
<polygon class="st0" points="54.4,600.2 61.3,600.2 168.6,600.2 168.6,600.2 241.2,600.2 241.2,592 61.3,592 54.4,592 0,592 
	0,600.2 "/>
<path class="st0" d="M247.1,643.1h-78.5v-42.9l0,0H61.3h-7.1H0v8.1h0.8v11.1H0v8.9h0.8v11.1H0v8.9h0.8v11.1H0v8.9h0.8v11.1H0v8.9
	h0.8v11.1H0v11.9h54.4h7.1h194.4v-68.4L247.1,643.1L247.1,643.1z M14.2,699.5h-6v-11.1h6V699.5z M14.2,679.6h-6v-11.1h6V679.6z
	 M14.2,659.5h-6v-11.1h6V659.5z M14.2,639.5h-6v-11.1h6V639.5z M14.2,619.4h-6v-11.1h6V619.4z M27.5,699.5h-6v-11.1h6V699.5z
	 M27.5,679.6h-6v-11.1h6V679.6z M27.5,659.5h-6v-11.1h6V659.5z M27.5,639.5h-6v-11.1h6V639.5z M27.5,619.4h-6v-11.1h6V619.4z
	 M40.9,699.5h-6v-11.1h6V699.5z M40.9,679.6h-6v-11.1h6V679.6z M40.9,659.5h-6v-11.1h6V659.5z M40.9,639.5h-6v-11.1h6V639.5z
	 M40.9,619.4h-6v-11.1h6V619.4z M54.3,699.5h-6v-11.1h6V699.5z M54.3,679.6h-6v-11.1h6V679.6z M54.3,659.5h-6v-11.1h6V659.5z
	 M54.3,639.5h-6v-11.1h6V639.5z M54.3,619.4h-6v-11.1h6V619.4z M67.4,699.5h-6v-11.1h6V699.5z M67.4,679.6h-6v-11.1h6V679.6z
	 M67.4,659.5h-6v-11.1h6V659.5z M67.4,639.5h-6v-11.1h6V639.5z M67.4,619.4h-6v-11.1h6V619.4z M80.8,699.5h-6v-11.1h6V699.5z
	 M80.8,679.6h-6v-11.1h6V679.6z M80.8,659.5h-6v-11.1h6V659.5z M80.8,639.5h-6v-11.1h6V639.5z M80.8,619.4h-6v-11.1h6V619.4z
	 M94.1,699.5h-6v-11.1h6V699.5z M94.1,679.6h-6v-11.1h6V679.6z M94.1,659.5h-6v-11.1h6V659.5z M94.1,639.5h-6v-11.1h6V639.5z
	 M94.1,619.4h-6v-11.1h6V619.4z M107.5,699.5h-6v-11.1h6V699.5z M107.5,679.6h-6v-11.1h6V679.6z M107.5,659.5h-6v-11.1h6V659.5z
	 M107.5,639.5h-6v-11.1h6V639.5z M107.5,619.4h-6v-11.1h6V619.4z M120.9,699.5h-6v-11.1h6V699.5z M120.9,679.6h-6v-11.1h6V679.6z
	 M120.9,659.5h-6v-11.1h6V659.5z M120.9,639.5h-6v-11.1h6V639.5z M120.9,619.4h-6v-11.1h6V619.4z M134.2,699.5h-6v-11.1h6V699.5z
	 M134.2,679.6h-6v-11.1h6V679.6z M134.2,659.5h-6v-11.1h6V659.5z M134.2,639.5h-6v-11.1h6V639.5z M134.2,619.4h-6v-11.1h6V619.4z
	 M147.6,699.5h-6v-11.1h6V699.5z M147.6,679.6h-6v-11.1h6V679.6z M147.6,659.5h-6v-11.1h6V659.5z M147.6,639.5h-6v-11.1h6V639.5z
	 M147.6,619.4h-6v-11.1h6V619.4z M160.9,699.5h-6v-11.1h6V699.5z M160.9,679.6h-6v-11.1h6V679.6z M160.9,659.5h-6v-11.1h6V659.5z
	 M160.9,639.5h-6v-11.1h6V639.5z M160.9,619.4h-6v-11.1h6V619.4z M174.3,699.5h-6v-11.1h6V699.5z M174.3,679.6h-6v-11.1h6V679.6z
	 M174.3,659.5h-6v-11.1h6V659.5z M187.7,699.5h-6v-11.1h6V699.5z M187.7,679.6h-6v-11.1h6V679.6z M187.7,659.5h-6v-11.1h6V659.5z
	 M201,699.5h-6v-11.1h6V699.5z M201,679.6h-6v-11.1h6V679.6z M201,659.5h-6v-11.1h6V659.5z M214.4,699.5h-6v-11.1h6V699.5z
	 M214.4,679.6h-6v-11.1h6V679.6z M214.4,659.5h-6v-11.1h6V659.5z M227.8,699.5h-6v-11.1h6V699.5z M227.8,679.6h-6v-11.1h6V679.6z
	 M227.8,659.5h-6v-11.1h6V659.5z M241.1,699.5h-6v-11.1h6V699.5z M241.1,679.6h-6v-11.1h6V679.6z M241.1,659.5h-6v-11.1h6V659.5z"/>
<rect y="648.4" class="st0" width="0.8" height="11.1"/>
<rect x="8.2" y="648.4" class="st0" width="6" height="11.1"/>
<rect x="21.6" y="648.4" class="st0" width="6" height="11.1"/>
<rect x="34.9" y="648.4" class="st0" width="6" height="11.1"/>
<rect x="48.3" y="648.4" class="st0" width="6" height="11.1"/>
<rect y="628.3" class="st0" width="0.8" height="11.1"/>
<rect x="8.2" y="628.3" class="st0" width="6" height="11.1"/>
<rect x="21.6" y="628.3" class="st0" width="6" height="11.1"/>
<rect x="34.9" y="628.3" class="st0" width="6" height="11.1"/>
<rect x="48.3" y="628.3" class="st0" width="6" height="11.1"/>
<rect y="608.3" class="st0" width="0.8" height="11.1"/>
<rect x="8.2" y="608.3" class="st0" width="6" height="11.1"/>
<rect x="21.6" y="608.3" class="st0" width="6" height="11.1"/>
<rect x="34.9" y="608.3" class="st0" width="6" height="11.1"/>
<rect x="48.3" y="608.3" class="st0" width="6" height="11.1"/>
<rect y="668.4" class="st0" width="0.8" height="11.1"/>
<rect x="8.2" y="668.4" class="st0" width="6" height="11.1"/>
<rect x="21.6" y="668.4" class="st0" width="6" height="11.1"/>
<rect x="34.9" y="668.4" class="st0" width="6" height="11.1"/>
<rect x="48.3" y="668.4" class="st0" width="6" height="11.1"/>
<rect y="688.5" class="st0" width="0.8" height="11.1"/>
<rect x="8.2" y="688.5" class="st0" width="6" height="11.1"/>
<rect x="21.6" y="688.5" class="st0" width="6" height="11.1"/>
<rect x="34.9" y="688.5" class="st0" width="6" height="11.1"/>
<rect x="48.3" y="688.5" class="st0" width="6" height="11.1"/>
<rect x="235.2" y="648.4" class="st0" width="6" height="11.1"/>
<rect x="221.9" y="648.4" class="st0" width="6" height="11.1"/>
<rect x="208.5" y="648.4" class="st0" width="6" height="11.1"/>
<rect x="195.2" y="648.4" class="st0" width="6" height="11.1"/>
<rect x="181.8" y="648.4" class="st0" width="6" height="11.1"/>
<rect x="168.4" y="648.4" class="st0" width="6" height="11.1"/>
<rect x="155" y="648.4" class="st0" width="6" height="11.1"/>
<rect x="141.6" y="648.4" class="st0" width="6" height="11.1"/>
<rect x="128.3" y="648.4" class="st0" width="6" height="11.1"/>
<rect x="114.9" y="648.4" class="st0" width="6" height="11.1"/>
<rect x="101.5" y="648.4" class="st0" width="6" height="11.1"/>
<rect x="88.2" y="648.4" class="st0" width="6" height="11.1"/>
<rect x="74.8" y="648.4" class="st0" width="6" height="11.1"/>
<rect x="61.4" y="648.4" class="st0" width="6" height="11.1"/>
<rect x="155" y="628.3" class="st0" width="6" height="11.1"/>
<rect x="141.6" y="628.3" class="st0" width="6" height="11.1"/>
<rect x="128.3" y="628.3" class="st0" width="6" height="11.1"/>
<rect x="114.9" y="628.3" class="st0" width="6" height="11.1"/>
<rect x="101.5" y="628.3" class="st0" width="6" height="11.1"/>
<rect x="88.2" y="628.3" class="st0" width="6" height="11.1"/>
<rect x="74.8" y="628.3" class="st0" width="6" height="11.1"/>
<rect x="61.4" y="628.3" class="st0" width="6" height="11.1"/>
<rect x="155" y="608.3" class="st0" width="6" height="11.1"/>
<rect x="141.6" y="608.3" class="st0" width="6" height="11.1"/>
<rect x="128.3" y="608.3" class="st0" width="6" height="11.1"/>
<rect x="114.9" y="608.3" class="st0" width="6" height="11.1"/>
<rect x="101.5" y="608.3" class="st0" width="6" height="11.1"/>
<rect x="88.2" y="608.3" class="st0" width="6" height="11.1"/>
<rect x="74.8" y="608.3" class="st0" width="6" height="11.1"/>
<rect x="61.4" y="608.3" class="st0" width="6" height="11.1"/>
<rect x="231.7" y="608.3" class="st0" width="6" height="11.1"/>
<rect x="218.3" y="608.3" class="st0" width="6" height="11.1"/>
<rect x="205" y="608.3" class="st0" width="6" height="11.1"/>
<rect x="191.6" y="608.3" class="st0" width="6" height="11.1"/>
<rect x="178.3" y="608.3" class="st0" width="6" height="11.1"/>
<rect x="231.7" y="628.3" class="st0" width="6" height="11.1"/>
<rect x="218.3" y="628.3" class="st0" width="6" height="11.1"/>
<rect x="205" y="628.3" class="st0" width="6" height="11.1"/>
<rect x="191.6" y="628.3" class="st0" width="6" height="11.1"/>
<rect x="178.3" y="628.3" class="st0" width="6" height="11.1"/>
<rect x="235.2" y="668.4" class="st0" width="6" height="11.1"/>
<rect x="221.9" y="668.4" class="st0" width="6" height="11.1"/>
<rect x="208.5" y="668.4" class="st0" width="6" height="11.1"/>
<rect x="195.2" y="668.4" class="st0" width="6" height="11.1"/>
<rect x="181.8" y="668.4" class="st0" width="6" height="11.1"/>
<rect x="168.4" y="668.4" class="st0" width="6" height="11.1"/>
<rect x="155" y="668.4" class="st0" width="6" height="11.1"/>
<rect x="141.6" y="668.4" class="st0" width="6" height="11.1"/>
<rect x="128.3" y="668.4" class="st0" width="6" height="11.1"/>
<rect x="114.9" y="668.4" class="st0" width="6" height="11.1"/>
<rect x="101.5" y="668.4" class="st0" width="6" height="11.1"/>
<rect x="88.2" y="668.4" class="st0" width="6" height="11.1"/>
<rect x="74.8" y="668.4" class="st0" width="6" height="11.1"/>
<rect x="61.4" y="668.4" class="st0" width="6" height="11.1"/>
<rect x="235.2" y="688.5" class="st0" width="6" height="11.1"/>
<rect x="221.9" y="688.5" class="st0" width="6" height="11.1"/>
<rect x="208.5" y="688.5" class="st0" width="6" height="11.1"/>
<rect x="195.2" y="688.5" class="st0" width="6" height="11.1"/>
<rect x="181.8" y="688.5" class="st0" width="6" height="11.1"/>
<rect x="168.4" y="688.5" class="st0" width="6" height="11.1"/>
<rect x="155" y="688.5" class="st0" width="6" height="11.1"/>
<rect x="141.6" y="688.5" class="st0" width="6" height="11.1"/>
<rect x="128.3" y="688.5" class="st0" width="6" height="11.1"/>
<rect x="114.9" y="688.5" class="st0" width="6" height="11.1"/>
<rect x="101.5" y="688.5" class="st0" width="6" height="11.1"/>
<rect x="88.2" y="688.5" class="st0" width="6" height="11.1"/>
<rect x="74.8" y="688.5" class="st0" width="6" height="11.1"/>
<rect x="61.4" y="688.5" class="st0" width="6" height="11.1"/>
<g>
	<path class="st0" d="M493.9,127.4c-15.7,0-28.4,12.7-28.4,28.4c0,3.1,0.5,6.2,1.5,9c-5.1,0.3-9.1,4.5-9.1,9.7
		c0,5.4,4.3,9.7,9.7,9.7h26.3h23.2c5.9,0,11-2.9,14.1-7.4h12.2c5.4,0,9.7-4.3,9.7-9.7s-4.3-9.7-9.7-9.7h-12.2
		c-2.2-3.2-5.5-5.7-9.4-6.8C519.3,137.4,507.8,127.4,493.9,127.4L493.9,127.4z"/>
</g>
</svg>
