<?xml version="1.0" encoding="utf-8"?>
<!-- Generator: Adobe Illustrator 20.0.0, SVG Export Plug-In . SVG Version: 6.00 Build 0)  -->
<svg version="1.1" id="Barcelona" xmlns="http://www.w3.org/2000/svg" xmlns:xlink="http://www.w3.org/1999/xlink" x="0px" y="0px"
	 viewBox="0 0 710 710" style="enable-background:new 0 0 710 710;" xml:space="preserve">
<style type="text/css">
	.st0{fill:none;stroke:#4F4F4F;stroke-miterlimit:10;}
</style>
<g>
	<g>
		<path class="st0" d="M84.3,531.3V383.1c0-11.8-0.7-23.6-2.2-35.3l-11.9-94.4c3.8-0.4,6.8-3.7,6.8-7.6c0-4.2-7.7-13.9-7.7-13.9
			s-7.7,9.6-7.7,13.9c0,3.7,2.7,6.8,6.2,7.5l-11.9,94.4c-1.5,11.7-2.2,23.5-2.2,35.3v171.7"/>
		<path class="st0" d="M84.3,531.3"/>
		<path class="st0" d="M53.7,554.8"/>
		<line class="st0" x1="65.1" y1="275.1" x2="72.9" y2="275.1"/>
		<g>
			<g>
				<line class="st0" x1="60.5" y1="408.1" x2="60.5" y2="415.1"/>
				<line class="st0" x1="60.5" y1="423.1" x2="60.5" y2="478.5"/>
			</g>
			<g>
				<line class="st0" x1="68.4" y1="402.2" x2="68.4" y2="409.2"/>
				<line class="st0" x1="68.4" y1="417.2" x2="68.4" y2="472.6"/>
			</g>
			<g>
				<line class="st0" x1="76.3" y1="396.5" x2="76.3" y2="403.6"/>
				<line class="st0" x1="76.3" y1="411.6" x2="76.3" y2="466.9"/>
			</g>
		</g>
	</g>
	<g>
		<path class="st0" d="M114.9,487.2V363.3c0-11.8-0.7-23.6-2.2-35.3l-11.9-94.4c3.8-0.4,6.8-3.7,6.8-7.6c0-4.2-7.7-13.9-7.7-13.9
			s-7.7,9.6-7.7,13.9c0,3.7,2.7,6.8,6.2,7.5l-11.9,94.4c-1.5,11.7-2.2,23.5-2.2,35.3v168"/>
		<line class="st0" x1="95.7" y1="255.3" x2="103.5" y2="255.3"/>
		<g>
			<g>
				<line class="st0" x1="91.1" y1="388.2" x2="91.1" y2="395.3"/>
				<line class="st0" x1="91.1" y1="403.3" x2="91.1" y2="458.6"/>
			</g>
			<g>
				<line class="st0" x1="99" y1="382.3" x2="99" y2="389.4"/>
				<line class="st0" x1="99" y1="397.4" x2="99" y2="452.8"/>
			</g>
			<g>
				<line class="st0" x1="106.9" y1="376.7" x2="106.9" y2="383.8"/>
				<line class="st0" x1="106.9" y1="391.8" x2="106.9" y2="447.1"/>
			</g>
		</g>
	</g>
</g>
<g>
	<g>
		<path class="st0" d="M189.7,531.1v-147c0-11.8,0.7-23.6,2.2-35.3l11.9-94.4c-3.8-0.4-6.8-3.7-6.8-7.6c0-4.2,7.7-13.9,7.7-13.9
			s7.7,9.6,7.7,13.9c0,3.7-2.7,6.8-6.2,7.5l11.9,94.4c1.5,11.7,2.2,23.5,2.2,35.3v170.3"/>
		<line class="st0" x1="208.9" y1="276.1" x2="201.1" y2="276.1"/>
		<g>
			<g>
				<line class="st0" x1="213.5" y1="409.1" x2="213.5" y2="416.1"/>
				<line class="st0" x1="213.5" y1="424.1" x2="213.5" y2="479.5"/>
			</g>
			<g>
				<line class="st0" x1="205.6" y1="403.2" x2="205.6" y2="410.2"/>
				<line class="st0" x1="205.6" y1="418.2" x2="205.6" y2="473.6"/>
			</g>
			<g>
				<line class="st0" x1="197.7" y1="397.5" x2="197.7" y2="404.6"/>
				<line class="st0" x1="197.7" y1="412.6" x2="197.7" y2="467.9"/>
			</g>
		</g>
	</g>
	<g>
		<line class="st0" x1="159.1" y1="486.1" x2="159.1" y2="485.5"/>
		<path class="st0" d="M159.1,485.5V364.3c0-11.8,0.7-23.6,2.2-35.3l11.9-94.4c-3.8-0.4-6.8-3.7-6.8-7.6c0-4.2,7.7-13.9,7.7-13.9
			s7.7,9.6,7.7,13.9c0,3.7-2.7,6.8-6.2,7.5l11.9,94.4c1.5,11.7,2.2,23.5,2.2,35.3V531"/>
		<line class="st0" x1="178.3" y1="256.3" x2="170.4" y2="256.3"/>
		<g>
			<g>
				<line class="st0" x1="182.8" y1="389.2" x2="182.8" y2="396.3"/>
				<line class="st0" x1="182.8" y1="404.3" x2="182.8" y2="459.6"/>
			</g>
			<g>
				<line class="st0" x1="175" y1="383.3" x2="175" y2="390.4"/>
				<line class="st0" x1="175" y1="398.4" x2="175" y2="453.8"/>
			</g>
			<g>
				<line class="st0" x1="167.1" y1="377.7" x2="167.1" y2="384.8"/>
				<line class="st0" x1="167.1" y1="392.8" x2="167.1" y2="448.1"/>
			</g>
		</g>
	</g>
</g>
<g>
	<g>
		<polyline class="st0" points="131.5,407.8 131.5,436 137.3,436 		"/>
		<path class="st0" d="M131.5,436c0,0-15.4,42.3-23.4,77.6"/>
	</g>
	<g>
		<polyline class="st0" points="142.8,407.8 142.8,436 137,436 		"/>
		<path class="st0" d="M142.8,436c0,0,15.3,42,23.3,77.1"/>
	</g>
	<path class="st0" d="M137.3,407.8h-8.8c0-33.9,7.3-53.9,7.3-53.9c-3.5-0.7-6.1-3.8-6.1-7.4c0-4.2,7.6-12,7.6-12s7.6,7.8,7.6,12
		c0,3.7-2.6,6.7-6.1,7.4l0,0c0,0,7.1,20,7.1,53.9H137"/>
</g>
<path class="st0" d="M114.9,389.4c0,0,7.3-10,16.1-14.9"/>
<path class="st0" d="M114.9,395.7c0,0,6.5-9.8,15.3-16.1"/>
<path class="st0" d="M159.2,389.4c0,0-7.3-10-16.1-14.9"/>
<path class="st0" d="M159.2,395.7c0,0-6.5-9.8-15.3-16.1"/>
<ellipse class="st0" cx="137.2" cy="467.5" rx="6.8" ry="12.7"/>
<g>
	<path class="st0" d="M137.5,491.4L36.6,567.8c0,0-16.2,10.4-12.4,42.4l113-85.9"/>
	<line class="st0" x1="127.6" y1="498.6" x2="127.6" y2="531.4"/>
	<line class="st0" x1="117" y1="506.4" x2="117" y2="539.5"/>
	<line class="st0" x1="106.5" y1="514.7" x2="106.5" y2="547.5"/>
	<line class="st0" x1="95.9" y1="522.7" x2="95.9" y2="555.8"/>
	<line class="st0" x1="85.3" y1="531" x2="85.3" y2="563.3"/>
	<line class="st0" x1="74.8" y1="539" x2="74.8" y2="571.4"/>
	<line class="st0" x1="64.2" y1="546.8" x2="64.2" y2="579.6"/>
	<line class="st0" x1="53.6" y1="554.9" x2="53.6" y2="587.7"/>
	<line class="st0" x1="43.1" y1="562.9" x2="43.1" y2="595.7"/>
	<line class="st0" x1="32.5" y1="571.9" x2="32.5" y2="603.8"/>
</g>
<g>
	<path class="st0" d="M137.2,524.2l113,85.9c3.8-32-12.4-42.4-12.4-42.4l-100.3-76.4L137.2,524.2z"/>
	<line class="st0" x1="146.8" y1="498.6" x2="146.8" y2="531.4"/>
	<line class="st0" x1="157.3" y1="506.4" x2="157.3" y2="539.5"/>
	<line class="st0" x1="167.9" y1="514.7" x2="167.9" y2="547.5"/>
	<line class="st0" x1="178.5" y1="522.7" x2="178.5" y2="555.8"/>
	<line class="st0" x1="189.1" y1="531" x2="189.1" y2="563.3"/>
	<line class="st0" x1="199.6" y1="539" x2="199.6" y2="571.4"/>
	<line class="st0" x1="210.2" y1="546.8" x2="210.2" y2="579.6"/>
	<line class="st0" x1="220.8" y1="554.9" x2="220.8" y2="587.7"/>
	<line class="st0" x1="231.3" y1="562.9" x2="231.3" y2="595.7"/>
	<line class="st0" x1="241.9" y1="571.9" x2="241.9" y2="603.8"/>
</g>
<g>
	<polyline class="st0" points="24.2,610.2 0,709.8 274.3,709.8 	"/>
	<path class="st0" d="M2.8,709.8c0,0,25.2-98.4,38.5-103.2c15.8-5.7-11.1,103.2-11.1,103.2"/>
	<path class="st0" d="M35.6,709.8c0,0,24-121.3,48.7-136.4C108.1,558.9,69,709.8,69,709.8"/>
	<path class="st0" d="M74.8,709.8c0,0,31.7-172.8,62.4-172.8"/>
</g>
<g>
	<line class="st0" x1="274.3" y1="709.8" x2="584.7" y2="709.8"/>
	<path class="st0" d="M263.4,664.8"/>
	<line class="st0" x1="250.1" y1="610.2" x2="263.4" y2="664.8"/>
	<path class="st0" d="M263.4,680.4c-8.5-29.4-21.9-70.7-30.4-73.7c-15.8-5.7,11.1,103.2,11.1,103.2"/>
	<path class="st0" d="M263.4,680.4"/>
	<path class="st0" d="M271.5,709.8"/>
	<path class="st0" d="M238.7,709.8c0,0-24-121.3-48.7-136.4c-23.8-14.5,15.3,136.4,15.3,136.4"/>
	<path class="st0" d="M199.6,709.8c0,0-31.7-172.8-62.4-172.8"/>
</g>
<path class="st0" d="M157.3,709.8H117v-53.3c0-10.4,8.4-18.8,18.8-18.8h2.7c10.4,0,18.8,8.4,18.8,18.8V709.8z"/>
<g>
	<line class="st0" x1="138.2" y1="573.6" x2="138.2" y2="583"/>
	<line class="st0" x1="138.2" y1="587.3" x2="138.2" y2="631.5"/>
</g>
<g>
	<line class="st0" x1="124.6" y1="594.1" x2="124.6" y2="600.2"/>
	<line class="st0" x1="124.6" y1="602.9" x2="124.6" y2="631.5"/>
</g>
<g>
	<line class="st0" x1="151.9" y1="594.1" x2="151.9" y2="600.2"/>
	<line class="st0" x1="151.9" y1="602.9" x2="151.9" y2="631.5"/>
</g>
<line class="st0" x1="52.5" y1="641.1" x2="52.5" y2="709.8"/>
<line class="st0" x1="220.3" y1="636" x2="220.3" y2="709.8"/>
<g>
	<g>
		<polyline class="st0" points="263.4,680.4 263.4,709.8 341.8,709.8 		"/>
		<path class="st0" d="M341.8,116c0,0-78.4-8.2-78.4,273.6v290.7"/>
		<path class="st0" d="M341,116c0,0,78.4-8.2,78.4,273.6v320.2H341"/>
	</g>
	<line class="st0" x1="263.4" y1="700.8" x2="419.4" y2="700.8"/>
	<line class="st0" x1="263.4" y1="689.7" x2="419.4" y2="689.7"/>
	<line class="st0" x1="263.4" y1="678.6" x2="419.4" y2="678.6"/>
	<line class="st0" x1="263.4" y1="667.5" x2="419.4" y2="667.5"/>
	<line class="st0" x1="263.4" y1="656.4" x2="419.4" y2="656.4"/>
	<line class="st0" x1="263.4" y1="645.3" x2="419.4" y2="645.3"/>
	<line class="st0" x1="263.4" y1="634.2" x2="419.4" y2="634.2"/>
	<line class="st0" x1="263.4" y1="623.1" x2="419.4" y2="623.1"/>
	<line class="st0" x1="263.4" y1="612" x2="419.4" y2="612"/>
	<line class="st0" x1="263.4" y1="600.9" x2="419.4" y2="600.9"/>
	<line class="st0" x1="263.4" y1="589.8" x2="419.4" y2="589.8"/>
	<line class="st0" x1="263.4" y1="578.7" x2="419.4" y2="578.7"/>
	<line class="st0" x1="263.4" y1="567.6" x2="419.4" y2="567.6"/>
	<line class="st0" x1="263.4" y1="556.5" x2="419.4" y2="556.5"/>
	<line class="st0" x1="263.4" y1="545.4" x2="419.4" y2="545.4"/>
	<line class="st0" x1="263.4" y1="534.3" x2="419.4" y2="534.3"/>
	<line class="st0" x1="263.4" y1="523.2" x2="419.4" y2="523.2"/>
	<line class="st0" x1="263.4" y1="512.1" x2="419.4" y2="512.1"/>
	<line class="st0" x1="263.4" y1="501" x2="419.4" y2="501"/>
	<line class="st0" x1="263.4" y1="489.8" x2="419.4" y2="489.8"/>
	<line class="st0" x1="263.4" y1="478.7" x2="419.4" y2="478.7"/>
	<line class="st0" x1="263.4" y1="467.6" x2="419.4" y2="467.6"/>
	<line class="st0" x1="263.4" y1="456.5" x2="419.4" y2="456.5"/>
	<line class="st0" x1="263.4" y1="445.4" x2="419.4" y2="445.4"/>
	<line class="st0" x1="263.4" y1="434.3" x2="419.4" y2="434.3"/>
	<line class="st0" x1="263.4" y1="423.2" x2="419.4" y2="423.2"/>
	<line class="st0" x1="263.4" y1="412.1" x2="419.4" y2="412.1"/>
	<line class="st0" x1="263.4" y1="401" x2="419.4" y2="401"/>
	<line class="st0" x1="263.4" y1="389.9" x2="419.4" y2="389.9"/>
	<line class="st0" x1="263.4" y1="378.8" x2="419.4" y2="378.8"/>
	<line class="st0" x1="263.4" y1="367.7" x2="419.4" y2="367.7"/>
	<line class="st0" x1="263.4" y1="356.6" x2="419.4" y2="356.6"/>
	<line class="st0" x1="263.4" y1="345.5" x2="419.4" y2="345.5"/>
	<line class="st0" x1="264.5" y1="334.4" x2="418.3" y2="334.4"/>
	<line class="st0" x1="265" y1="323.3" x2="417.8" y2="323.3"/>
	<line class="st0" x1="265.7" y1="312.2" x2="417.1" y2="312.2"/>
	<line class="st0" x1="266.4" y1="301.1" x2="416.4" y2="301.1"/>
	<line class="st0" x1="267.5" y1="290" x2="415.3" y2="290"/>
	<line class="st0" x1="268.3" y1="278.9" x2="414.5" y2="278.9"/>
	<line class="st0" x1="269.6" y1="267.8" x2="413.2" y2="267.8"/>
	<line class="st0" x1="271" y1="256.7" x2="411.8" y2="256.7"/>
	<line class="st0" x1="272.3" y1="245.5" x2="410.5" y2="245.5"/>
	<line class="st0" x1="274.5" y1="234.4" x2="408.3" y2="234.4"/>
	<line class="st0" x1="276.5" y1="223.3" x2="406.2" y2="223.3"/>
	<line class="st0" x1="278.9" y1="212.2" x2="403.9" y2="212.2"/>
	<line class="st0" x1="281.6" y1="201.1" x2="401.2" y2="201.1"/>
	<line class="st0" x1="284.4" y1="190" x2="398.4" y2="190"/>
	<line class="st0" x1="288.3" y1="178.9" x2="394.5" y2="178.9"/>
	<line class="st0" x1="292.1" y1="167.8" x2="390.7" y2="167.8"/>
	<line class="st0" x1="297.4" y1="156.7" x2="385.3" y2="156.7"/>
	<line class="st0" x1="304" y1="145.6" x2="378.8" y2="145.6"/>
	<line class="st0" x1="311.8" y1="134.5" x2="371" y2="134.5"/>
	<line class="st0" x1="322.7" y1="123.4" x2="360.1" y2="123.4"/>
</g>
<g>
	<g>
		<path class="st0" d="M542.7,463v246.8h139.9c0,0,42.9-100.1,14-183.4"/>
		<path class="st0" d="M687,504.5c-21.8-40.4-64.8-73.8-144.3-84.8v21.4"/>
		<polyline class="st0" points="661.6,504.5 708.5,504.5 703.1,515.6 		"/>
		<polyline class="st0" points="661.6,515.6 708.5,515.6 702.6,526.4 661.6,526.4 		"/>
		<polyline class="st0" points="568.9,441.1 533.8,441.1 539.2,452.2 		"/>
		<polyline class="st0" points="568.9,452.2 533.8,452.2 539.7,463 568.9,463 		"/>
		<path class="st0" d="M674.8,709.8c0,0,44.1-100.1,15.2-183.4"/>
		<path class="st0" d="M680.4,504.5c-23.5-38.1-58.6-66.9-137.7-79.4"/>
	</g>
	<g>
		<line class="st0" x1="551.3" y1="463" x2="551.3" y2="709.8"/>
		<path class="st0" d="M551.3,463"/>
		<path class="st0" d="M551.3,441.1"/>
		<line class="st0" x1="551.3" y1="426.6" x2="551.3" y2="441.1"/>
		<path class="st0" d="M551.3,426.6"/>
		<line class="st0" x1="559.9" y1="463" x2="559.9" y2="709.8"/>
		<path class="st0" d="M559.9,463"/>
		<path class="st0" d="M559.9,441.1"/>
		<line class="st0" x1="559.9" y1="428.2" x2="559.9" y2="441.1"/>
		<path class="st0" d="M559.9,428.2"/>
		<line class="st0" x1="568.4" y1="463" x2="568.4" y2="709.8"/>
		<path class="st0" d="M568.4,463"/>
		<path class="st0" d="M568.4,441.1"/>
		<line class="st0" x1="568.4" y1="430.1" x2="568.4" y2="441.1"/>
		<path class="st0" d="M568.4,430.1"/>
		<line class="st0" x1="576.9" y1="432.2" x2="576.9" y2="709.8"/>
		<path class="st0" d="M576.9,432.2"/>
		<line class="st0" x1="585.5" y1="434.6" x2="585.5" y2="709.8"/>
		<path class="st0" d="M585.5,434.6"/>
		<line class="st0" x1="594" y1="437.3" x2="594" y2="709.8"/>
		<path class="st0" d="M594,437.3"/>
		<line class="st0" x1="602.5" y1="440.4" x2="602.5" y2="709.8"/>
		<path class="st0" d="M602.5,440.4"/>
		<line class="st0" x1="611" y1="443.9" x2="611" y2="709.8"/>
		<path class="st0" d="M611,443.9"/>
		<line class="st0" x1="619.6" y1="448" x2="619.6" y2="709.8"/>
		<path class="st0" d="M619.6,448"/>
		<line class="st0" x1="628.1" y1="452.6" x2="628.1" y2="709.8"/>
		<path class="st0" d="M628.1,452.6"/>
		<line class="st0" x1="636.6" y1="458.3" x2="636.6" y2="709.8"/>
		<path class="st0" d="M636.6,458.3"/>
		<line class="st0" x1="645.2" y1="464.1" x2="645.2" y2="709.8"/>
		<path class="st0" d="M645.2,464.1"/>
		<line class="st0" x1="653.7" y1="471.4" x2="653.7" y2="709.8"/>
		<path class="st0" d="M653.7,471.4"/>
		<line class="st0" x1="662.2" y1="526.4" x2="662.2" y2="709.8"/>
		<path class="st0" d="M662.2,526.4"/>
		<path class="st0" d="M662.2,504.5"/>
		<line class="st0" x1="662.2" y1="480" x2="662.2" y2="504.5"/>
		<path class="st0" d="M662.2,480"/>
		<line class="st0" x1="670.7" y1="526.4" x2="670.7" y2="709.8"/>
		<path class="st0" d="M670.7,526.4"/>
		<path class="st0" d="M670.7,504.5"/>
		<line class="st0" x1="670.7" y1="490.3" x2="670.7" y2="504.5"/>
		<path class="st0" d="M670.7,490.3"/>
		<path class="st0" d="M679.3,698.5"/>
		<line class="st0" x1="679.3" y1="526.4" x2="679.3" y2="698.5"/>
		<path class="st0" d="M679.3,526.4"/>
		<path class="st0" d="M679.3,504.5"/>
		<line class="st0" x1="679.3" y1="502.6" x2="679.3" y2="504.5"/>
		<path class="st0" d="M679.3,502.6"/>
		<path class="st0" d="M687.8,671.3"/>
		<line class="st0" x1="687.8" y1="526.4" x2="687.8" y2="671.3"/>
		<path class="st0" d="M687.8,526.4"/>
		<path class="st0" d="M696.3,632.7"/>
		<line class="st0" x1="696.3" y1="550.2" x2="696.3" y2="632.7"/>
		<path class="st0" d="M696.3,550.2"/>
	</g>
</g>
<g>
	<g>
		<rect x="448.9" y="576.4" class="st0" width="56" height="133.5"/>
	</g>
	<g>
		<g>
			<rect x="455.2" y="585.1" class="st0" width="6.1" height="10.4"/>
			<rect x="467.1" y="585.1" class="st0" width="6.1" height="10.4"/>
			<rect x="479" y="585.1" class="st0" width="6.1" height="10.4"/>
			<rect x="490.9" y="585.1" class="st0" width="6.1" height="10.4"/>
		</g>
		<g>
			<rect x="455.2" y="602.8" class="st0" width="6.1" height="10.4"/>
			<rect x="467.1" y="602.8" class="st0" width="6.1" height="10.4"/>
			<rect x="479" y="602.8" class="st0" width="6.1" height="10.4"/>
			<rect x="490.9" y="602.8" class="st0" width="6.1" height="10.4"/>
		</g>
		<g>
			<rect x="455.2" y="620.4" class="st0" width="6.1" height="10.4"/>
			<rect x="467.1" y="620.4" class="st0" width="6.1" height="10.4"/>
			<rect x="479" y="620.4" class="st0" width="6.1" height="10.4"/>
			<rect x="490.9" y="620.4" class="st0" width="6.1" height="10.4"/>
		</g>
		<g>
			<rect x="455.2" y="638" class="st0" width="6.1" height="10.4"/>
			<rect x="467.1" y="638" class="st0" width="6.1" height="10.4"/>
			<rect x="479" y="638" class="st0" width="6.1" height="10.4"/>
			<rect x="490.9" y="638" class="st0" width="6.1" height="10.4"/>
		</g>
		<g>
			<rect x="455.2" y="655.7" class="st0" width="6.1" height="10.4"/>
			<rect x="467.1" y="655.7" class="st0" width="6.1" height="10.4"/>
			<rect x="479" y="655.7" class="st0" width="6.1" height="10.4"/>
			<rect x="490.9" y="655.7" class="st0" width="6.1" height="10.4"/>
		</g>
		<g>
			<rect x="455.2" y="673.3" class="st0" width="6.1" height="10.4"/>
			<rect x="467.1" y="673.3" class="st0" width="6.1" height="10.4"/>
			<rect x="479" y="673.3" class="st0" width="6.1" height="10.4"/>
			<rect x="490.9" y="673.3" class="st0" width="6.1" height="10.4"/>
		</g>
		<g>
			<rect x="455.2" y="690.9" class="st0" width="6.1" height="10.4"/>
			<rect x="467.1" y="690.9" class="st0" width="6.1" height="10.4"/>
			<rect x="479" y="690.9" class="st0" width="6.1" height="10.4"/>
			<rect x="490.9" y="690.9" class="st0" width="6.1" height="10.4"/>
		</g>
		<rect x="448.9" y="569.4" class="st0" width="59.8" height="7"/>
		<polygon class="st0" points="494.9,560.3 494.9,569.4 470.1,569.4 470.1,563.8 485.1,563.8 485.1,561.2 		"/>
	</g>
</g>
<polyline class="st0" points="505.1,632.7 517.2,632.7 517.2,677.7 539.4,677.7 539.4,709 "/>
<polyline class="st0" points="522.3,677.7 522.3,606.4 542.7,606.4 "/>
<line class="st0" x1="542.7" y1="612.1" x2="527.2" y2="612.1"/>
<line class="st0" x1="542.7" y1="618.1" x2="527.2" y2="618.1"/>
<line class="st0" x1="542.7" y1="624.1" x2="527.2" y2="624.1"/>
<line class="st0" x1="542.7" y1="630.1" x2="527.2" y2="630.1"/>
<line class="st0" x1="542.7" y1="636.1" x2="527.2" y2="636.1"/>
<line class="st0" x1="542.7" y1="642.1" x2="527.2" y2="642.1"/>
<line class="st0" x1="542.7" y1="648.1" x2="527.2" y2="648.1"/>
<line class="st0" x1="542.7" y1="654.1" x2="527.2" y2="654.1"/>
<line class="st0" x1="542.7" y1="660.1" x2="527.2" y2="660.1"/>
<line class="st0" x1="542.7" y1="666.1" x2="527.2" y2="666.1"/>
<line class="st0" x1="542.7" y1="672.1" x2="527.2" y2="672.1"/>
<line class="st0" x1="542.7" y1="678.1" x2="539.4" y2="678.1"/>
<line class="st0" x1="542.7" y1="684.1" x2="539.4" y2="684.1"/>
<line class="st0" x1="542.7" y1="690.1" x2="539.4" y2="690.1"/>
<line class="st0" x1="542.7" y1="696.1" x2="539.4" y2="696.1"/>
<line class="st0" x1="542.7" y1="702.1" x2="539.4" y2="702.1"/>
<line class="st0" x1="137.2" y1="637.7" x2="137.2" y2="709.8"/>
<polygon class="st0" points="419.5,462.1 444.1,462.1 444.1,467.5 419.5,467.5 419.5,471.9 444.1,471.9 444.1,477.3 419.5,477.3 
	419.5,481.7 444.1,481.7 444.1,487.1 419.5,487.1 419.5,491.6 444.1,491.6 444.1,496.9 419.5,496.9 419.5,501.4 444.1,501.4 
	444.1,506.8 419.5,506.8 419.5,511.2 444.1,511.2 444.1,516.6 419.5,516.6 419.5,521 444.1,521 444.1,526.4 419.5,526.4 
	419.5,530.8 444.1,530.8 444.1,536.2 419.5,536.2 419.5,540.7 444.2,540.7 444.2,546 419.5,546 419.5,550.5 444.2,550.5 
	444.2,555.9 419.5,555.9 419.5,560.3 444.2,560.3 444.2,565.7 419.5,565.7 419.5,570.1 444.2,570.1 444.2,575.5 419.5,575.5 
	419.5,580 444.2,580 444.2,585.3 419.5,585.3 419.5,589.8 444.2,589.8 444.2,595.2 419.5,595.2 419.5,599.6 444.2,599.6 444.2,605 
	419.5,605 419.5,609.4 444.2,609.4 444.2,614.8 419.5,614.8 419.5,619.2 444.2,619.2 444.2,624.6 419.5,624.6 419.5,629.1 
	444.2,629.1 444.2,634.4 419.5,634.4 419.5,638.9 444.2,638.9 444.2,644.3 419.5,644.3 419.5,648.7 444.2,648.7 444.2,654.1 
	419.5,654.1 419.5,658.5 444.2,658.5 444.2,663.9 419.5,663.9 419.5,668.3 444.2,668.3 444.2,673.7 419.5,673.7 419.5,678.2 
	444.3,678.2 444.3,683.5 419.5,683.5 419.5,688 444.1,688 444.1,693.4 419.5,693.4 419.5,697.8 444.1,697.8 444.1,703.2 
	419.5,703.2 419.5,709.8 448.9,709.8 448.9,457.6 419.5,457.6 "/>
<rect x="406.3" y="697.8" class="st0" width="24.5" height="5.4"/>
<rect x="419.5" y="462.1" class="st0" width="24.6" height="5.4"/>
<rect x="419.5" y="471.9" class="st0" width="24.6" height="5.4"/>
<rect x="419.5" y="481.7" class="st0" width="24.6" height="5.4"/>
<rect x="419.5" y="491.6" class="st0" width="24.6" height="5.4"/>
<rect x="419.5" y="501.4" class="st0" width="24.6" height="5.4"/>
<rect x="419.5" y="511.2" class="st0" width="24.6" height="5.4"/>
<rect x="419.5" y="521" class="st0" width="24.6" height="5.4"/>
<rect x="419.5" y="530.8" class="st0" width="24.6" height="5.4"/>
<rect x="419.5" y="540.7" class="st0" width="24.6" height="5.4"/>
<rect x="419.5" y="550.5" class="st0" width="24.6" height="5.4"/>
<rect x="419.5" y="560.3" class="st0" width="24.6" height="5.4"/>
<rect x="419.5" y="570.1" class="st0" width="24.6" height="5.4"/>
<rect x="419.5" y="580" class="st0" width="24.6" height="5.4"/>
<rect x="419.5" y="589.8" class="st0" width="24.6" height="5.4"/>
<rect x="419.5" y="599.6" class="st0" width="24.7" height="5.4"/>
<rect x="419.5" y="609.4" class="st0" width="24.7" height="5.4"/>
<rect x="419.5" y="619.2" class="st0" width="24.7" height="5.4"/>
<rect x="419.5" y="629.1" class="st0" width="24.7" height="5.4"/>
<rect x="419.5" y="638.9" class="st0" width="24.7" height="5.4"/>
<rect x="419.5" y="648.7" class="st0" width="24.7" height="5.4"/>
<rect x="419.5" y="658.5" class="st0" width="24.7" height="5.4"/>
<rect x="419.5" y="668.3" class="st0" width="24.7" height="5.4"/>
<rect x="419.5" y="678.2" class="st0" width="24.7" height="5.4"/>
<rect x="419.5" y="688" class="st0" width="24.5" height="5.4"/>
<polygon class="st0" points="419.5,453.6 419.5,457.6 448.9,457.6 452,457.6 452,453.6 "/>
<g>
	<g>
		<path class="st0" d="M699.5,31.3c-5.8,0-10.5,4.7-10.5,10.5s4.7,10.5,10.5,10.5S710,47.6,710,41.8S705.3,31.3,699.5,31.3
			L699.5,31.3z"/>
	</g>
	<g>
		<path class="st0" d="M608.6,7c-15,0-27.5,10.8-30.1,25c-7,2-12.2,8-13.2,15.3h-9.1c-5.8,0-10.5,4.7-10.5,10.5s4.7,10.5,10.5,10.5
			h27.4h0.9h49.1c9.4,0,17.1-7,18.3-16h9.1c5.8,0,10.5-4.7,10.5-10.5s-4.7-10.5-10.5-10.5h-22.5C635.7,17.4,623.4,7,608.6,7L608.6,7
			z"/>
	</g>
	<g>
		<path class="st0" d="M545.7,17.3c-3.9,0-7,3.1-7,7s3.1,7,7,7s7-3.1,7-7C552.7,20.5,549.5,17.3,545.7,17.3L545.7,17.3z"/>
	</g>
	<g>
		<path class="st0" d="M671.6,0c-3.9,0-7,3.1-7,7s3.1,7,7,7s7-3.1,7-7C678.5,3.1,675.4,0,671.6,0L671.6,0z"/>
	</g>
</g>
<g>
	<g>
		<path class="st0" d="M482.1,269.2c-10.3,0-18.6,8.3-18.6,18.6s8.3,18.6,18.6,18.6c10.3,0,18.6-8.3,18.6-18.6
			S492.4,269.2,482.1,269.2L482.1,269.2z"/>
	</g>
</g>
<g>
	<line class="st0" x1="476.5" y1="266.6" x2="473.3" y2="254.8"/>
</g>
<g>
	<line class="st0" x1="464.9" y1="270.6" x2="455.3" y2="261"/>
</g>
<g>
	<line class="st0" x1="460.9" y1="282.1" x2="449.1" y2="279"/>
</g>
<g>
	<line class="st0" x1="458.6" y1="294.1" x2="445.5" y2="297.6"/>
</g>
<g>
	<line class="st0" x1="466.6" y1="303.3" x2="457.9" y2="312"/>
</g>
<g>
	<line class="st0" x1="475.8" y1="311.3" x2="472.3" y2="324.5"/>
</g>
<g>
	<line class="st0" x1="487.8" y1="309" x2="491" y2="320.9"/>
</g>
<g>
	<line class="st0" x1="499.3" y1="305" x2="509" y2="314.6"/>
</g>
<g>
	<line class="st0" x1="503.3" y1="293.5" x2="515.2" y2="296.7"/>
</g>
<g>
	<line class="st0" x1="505.6" y1="281.5" x2="518.8" y2="278"/>
</g>
<g>
	<line class="st0" x1="497.6" y1="272.3" x2="506.3" y2="263.6"/>
</g>
<g>
	<line class="st0" x1="488.4" y1="264.3" x2="492" y2="251.2"/>
</g>
</svg>
