<?xml version="1.0" encoding="utf-8"?>
<!-- Generator: Adobe Illustrator 20.0.0, SVG Export Plug-In . SVG Version: 6.00 Build 0)  -->
<svg version="1.1" id="Layer_1" xmlns="http://www.w3.org/2000/svg" xmlns:xlink="http://www.w3.org/1999/xlink" x="0px" y="0px"
	 viewBox="0 0 710 710" style="enable-background:new 0 0 710 710;" xml:space="preserve">
<style type="text/css">
	.st0{fill:#4F4F4F;}
	.st1{fill:none;stroke:#4F4F4F;stroke-miterlimit:10;}
</style>
<g>
	<g>
		<path class="st0" d="M699.5,34.4c5.6,0,10.1,4.5,10.1,10.1s-4.5,10.1-10.1,10.1s-10.1-4.5-10.1-10.1S693.9,34.4,699.5,34.4
			 M699.5,33.4c-6.1,0-11.1,5-11.1,11.1s5,11.1,11.1,11.1c6.1,0,11.1-5,11.1-11.1S705.6,33.4,699.5,33.4L699.5,33.4z"/>
	</g>
	<g>
		<path class="st0" d="M603.1,8.6c14.8,0,27.8,10.5,30.8,25l0.2,0.8h0.8h23.8c5.6,0,10.1,4.5,10.1,10.1c0,5.6-4.5,10.1-10.1,10.1
			h-9.7h-0.9l-0.1,0.9c-1.2,9.2-9.1,16.1-18.4,16.1h-52.1h-1h-29.1c-5.6,0-10.1-4.5-10.1-10.1s4.5-10.1,10.1-10.1h9.7h0.9l0.1-0.9
			c1-7.3,6.2-13.4,13.3-15.4l0.6-0.2l0.1-0.6C574.9,19.4,588,8.6,603.1,8.6 M603.1,7.6c-15.9,0-29.1,11.4-31.9,26.5
			c-7.4,2.1-13,8.4-14,16.2h-9.7c-6.1,0-11.1,5-11.1,11.1s5,11.1,11.1,11.1h29.1h1h52.1c9.9,0,18.1-7.4,19.4-17h9.7
			c6.1,0,11.1-5,11.1-11.1s-5-11.1-11.1-11.1h-23.8C631.8,18.7,618.8,7.6,603.1,7.6L603.1,7.6z"/>
	</g>
	<g>
		<path class="st0" d="M536.4,19.6c3.5,0,6.4,2.9,6.4,6.4s-2.9,6.4-6.4,6.4S530,29.5,530,26S532.9,19.6,536.4,19.6 M536.4,18.6
			c-4.1,0-7.4,3.3-7.4,7.4c0,4.1,3.3,7.4,7.4,7.4s7.4-3.3,7.4-7.4C543.8,21.9,540.5,18.6,536.4,18.6L536.4,18.6z"/>
	</g>
	<g>
		<path class="st0" d="M669.9,1.2c3.5,0,6.4,2.9,6.4,6.4c0,3.5-2.9,6.4-6.4,6.4c-3.5,0-6.4-2.9-6.4-6.4
			C663.5,4.1,666.3,1.2,669.9,1.2 M669.9,0.2c-4.1,0-7.4,3.3-7.4,7.4c0,4.1,3.3,7.4,7.4,7.4c4.1,0,7.4-3.3,7.4-7.4
			C677.2,3.5,673.9,0.2,669.9,0.2L669.9,0.2z"/>
	</g>
</g>
<g>
	<path class="st0" d="M127.3,146.5c9,0,16.8,6.4,18.4,15.3l0.1,0.6l0.6,0.2c2.4,0.7,4.5,2.2,6,4.3l0.3,0.4h0.5h8.5
		c3.2,0,5.7,2.6,5.7,5.7c0,3.2-2.6,5.7-5.7,5.7h-8.5h-0.5l-0.3,0.4c-2,3-5.4,4.7-9,4.7h-16.1H109c-3.2,0-5.7-2.6-5.7-5.7
		c0-3,2.4-5.5,5.4-5.7l1.3-0.1l-0.4-1.2c-0.6-1.9-1-3.9-1-5.9C108.5,154.9,116.9,146.5,127.3,146.5 M127.3,145.5
		c-10.9,0-19.7,8.8-19.7,19.7c0,2.2,0.4,4.3,1,6.3c-3.5,0.2-6.3,3.2-6.3,6.7c0,3.7,3,6.7,6.7,6.7h18.3h16.1c4.1,0,7.7-2,9.8-5.2h8.5
		c3.7,0,6.7-3,6.7-6.7c0-3.7-3-6.7-6.7-6.7h-8.5c-1.5-2.2-3.8-3.9-6.5-4.7C145,152.5,136.9,145.5,127.3,145.5L127.3,145.5z"/>
</g>
<g>
	<g>
		<path class="st0" d="M361.4,196.9c9.7,0,17.5,7.9,17.5,17.5s-7.9,17.5-17.5,17.5s-17.5-7.9-17.5-17.5S351.8,196.9,361.4,196.9
			 M361.4,195.9c-10.2,0-18.5,8.3-18.5,18.5c0,10.2,8.3,18.5,18.5,18.5s18.5-8.3,18.5-18.5C380,204.2,371.7,195.9,361.4,195.9
			L361.4,195.9z"/>
	</g>
	<g>
		<line class="st1" x1="355.8" y1="193.2" x2="352.6" y2="181.4"/>
	</g>
	<g>
		<line class="st1" x1="344.3" y1="197.2" x2="334.7" y2="187.6"/>
	</g>
	<g>
		<line class="st1" x1="340.3" y1="208.7" x2="328.5" y2="205.5"/>
	</g>
	<g>
		<line class="st1" x1="338" y1="220.7" x2="324.9" y2="224.2"/>
	</g>
	<g>
		<line class="st1" x1="346" y1="229.8" x2="337.3" y2="238.5"/>
	</g>
	<g>
		<line class="st1" x1="355.2" y1="237.8" x2="351.6" y2="250.9"/>
	</g>
	<g>
		<line class="st1" x1="367.1" y1="235.5" x2="370.3" y2="247.3"/>
	</g>
	<g>
		<line class="st1" x1="378.6" y1="231.5" x2="388.2" y2="241.1"/>
	</g>
	<g>
		<line class="st1" x1="382.6" y1="220" x2="394.4" y2="223.2"/>
	</g>
	<g>
		<line class="st1" x1="384.9" y1="208.1" x2="398" y2="204.6"/>
	</g>
	<g>
		<line class="st1" x1="376.9" y1="198.9" x2="385.6" y2="190.3"/>
	</g>
	<g>
		<line class="st1" x1="367.7" y1="190.9" x2="371.2" y2="177.8"/>
	</g>
</g>
<g>
	<g>
		<g>
			<rect x="113.6" y="558" class="st1" width="157.7" height="9.1"/>
			<rect x="271.2" y="558" class="st1" width="27.3" height="9.1"/>
			<g>
				<rect x="286.9" y="567.1" class="st1" width="9.5" height="2.9"/>
				<rect x="286.9" y="624.2" class="st1" width="9.5" height="2.9"/>
				<g>
					<line class="st1" x1="288.8" y1="570" x2="288.8" y2="624.2"/>
					<line class="st1" x1="294.3" y1="570" x2="294.3" y2="624.2"/>
				</g>
			</g>
			<g>
				<rect x="273.6" y="567.1" class="st1" width="9.5" height="2.9"/>
				<rect x="273.6" y="624.2" class="st1" width="9.5" height="2.9"/>
				<g>
					<line class="st1" x1="275.5" y1="570" x2="275.5" y2="624.2"/>
					<line class="st1" x1="281" y1="570" x2="281" y2="624.2"/>
				</g>
			</g>
			<g>
				<rect x="228" y="567.1" class="st1" width="9.5" height="3.1"/>
				<rect x="228" y="628.9" class="st1" width="9.5" height="3.1"/>
				<g>
					<line class="st1" x1="230" y1="570.2" x2="230" y2="628.9"/>
					<line class="st1" x1="235.5" y1="570.2" x2="235.5" y2="628.9"/>
				</g>
			</g>
			<g>
				<rect x="203.7" y="567.1" class="st1" width="9.5" height="3.1"/>
				<rect x="203.7" y="628.9" class="st1" width="9.5" height="3.1"/>
				<g>
					<line class="st1" x1="205.6" y1="570.2" x2="205.6" y2="628.9"/>
					<line class="st1" x1="211.1" y1="570.2" x2="211.1" y2="628.9"/>
				</g>
			</g>
			<g>
				<rect x="165.7" y="567.1" class="st1" width="9.5" height="3.1"/>
				<rect x="165.7" y="628.9" class="st1" width="9.5" height="3.1"/>
				<g>
					<line class="st1" x1="167.6" y1="570.2" x2="167.6" y2="628.9"/>
					<line class="st1" x1="173.2" y1="570.2" x2="173.2" y2="628.9"/>
				</g>
			</g>
			<g>
				<rect x="143.5" y="567.1" class="st1" width="9.5" height="3.1"/>
				<rect x="143.5" y="628.9" class="st1" width="9.5" height="3.1"/>
				<g>
					<line class="st1" x1="145.4" y1="570.2" x2="145.4" y2="628.9"/>
					<line class="st1" x1="151" y1="570.2" x2="151" y2="628.9"/>
				</g>
			</g>
			<g>
				<rect x="121.3" y="567.1" class="st1" width="9.5" height="3.1"/>
				<rect x="121.3" y="628.9" class="st1" width="9.5" height="3.1"/>
				<g>
					<line class="st1" x1="123.2" y1="570.2" x2="123.2" y2="628.9"/>
					<line class="st1" x1="128.8" y1="570.2" x2="128.8" y2="628.9"/>
				</g>
			</g>
			<polyline class="st1" points="323.4,643.4 271.2,643.4 271.2,627.1 323.4,627.1 			"/>
			<rect x="113.6" y="632" class="st1" width="157.7" height="11.4"/>
			<g>
				<rect x="248.8" y="594" class="st1" width="8.9" height="38"/>
				<rect x="248.8" y="575.8" class="st1" width="8.9" height="9.1"/>
			</g>
			<g>
				<rect x="191" y="594" class="st1" width="8.9" height="38"/>
				<rect x="191" y="575.8" class="st1" width="8.9" height="9.1"/>
			</g>
			<g>
				<rect x="178.6" y="594" class="st1" width="8.9" height="38"/>
				<rect x="178.6" y="575.8" class="st1" width="8.9" height="9.1"/>
			</g>
			<polyline class="st1" points="323.4,650.3 116.7,650.3 116.7,643.4 323.4,643.4 			"/>
			<g>
				<rect x="276.3" y="650.3" class="st1" width="9.5" height="2.9"/>
				<rect x="276.3" y="707.4" class="st1" width="9.5" height="2.9"/>
				<g>
					<line class="st1" x1="278.3" y1="653.2" x2="278.3" y2="707.4"/>
					<line class="st1" x1="283.8" y1="653.2" x2="283.8" y2="707.4"/>
				</g>
			</g>
			<g>
				<rect x="302" y="650.3" class="st1" width="9.5" height="2.9"/>
				<rect x="302" y="707.4" class="st1" width="9.5" height="2.9"/>
				<g>
					<line class="st1" x1="304" y1="653.2" x2="304" y2="707.4"/>
					<line class="st1" x1="309.5" y1="653.2" x2="309.5" y2="707.4"/>
				</g>
			</g>
			<g>
				<rect x="260.1" y="650.3" class="st1" width="9.5" height="2.9"/>
				<rect x="260.1" y="707.4" class="st1" width="9.5" height="2.9"/>
				<g>
					<line class="st1" x1="262.1" y1="653.2" x2="262.1" y2="707.4"/>
					<line class="st1" x1="267.6" y1="653.2" x2="267.6" y2="707.4"/>
				</g>
			</g>
			<g>
				<rect x="234" y="650.3" class="st1" width="9.5" height="2.9"/>
				<rect x="234" y="707.4" class="st1" width="9.5" height="2.9"/>
				<g>
					<line class="st1" x1="236" y1="653.2" x2="236" y2="707.4"/>
					<line class="st1" x1="241.5" y1="653.2" x2="241.5" y2="707.4"/>
				</g>
			</g>
			<g>
				<rect x="154.2" y="650.3" class="st1" width="9.5" height="2.9"/>
				<rect x="154.2" y="707.4" class="st1" width="9.5" height="2.9"/>
				<g>
					<line class="st1" x1="156.2" y1="653.2" x2="156.2" y2="707.4"/>
					<line class="st1" x1="161.7" y1="653.2" x2="161.7" y2="707.4"/>
				</g>
			</g>
			<g>
				<rect x="121.3" y="650.3" class="st1" width="9.5" height="2.9"/>
				<rect x="121.3" y="707.4" class="st1" width="9.5" height="2.9"/>
				<g>
					<line class="st1" x1="123.2" y1="653.2" x2="123.2" y2="707.4"/>
					<line class="st1" x1="128.8" y1="653.2" x2="128.8" y2="707.4"/>
				</g>
			</g>
			<path class="st1" d="M213.6,710.2h-41.9v-38.1c0-10.5,8.5-19,19-19h3.9c10.5,0,19,8.5,19,19V710.2z"/>
			<path class="st1" d="M210.2,710.2H175V673c0-8.8,7.2-16,16-16h3.3c8.8,0,16,7.2,16,16V710.2z"/>
			<line class="st1" x1="192.6" y1="657" x2="192.6" y2="710.2"/>
			<rect x="302.2" y="588.2" class="st1" width="10.5" height="38.9"/>
			<rect x="302.2" y="568.5" class="st1" width="10.5" height="9.6"/>
			<polyline class="st1" points="328.7,627.1 318.2,627.1 318.2,588.2 328.7,588.2 			"/>
			<polyline class="st1" points="328.7,578 318.2,578 318.2,568.5 328.7,568.5 			"/>
			<line class="st1" x1="298.6" y1="560.9" x2="323.4" y2="560.9"/>
			<line class="st1" x1="298.6" y1="564.1" x2="323.4" y2="564.1"/>
			<path class="st1" d="M323.4,592"/>
			<path class="st1" d="M323.4,527.1c-17.2,0-31.1,13.9-31.1,31.1"/>
			<path class="st1" d="M323.4,516.4c-23,0-41.7,18.7-41.7,41.7"/>
			<path class="st1" d="M323.4,506.9c-28.3,0-51.3,22.9-51.3,51.2"/>
			<polyline class="st1" points="293.6,516.4 237.5,516.4 237.5,448.9 242.1,448.9 242.1,453.9 323.5,453.9 			"/>
			<rect x="167.6" y="497.2" class="st1" width="69.8" height="19.2"/>
			<line class="st1" x1="170.4" y1="516.4" x2="170.4" y2="558.2"/>
			<rect x="126" y="522.6" class="st1" width="44.4" height="9.9"/>
			<line class="st1" x1="128.8" y1="532.5" x2="128.8" y2="558"/>
			<rect x="113.6" y="538.4" class="st1" width="15.2" height="10.2"/>
			<line class="st1" x1="116.5" y1="548.6" x2="116.5" y2="558"/>
			<path class="st1" d="M174.2,558.2v-21.4c0-6.4,5.2-11.5,11.5-11.5h11.8c6.4,0,11.5,5.2,11.5,11.5V558"/>
			<line class="st1" x1="267.6" y1="516.4" x2="267.6" y2="558"/>
			<path class="st1" d="M185,510.2h-9.8v-3.9c0-2.5,2-4.5,4.5-4.5h0.9c2.5,0,4.5,2,4.5,4.5V510.2z"/>
			<path class="st1" d="M206.2,510.2h-9.8v-3.9c0-2.5,2-4.5,4.5-4.5h0.9c2.5,0,4.5,2,4.5,4.5V510.2z"/>
			<path class="st1" d="M227.3,510.2h-9.8v-3.9c0-2.5,2-4.5,4.5-4.5h0.9c2.5,0,4.5,2,4.5,4.5V510.2z"/>
			<g>
				<path class="st1" d="M258.3,501.8h-12.9v-23.3c0-3.2,2.6-5.9,5.9-5.9h1.2c3.2,0,5.9,2.6,5.9,5.9V501.8z"/>
				<line class="st1" x1="245.4" y1="479.1" x2="258.3" y2="479.1"/>
				<line class="st1" x1="245.4" y1="487" x2="258.3" y2="487"/>
				<line class="st1" x1="245.4" y1="494.9" x2="258.3" y2="494.9"/>
			</g>
			<g>
				<path class="st1" d="M281.7,501.8h-12.9v-23.3c0-3.2,2.6-5.9,5.9-5.9h1.2c3.2,0,5.9,2.6,5.9,5.9V501.8z"/>
				<line class="st1" x1="268.8" y1="479.1" x2="281.7" y2="479.1"/>
				<line class="st1" x1="268.8" y1="487" x2="281.7" y2="487"/>
				<line class="st1" x1="268.8" y1="494.9" x2="281.7" y2="494.9"/>
			</g>
			<g>
				<path class="st1" d="M305,501.8h-12.9v-23.3c0-3.2,2.6-5.9,5.9-5.9h1.2c3.2,0,5.9,2.6,5.9,5.9V501.8z"/>
				<line class="st1" x1="292.1" y1="479.1" x2="305" y2="479.1"/>
				<line class="st1" x1="292.1" y1="487" x2="305" y2="487"/>
				<line class="st1" x1="292.1" y1="494.9" x2="305" y2="494.9"/>
			</g>
			<g>
				<path class="st1" d="M323.4,501.8"/>
				<path class="st1" d="M323.4,501.8H317v-22.7c0-3.6,2.9-6.5,6.5-6.5l0,0"/>
				<path class="st1" d="M323.4,479.1"/>
				<line class="st1" x1="317" y1="479.1" x2="323.4" y2="479.1"/>
				<path class="st1" d="M323.4,487"/>
				<line class="st1" x1="317" y1="487" x2="323.4" y2="487"/>
				<path class="st1" d="M323.4,494.9"/>
				<line class="st1" x1="317" y1="494.9" x2="323.4" y2="494.9"/>
			</g>
			<line class="st1" x1="170.4" y1="519.9" x2="223.6" y2="519.9"/>
			<path class="st1" d="M237.5,457.4c0,0-24.3-1.1-49,23.7l-16.2,16.2"/>
			<path class="st1" d="M308.3,394c-31.3,6-55.3,30.2-58.2,60"/>
			<polyline class="st1" points="323.5,394 307.8,394 307.8,388.9 323.5,388.9 			"/>
			<path class="st1" d="M311.8,453.9"/>
			<path class="st1" d="M311.8,453.9c0,0-1.2-34.5,10.2-60"/>
			<path class="st1" d="M260.3,453.9c0,0,1.3-40.5,46.2-59.6"/>
			<path class="st1" d="M316.9,394c-5.4,4.2-20.9,19.5-22.5,60"/>
			<path class="st1" d="M311.4,394c-6.5,3.7-34.5,21.7-34.5,60"/>
			<polyline class="st1" points="311.4,388.9 311.4,362.3 314.1,362.3 314.1,365.3 316.6,365.3 316.6,362.3 319.2,362.3 
				319.2,365.5 321.8,365.5 321.8,362.3 323.5,362.3 			"/>
			<path class="st1" d="M318.7,362.3v-2.2h-0.5c-1.1,0-2.1-0.9-2.1-2.1l0,0c0-1.1,0.9-2.1,2.1-2.1h3v-2.2h-1.1
				c-0.7,0-1.3-0.6-1.3-1.3v-2.8c0-0.7,0.6-1.3,1.3-1.3h0.9c0,0-7.1-7-7.8-14.5l7.9,7c0,0-0.4-2.9,2.3-6"/>
		</g>
		<g>
			
				<rect x="375.4" y="558" transform="matrix(-1 -4.485358e-11 4.485358e-11 -1 908.4275 1125.1072)" class="st1" width="157.7" height="9.1"/>
			
				<rect x="348" y="558" transform="matrix(-1 -4.491220e-11 4.491220e-11 -1 723.4152 1125.1072)" class="st1" width="27.3" height="9.1"/>
			<g>
				
					<rect x="350.3" y="567.1" transform="matrix(-1 -4.462887e-11 4.462887e-11 -1 710.0817 1137.0994)" class="st1" width="9.5" height="2.9"/>
				
					<rect x="350.3" y="624.2" transform="matrix(-1 -4.501389e-11 4.501389e-11 -1 710.0817 1251.2524)" class="st1" width="9.5" height="2.9"/>
				<g>
					<line class="st1" x1="357.8" y1="570" x2="357.8" y2="624.2"/>
					<line class="st1" x1="352.3" y1="570" x2="352.3" y2="624.2"/>
				</g>
			</g>
			<g>
				
					<rect x="363.6" y="567.1" transform="matrix(-1 -4.501389e-11 4.501389e-11 -1 736.674 1137.0994)" class="st1" width="9.5" height="2.9"/>
				
					<rect x="363.6" y="624.2" transform="matrix(-1 -4.520618e-11 4.520618e-11 -1 736.674 1251.2524)" class="st1" width="9.5" height="2.9"/>
				<g>
					<line class="st1" x1="371.1" y1="570" x2="371.1" y2="624.2"/>
					<line class="st1" x1="365.6" y1="570" x2="365.6" y2="624.2"/>
				</g>
			</g>
			<g>
				
					<rect x="409.1" y="567.1" transform="matrix(-1 -4.520618e-11 4.520618e-11 -1 827.7202 1137.3367)" class="st1" width="9.5" height="3.1"/>
				
					<rect x="409.1" y="628.9" transform="matrix(-1 -4.501389e-11 4.501389e-11 -1 827.7202 1260.8821)" class="st1" width="9.5" height="3.1"/>
				<g>
					<line class="st1" x1="416.6" y1="570.2" x2="416.6" y2="628.9"/>
					<line class="st1" x1="411.1" y1="570.2" x2="411.1" y2="628.9"/>
				</g>
			</g>
			<g>
				
					<rect x="433.5" y="567.1" transform="matrix(-1 -4.520618e-11 4.520618e-11 -1 876.4807 1137.3367)" class="st1" width="9.5" height="3.1"/>
				
					<rect x="433.5" y="628.9" transform="matrix(-1 -4.482116e-11 4.482116e-11 -1 876.4807 1260.8821)" class="st1" width="9.5" height="3.1"/>
				<g>
					<line class="st1" x1="441" y1="570.2" x2="441" y2="628.9"/>
					<line class="st1" x1="435.5" y1="570.2" x2="435.5" y2="628.9"/>
				</g>
			</g>
			<g>
				
					<rect x="471.5" y="567.1" transform="matrix(-1 -4.501389e-11 4.501389e-11 -1 952.4462 1137.3367)" class="st1" width="9.5" height="3.1"/>
				
					<rect x="471.5" y="628.9" transform="matrix(-1 -4.482116e-11 4.482116e-11 -1 952.4462 1260.8821)" class="st1" width="9.5" height="3.1"/>
				<g>
					<line class="st1" x1="479" y1="570.2" x2="479" y2="628.9"/>
					<line class="st1" x1="473.5" y1="570.2" x2="473.5" y2="628.9"/>
				</g>
			</g>
			<g>
				
					<rect x="493.7" y="567.1" transform="matrix(-1 -4.501389e-11 4.501389e-11 -1 996.8417 1137.3367)" class="st1" width="9.5" height="3.1"/>
				
					<rect x="493.7" y="628.9" transform="matrix(-1 -4.501389e-11 4.501389e-11 -1 996.8417 1260.8821)" class="st1" width="9.5" height="3.1"/>
				<g>
					<line class="st1" x1="501.2" y1="570.2" x2="501.2" y2="628.9"/>
					<line class="st1" x1="495.7" y1="570.2" x2="495.7" y2="628.9"/>
				</g>
			</g>
			<g>
				
					<rect x="515.9" y="567.1" transform="matrix(-1 -4.482116e-11 4.482116e-11 -1 1041.2372 1137.3367)" class="st1" width="9.5" height="3.1"/>
				
					<rect x="515.9" y="628.9" transform="matrix(-1 -4.443658e-11 4.443658e-11 -1 1041.2372 1260.8821)" class="st1" width="9.5" height="3.1"/>
				<g>
					<line class="st1" x1="523.4" y1="570.2" x2="523.4" y2="628.9"/>
					<line class="st1" x1="517.9" y1="570.2" x2="517.9" y2="628.9"/>
				</g>
			</g>
			<polyline class="st1" points="323.2,643.4 375.4,643.4 375.4,627.1 323.2,627.1 			"/>
			
				<rect x="375.4" y="632" transform="matrix(-1 -4.486512e-11 4.486512e-11 -1 908.4275 1275.3885)" class="st1" width="157.7" height="11.4"/>
			<g>
				
					<rect x="388.9" y="594" transform="matrix(-1 -4.503343e-11 4.503343e-11 -1 786.7542 1225.9779)" class="st1" width="8.9" height="38"/>
				
					<rect x="388.9" y="575.8" transform="matrix(-1 -4.523816e-11 4.523816e-11 -1 786.7542 1160.6283)" class="st1" width="8.9" height="9.1"/>
			</g>
			<g>
				
					<rect x="446.7" y="594" transform="matrix(-1 -4.482871e-11 4.482871e-11 -1 902.2755 1225.9779)" class="st1" width="8.9" height="38"/>
				
					<rect x="446.7" y="575.8" transform="matrix(-1 -4.523816e-11 4.523816e-11 -1 902.2755 1160.6283)" class="st1" width="8.9" height="9.1"/>
			</g>
			<g>
				
					<rect x="459.1" y="594" transform="matrix(-1 -4.482871e-11 4.482871e-11 -1 927.076 1225.9779)" class="st1" width="8.9" height="38"/>
				
					<rect x="459.1" y="575.8" transform="matrix(-1 -4.421453e-11 4.421453e-11 -1 927.076 1160.6283)" class="st1" width="8.9" height="9.1"/>
			</g>
			<polyline class="st1" points="323.2,650.3 529.9,650.3 529.9,643.4 323.2,643.4 			"/>
			<g>
				
					<rect x="360.9" y="650.3" transform="matrix(-1 -4.520618e-11 4.520618e-11 -1 731.2056 1303.4423)" class="st1" width="9.5" height="2.9"/>
				
					<rect x="360.9" y="707.4" transform="matrix(-1 -4.520618e-11 4.520618e-11 -1 731.2056 1417.5953)" class="st1" width="9.5" height="2.9"/>
				<g>
					<line class="st1" x1="368.4" y1="653.2" x2="368.4" y2="707.4"/>
					<line class="st1" x1="362.8" y1="653.2" x2="362.8" y2="707.4"/>
				</g>
			</g>
			<g>
				
					<rect x="335.1" y="650.3" transform="matrix(-1 -4.501389e-11 4.501389e-11 -1 679.7108 1303.4423)" class="st1" width="9.5" height="2.9"/>
				
					<rect x="335.1" y="707.4" transform="matrix(-1 -4.501389e-11 4.501389e-11 -1 679.7108 1417.5953)" class="st1" width="9.5" height="2.9"/>
				<g>
					<line class="st1" x1="342.6" y1="653.2" x2="342.6" y2="707.4"/>
					<line class="st1" x1="337.1" y1="653.2" x2="337.1" y2="707.4"/>
				</g>
			</g>
			<g>
				
					<rect x="377.1" y="650.3" transform="matrix(-1 -4.462887e-11 4.462887e-11 -1 763.5606 1303.4423)" class="st1" width="9.5" height="2.9"/>
				
					<rect x="377.1" y="707.4" transform="matrix(-1 -4.462887e-11 4.462887e-11 -1 763.5606 1417.5953)" class="st1" width="9.5" height="2.9"/>
				<g>
					<line class="st1" x1="384.5" y1="653.2" x2="384.5" y2="707.4"/>
					<line class="st1" x1="379" y1="653.2" x2="379" y2="707.4"/>
				</g>
			</g>
			<g>
				
					<rect x="403.2" y="650.3" transform="matrix(-1 -4.482116e-11 4.482116e-11 -1 815.8149 1303.4423)" class="st1" width="9.5" height="2.9"/>
				
					<rect x="403.2" y="707.4" transform="matrix(-1 -4.482116e-11 4.482116e-11 -1 815.8149 1417.5953)" class="st1" width="9.5" height="2.9"/>
				<g>
					<line class="st1" x1="410.7" y1="653.2" x2="410.7" y2="707.4"/>
					<line class="st1" x1="405.1" y1="653.2" x2="405.1" y2="707.4"/>
				</g>
			</g>
			<g>
				
					<rect x="482.9" y="650.3" transform="matrix(-1 -4.520618e-11 4.520618e-11 -1 975.3454 1303.4423)" class="st1" width="9.5" height="2.9"/>
				
					<rect x="482.9" y="707.4" transform="matrix(-1 -4.501389e-11 4.501389e-11 -1 975.3454 1417.5953)" class="st1" width="9.5" height="2.9"/>
				<g>
					<line class="st1" x1="490.4" y1="653.2" x2="490.4" y2="707.4"/>
					<line class="st1" x1="484.9" y1="653.2" x2="484.9" y2="707.4"/>
				</g>
			</g>
			<g>
				
					<rect x="515.9" y="650.3" transform="matrix(-1 -4.424429e-11 4.424429e-11 -1 1041.2372 1303.4423)" class="st1" width="9.5" height="2.9"/>
				
					<rect x="515.9" y="707.4" transform="matrix(-1 -4.501389e-11 4.501389e-11 -1 1041.2372 1417.5953)" class="st1" width="9.5" height="2.9"/>
				<g>
					<line class="st1" x1="523.4" y1="653.2" x2="523.4" y2="707.4"/>
					<line class="st1" x1="517.9" y1="653.2" x2="517.9" y2="707.4"/>
				</g>
			</g>
			<path class="st1" d="M433.1,710.2H475v-38.1c0-10.5-8.5-19-19-19h-3.9c-10.5,0-19,8.5-19,19V710.2z"/>
			<path class="st1" d="M436.4,710.2h35.2V673c0-8.8-7.2-16-16-16h-3.3c-8.8,0-16,7.2-16,16V710.2z"/>
			<line class="st1" x1="454" y1="657" x2="454" y2="710.2"/>
			
				<rect x="333.9" y="588.2" transform="matrix(-1 -4.460178e-11 4.460178e-11 -1 678.2962 1215.238)" class="st1" width="10.5" height="38.9"/>
			
				<rect x="333.9" y="568.5" transform="matrix(-1 -4.512225e-11 4.512225e-11 -1 678.2962 1146.5109)" class="st1" width="10.5" height="9.6"/>
			<polyline class="st1" points="318,627.1 328.4,627.1 328.4,588.2 318,588.2 			"/>
			<polyline class="st1" points="318,578 328.4,578 328.4,568.5 318,568.5 			"/>
			<line class="st1" x1="348" y1="560.9" x2="323.2" y2="560.9"/>
			<line class="st1" x1="348" y1="564.1" x2="323.2" y2="564.1"/>
			<path class="st1" d="M323.2,592"/>
			<path class="st1" d="M323.2,527.1c17.2,0,31.1,13.9,31.1,31.1"/>
			<path class="st1" d="M323.2,516.4c23,0,41.7,18.7,41.7,41.7"/>
			<path class="st1" d="M323.2,506.9c28.3,0,51.3,22.9,51.3,51.2"/>
			<polyline class="st1" points="353,516.4 409.1,516.4 409.1,448.9 404.5,448.9 404.5,453.9 323.2,453.9 			"/>
			
				<rect x="409.1" y="497.2" transform="matrix(-1 -4.489621e-11 4.489621e-11 -1 888.1132 1013.6486)" class="st1" width="69.8" height="19.2"/>
			<line class="st1" x1="476.2" y1="516.4" x2="476.2" y2="558.2"/>
			
				<rect x="476.2" y="522.6" transform="matrix(-1 -4.486468e-11 4.486468e-11 -1 996.8417 1055.1656)" class="st1" width="44.4" height="9.9"/>
			<line class="st1" x1="517.9" y1="532.5" x2="517.9" y2="558"/>
			
				<rect x="517.9" y="538.4" transform="matrix(-1 -4.526480e-11 4.526480e-11 -1 1050.9114 1087.0056)" class="st1" width="15.2" height="10.2"/>
			<line class="st1" x1="530.2" y1="548.6" x2="530.2" y2="558"/>
			<path class="st1" d="M472.4,558.2v-21.4c0-6.4-5.2-11.5-11.5-11.5H449c-6.4,0-11.5,5.2-11.5,11.5V558"/>
			<line class="st1" x1="379" y1="516.4" x2="379" y2="558"/>
			<path class="st1" d="M461.7,510.2h9.8v-3.9c0-2.5-2-4.5-4.5-4.5h-0.9c-2.5,0-4.5,2-4.5,4.5V510.2z"/>
			<path class="st1" d="M440.5,510.2h9.8v-3.9c0-2.5-2-4.5-4.5-4.5h-0.9c-2.5,0-4.5,2-4.5,4.5V510.2z"/>
			<path class="st1" d="M419.3,510.2h9.8v-3.9c0-2.5-2-4.5-4.5-4.5h-0.9c-2.5,0-4.5,2-4.5,4.5V510.2z"/>
			<g>
				<path class="st1" d="M388.3,501.8h12.9v-23.3c0-3.2-2.6-5.9-5.9-5.9h-1.2c-3.2,0-5.9,2.6-5.9,5.9V501.8z"/>
				<line class="st1" x1="401.2" y1="479.1" x2="388.3" y2="479.1"/>
				<line class="st1" x1="401.2" y1="487" x2="388.3" y2="487"/>
				<line class="st1" x1="401.2" y1="494.9" x2="388.3" y2="494.9"/>
			</g>
			<g>
				<path class="st1" d="M364.9,501.8h12.9v-23.3c0-3.2-2.6-5.9-5.9-5.9h-1.2c-3.2,0-5.9,2.6-5.9,5.9V501.8z"/>
				<line class="st1" x1="377.8" y1="479.1" x2="364.9" y2="479.1"/>
				<line class="st1" x1="377.8" y1="487" x2="364.9" y2="487"/>
				<line class="st1" x1="377.8" y1="494.9" x2="364.9" y2="494.9"/>
			</g>
			<g>
				<path class="st1" d="M341.6,501.8h12.9v-23.3c0-3.2-2.6-5.9-5.9-5.9h-1.2c-3.2,0-5.9,2.6-5.9,5.9V501.8z"/>
				<line class="st1" x1="354.5" y1="479.1" x2="341.6" y2="479.1"/>
				<line class="st1" x1="354.5" y1="487" x2="341.6" y2="487"/>
				<line class="st1" x1="354.5" y1="494.9" x2="341.6" y2="494.9"/>
			</g>
			<g>
				<path class="st1" d="M323.2,501.8"/>
				<path class="st1" d="M323.2,501.8h6.5v-22.7c0-3.6-2.9-6.5-6.5-6.5l0,0"/>
				<path class="st1" d="M323.2,479.1"/>
				<line class="st1" x1="329.7" y1="479.1" x2="323.2" y2="479.1"/>
				<path class="st1" d="M323.2,487"/>
				<line class="st1" x1="329.7" y1="487" x2="323.2" y2="487"/>
				<path class="st1" d="M323.2,494.9"/>
				<line class="st1" x1="329.7" y1="494.9" x2="323.2" y2="494.9"/>
			</g>
			<line class="st1" x1="476.2" y1="519.9" x2="423.1" y2="519.9"/>
			<path class="st1" d="M409.1,457.4c0,0,24.3-1.1,49,23.7l16.2,16.2"/>
			<path class="st1" d="M338.3,394c31.3,6,55.3,30.2,58.2,60"/>
			<polyline class="st1" points="323.2,394 338.8,394 338.8,388.9 323.2,388.9 			"/>
			<path class="st1" d="M334.8,453.9"/>
			<path class="st1" d="M334.8,453.9c0,0,1.2-34.5-10.2-60"/>
			<path class="st1" d="M386.3,453.9c0,0-1.3-40.5-46.2-59.6"/>
			<path class="st1" d="M329.8,394c5.4,4.2,20.9,19.5,22.5,60"/>
			<path class="st1" d="M335.2,394c6.5,3.7,34.5,21.7,34.5,60"/>
			<polyline class="st1" points="335.2,388.9 335.2,362.3 332.5,362.3 332.5,365.3 330,365.3 330,362.3 327.4,362.3 327.4,365.5 
				324.8,365.5 324.8,362.3 323.2,362.3 			"/>
			<path class="st1" d="M327.9,362.3v-2.2h0.5c1.1,0,2.1-0.9,2.1-2.1l0,0c0-1.1-0.9-2.1-2.1-2.1h-3v-2.2h1.1c0.7,0,1.3-0.6,1.3-1.3
				v-2.8c0-0.7-0.6-1.3-1.3-1.3h-0.9c0,0,7.1-7,7.8-14.5l-7.9,7c0,0,0.4-2.9-2.3-6"/>
		</g>
		<line class="st1" x1="121.3" y1="710.2" x2="525.8" y2="710.2"/>
	</g>
	<g>
		<rect x="558.8" y="644.9" class="st1" width="90.4" height="54"/>
		<rect x="555.6" y="640" class="st1" width="96.9" height="4.9"/>
		<rect x="563.2" y="627.1" class="st1" width="81.7" height="12.9"/>
		<rect x="555.6" y="698.9" class="st1" width="96.9" height="3.4"/>
		<rect x="551.7" y="702.3" class="st1" width="104.6" height="3.6"/>
		<rect x="548.1" y="706" class="st1" width="111.9" height="4.3"/>
		<g>
			<g>
				<line class="st1" x1="577.1" y1="644.9" x2="577.1" y2="698.9"/>
				<line class="st1" x1="567.7" y1="644.9" x2="567.7" y2="698.9"/>
			</g>
			<g>
				<line class="st1" x1="640.3" y1="644.9" x2="640.3" y2="698.9"/>
				<line class="st1" x1="630.9" y1="644.9" x2="630.9" y2="698.9"/>
			</g>
		</g>
		<rect x="567.7" y="622.4" class="st1" width="72.7" height="4.7"/>
		<rect x="581.2" y="610.2" class="st1" width="45.6" height="12.2"/>
		<rect x="578.6" y="607" class="st1" width="50.8" height="3.2"/>
		<g>
			<path class="st1" d="M586.5,607h-6.4v-16.1c0-1.6,1.3-2.9,2.9-2.9h0.6c1.6,0,2.9,1.3,2.9,2.9V607z"/>
			<path class="st1" d="M627.9,607h-6.4v-16.1c0-1.6,1.3-2.9,2.9-2.9h0.6c1.6,0,2.9,1.3,2.9,2.9V607z"/>
		</g>
		<ellipse class="st1" cx="604" cy="668.9" rx="15.8" ry="15.8"/>
		<ellipse class="st1" cx="604" cy="668.9" rx="11" ry="11"/>
		<g>
			<ellipse class="st1" cx="604" cy="536.1" rx="3.6" ry="3.6"/>
			<ellipse class="st1" cx="604" cy="502.9" rx="3.6" ry="3.6"/>
			<ellipse class="st1" cx="604" cy="469.7" rx="3.6" ry="3.6"/>
		</g>
		<g>
			<line class="st1" x1="607.1" y1="534.2" x2="616.4" y2="534.2"/>
			<line class="st1" x1="591.6" y1="534.2" x2="600.9" y2="534.2"/>
			<line class="st1" x1="607.1" y1="538" x2="616.4" y2="538"/>
			<line class="st1" x1="591.6" y1="538" x2="600.9" y2="538"/>
		</g>
		<g>
			<line class="st1" x1="607.1" y1="501" x2="616" y2="501"/>
			<line class="st1" x1="592" y1="501" x2="600.9" y2="501"/>
			<line class="st1" x1="607.1" y1="504.8" x2="616" y2="504.8"/>
			<line class="st1" x1="592" y1="504.8" x2="600.9" y2="504.8"/>
		</g>
		<g>
			<line class="st1" x1="606.9" y1="467.8" x2="615.6" y2="467.8"/>
			<line class="st1" x1="592.4" y1="467.8" x2="600.9" y2="467.8"/>
			<line class="st1" x1="607.2" y1="471.6" x2="615.6" y2="471.6"/>
			<line class="st1" x1="592.4" y1="471.6" x2="601" y2="471.6"/>
		</g>
		<g>
			<polyline class="st1" points="590.8,607 593,417.6 615,417.6 615,417.6 617.2,607 			"/>
		</g>
		<line class="st1" x1="592.9" y1="422.3" x2="615" y2="422.3"/>
		<g>
			<g>
				<path class="st1" d="M593,417.6c-16.1-7.2-6.8-23.5-6.8-23.5l-2.4-2.4c-0.4-0.4-0.6-0.9-0.6-1.5l0,0c0-1.1,0.9-2.1,2.1-2.1H604"
					/>
				<path class="st1" d="M585,388.1v-8.6c0-0.9,0.8-1.7,1.7-1.7l0,0c0.9,0,1.7,0.8,1.7,1.7v8.6"/>
				<line class="st1" x1="588.5" y1="380.3" x2="604" y2="380.3"/>
				<line class="st1" x1="588.5" y1="383.8" x2="604" y2="383.8"/>
			</g>
			<g>
				<path class="st1" d="M615,417.6c16.1-7.2,6.8-23.5,6.8-23.5l2.4-2.4c0.4-0.4,0.6-0.9,0.6-1.5l0,0c0-1.1-0.9-2.1-2.1-2.1h-18.8"
					/>
				<path class="st1" d="M622.9,388.1v-8.6c0-0.9-0.8-1.7-1.7-1.7l0,0c-0.9,0-1.7,0.8-1.7,1.7v8.6"/>
				<line class="st1" x1="619.5" y1="380.3" x2="603.9" y2="380.3"/>
				<line class="st1" x1="619.5" y1="383.8" x2="604" y2="383.8"/>
			</g>
		</g>
		<rect x="592.5" y="363.8" class="st1" width="23.1" height="16.5"/>
		<path class="st1" d="M604.1,313.7c-5,0-2.4,7.9-2.4,7.9l-2.3-1.3l-3.1-18.3c-0.1-0.5-0.6-0.9-1.1-0.9l0,0c-0.6,0-1.1,0.5-1.1,1.1
			l0.5,14l-21.9-18.8c0,0-3.7,23.5,26.6,37.1v5.1l-3.5,3.5c-1.5,1.5-2.3,3.5-2.3,5.5v0c0,1.5,0.4,3,1.2,4.2l6.9,10.9"/>
		<path class="st1" d="M606.2,321.5c0,0,2.6-7.9-2.4-7.9"/>
		<path class="st1" d="M606.2,363.8l6.9-10.9c0.8-1.3,1.2-2.7,1.2-4.2v0c0-2.1-0.8-4.1-2.3-5.5l-3.5-3.5v-5.1
			c30.4-13.6,26.6-37.1,26.6-37.1l-29,24.1"/>
	</g>
	<g>
		<polyline class="st1" points="149.4,710.2 0.6,710.2 0.6,466.9 149.4,466.9 149.4,522.3 		"/>
		<path class="st1" d="M149.4,522.3"/>
		<rect x="21.7" y="397.2" class="st1" width="106.6" height="69.7"/>
		<rect x="41.5" y="353.9" class="st1" width="67" height="43.3"/>
		<rect x="48.2" y="341.3" class="st1" width="53.5" height="12.7"/>
		<g>
			<rect x="10" y="476.6" class="st1" width="11.2" height="11.3"/>
			<rect x="29.8" y="476.6" class="st1" width="11.2" height="11.3"/>
			<rect x="49.6" y="476.6" class="st1" width="11.2" height="11.3"/>
			<rect x="69.4" y="476.6" class="st1" width="11.2" height="11.3"/>
			<rect x="89.2" y="476.6" class="st1" width="11.2" height="11.3"/>
			<rect x="109" y="476.6" class="st1" width="11.2" height="11.3"/>
			<rect x="128.8" y="476.6" class="st1" width="11.2" height="11.3"/>
		</g>
		<g>
			<rect x="29.8" y="403.9" class="st1" width="11.2" height="11.3"/>
			<rect x="49.6" y="403.9" class="st1" width="11.2" height="11.3"/>
			<rect x="69.4" y="403.9" class="st1" width="11.2" height="11.3"/>
			<rect x="89.2" y="403.9" class="st1" width="11.2" height="11.3"/>
			<rect x="109" y="403.9" class="st1" width="11.2" height="11.3"/>
		</g>
		<g>
			<rect x="49.6" y="359.9" class="st1" width="11.2" height="11.3"/>
			<rect x="69.4" y="359.9" class="st1" width="11.2" height="11.3"/>
			<rect x="89.2" y="359.9" class="st1" width="11.2" height="11.3"/>
		</g>
		<g>
			<rect x="49.6" y="378.6" class="st1" width="11.2" height="11.3"/>
			<rect x="69.4" y="378.6" class="st1" width="11.2" height="11.3"/>
			<rect x="89.2" y="378.6" class="st1" width="11.2" height="11.3"/>
		</g>
		<g>
			<rect x="29.8" y="425" class="st1" width="11.2" height="11.3"/>
			<rect x="49.6" y="425" class="st1" width="11.2" height="11.3"/>
			<rect x="69.4" y="425" class="st1" width="11.2" height="11.3"/>
			<rect x="89.2" y="425" class="st1" width="11.2" height="11.3"/>
			<rect x="109" y="425" class="st1" width="11.2" height="11.3"/>
		</g>
		<g>
			<rect x="29.8" y="446.1" class="st1" width="11.2" height="11.3"/>
			<rect x="49.6" y="446.1" class="st1" width="11.2" height="11.3"/>
			<rect x="69.4" y="446.1" class="st1" width="11.2" height="11.3"/>
			<rect x="89.2" y="446.1" class="st1" width="11.2" height="11.3"/>
			<rect x="109" y="446.1" class="st1" width="11.2" height="11.3"/>
		</g>
		<g>
			<rect x="10" y="497.6" class="st1" width="11.2" height="11.3"/>
			<rect x="29.8" y="497.6" class="st1" width="11.2" height="11.3"/>
			<rect x="49.6" y="497.6" class="st1" width="11.2" height="11.3"/>
			<rect x="69.4" y="497.6" class="st1" width="11.2" height="11.3"/>
			<rect x="89.2" y="497.6" class="st1" width="11.2" height="11.3"/>
			<rect x="109" y="497.6" class="st1" width="11.2" height="11.3"/>
			<rect x="128.8" y="497.6" class="st1" width="11.2" height="11.3"/>
		</g>
		<g>
			<rect x="10" y="518.6" class="st1" width="11.2" height="11.3"/>
			<rect x="29.8" y="518.6" class="st1" width="11.2" height="11.3"/>
			<rect x="49.6" y="518.6" class="st1" width="11.2" height="11.3"/>
			<rect x="69.4" y="518.6" class="st1" width="11.2" height="11.3"/>
			<rect x="89.2" y="518.6" class="st1" width="11.2" height="11.3"/>
			<rect x="109" y="518.6" class="st1" width="11.2" height="11.3"/>
			<polyline class="st1" points="128.8,522.6 128.8,518.6 140,518.6 140,522.6 			"/>
		</g>
		<g>
			<rect x="10" y="539.6" class="st1" width="11.2" height="11.3"/>
			<rect x="29.8" y="539.6" class="st1" width="11.2" height="11.3"/>
			<rect x="49.6" y="539.6" class="st1" width="11.2" height="11.3"/>
			<rect x="69.4" y="539.6" class="st1" width="11.2" height="11.3"/>
			<rect x="89.2" y="539.6" class="st1" width="11.2" height="11.3"/>
			<polyline class="st1" points="116.5,550.9 109,550.9 109,539.6 113.6,539.6 			"/>
		</g>
		<g>
			<rect x="10" y="560.6" class="st1" width="11.2" height="11.3"/>
			<rect x="29.8" y="560.6" class="st1" width="11.2" height="11.3"/>
			<rect x="49.6" y="560.6" class="st1" width="11.2" height="11.3"/>
			<rect x="69.4" y="560.6" class="st1" width="11.2" height="11.3"/>
			<rect x="89.2" y="560.6" class="st1" width="11.2" height="11.3"/>
			<polyline class="st1" points="120.2,567.1 120.2,571.9 109,571.9 109,560.6 113.6,560.6 			"/>
		</g>
		<g>
			<rect x="10" y="581.6" class="st1" width="11.2" height="11.3"/>
			<rect x="29.8" y="581.6" class="st1" width="11.2" height="11.3"/>
			<rect x="49.6" y="581.6" class="st1" width="11.2" height="11.3"/>
			<rect x="69.4" y="581.6" class="st1" width="11.2" height="11.3"/>
			<rect x="89.2" y="581.6" class="st1" width="11.2" height="11.3"/>
			<rect x="109" y="581.6" class="st1" width="11.2" height="11.3"/>
		</g>
		<g>
			<rect x="10" y="602.6" class="st1" width="11.2" height="11.3"/>
			<rect x="29.8" y="602.6" class="st1" width="11.2" height="11.3"/>
			<rect x="49.6" y="602.6" class="st1" width="11.2" height="11.3"/>
			<rect x="69.4" y="602.6" class="st1" width="11.2" height="11.3"/>
			<rect x="89.2" y="602.6" class="st1" width="11.2" height="11.3"/>
			<rect x="109" y="602.6" class="st1" width="11.2" height="11.3"/>
		</g>
		<g>
			<rect x="10" y="623.6" class="st1" width="11.2" height="11.3"/>
			<rect x="29.8" y="623.6" class="st1" width="11.2" height="11.3"/>
			<rect x="49.6" y="623.6" class="st1" width="11.2" height="11.3"/>
			<rect x="69.4" y="623.6" class="st1" width="11.2" height="11.3"/>
			<rect x="89.2" y="623.6" class="st1" width="11.2" height="11.3"/>
			<polyline class="st1" points="113.6,634.9 109,634.9 109,623.6 120.2,623.6 120.2,632 			"/>
		</g>
		<g>
			<rect x="10" y="644.6" class="st1" width="11.2" height="11.3"/>
			<rect x="29.8" y="644.6" class="st1" width="11.2" height="11.3"/>
			<rect x="49.6" y="644.6" class="st1" width="11.2" height="11.3"/>
			<rect x="69.4" y="644.6" class="st1" width="11.2" height="11.3"/>
			<rect x="89.2" y="644.6" class="st1" width="11.2" height="11.3"/>
			<polyline class="st1" points="120.2,650.3 120.2,655.9 109,655.9 109,644.6 116.7,644.6 			"/>
		</g>
		<g>
			<rect x="10" y="665.6" class="st1" width="11.2" height="11.3"/>
			<rect x="29.8" y="665.6" class="st1" width="11.2" height="11.3"/>
			<rect x="49.6" y="665.6" class="st1" width="11.2" height="11.3"/>
			<rect x="69.4" y="665.6" class="st1" width="11.2" height="11.3"/>
			<rect x="89.2" y="665.6" class="st1" width="11.2" height="11.3"/>
			<rect x="109" y="665.6" class="st1" width="11.2" height="11.3"/>
		</g>
		<g>
			<rect x="10" y="686.6" class="st1" width="11.2" height="23.7"/>
			<rect x="29.8" y="686.6" class="st1" width="11.2" height="23.7"/>
			<rect x="49.6" y="686.6" class="st1" width="11.2" height="23.7"/>
			<rect x="69.4" y="686.6" class="st1" width="11.2" height="23.7"/>
			<rect x="89.2" y="686.6" class="st1" width="11.2" height="23.7"/>
			<rect x="109" y="686.6" class="st1" width="11.2" height="23.7"/>
			<line class="st1" x1="140" y1="710.2" x2="128.8" y2="710.2"/>
		</g>
	</g>
	<polyline class="st1" points="499.5,522.7 499.5,454.1 555.5,454.1 555.6,698.9 	"/>
	<g>
		<g>
			<line class="st1" x1="506.7" y1="461.8" x2="506.7" y2="467.2"/>
			<line class="st1" x1="513.7" y1="461.8" x2="513.7" y2="467.2"/>
			<line class="st1" x1="520.7" y1="461.8" x2="520.7" y2="467.2"/>
			<line class="st1" x1="527.7" y1="461.8" x2="527.7" y2="467.2"/>
			<line class="st1" x1="534.7" y1="461.8" x2="534.7" y2="467.2"/>
			<line class="st1" x1="541.7" y1="461.8" x2="541.7" y2="467.2"/>
			<line class="st1" x1="548.7" y1="461.8" x2="548.7" y2="467.2"/>
		</g>
		<g>
			<line class="st1" x1="506.7" y1="474.6" x2="506.7" y2="480"/>
			<line class="st1" x1="513.7" y1="474.6" x2="513.7" y2="480"/>
			<line class="st1" x1="520.7" y1="474.6" x2="520.7" y2="480"/>
			<line class="st1" x1="527.7" y1="474.6" x2="527.7" y2="480"/>
			<line class="st1" x1="534.7" y1="474.6" x2="534.7" y2="480"/>
			<line class="st1" x1="541.7" y1="474.6" x2="541.7" y2="480"/>
			<line class="st1" x1="548.7" y1="474.6" x2="548.7" y2="480"/>
		</g>
		<g>
			<line class="st1" x1="506.7" y1="487.4" x2="506.7" y2="492.8"/>
			<line class="st1" x1="513.7" y1="487.4" x2="513.7" y2="492.8"/>
			<line class="st1" x1="520.7" y1="487.4" x2="520.7" y2="492.8"/>
			<line class="st1" x1="527.7" y1="487.4" x2="527.7" y2="492.8"/>
			<line class="st1" x1="534.7" y1="487.4" x2="534.7" y2="492.8"/>
			<line class="st1" x1="541.7" y1="487.4" x2="541.7" y2="492.8"/>
			<line class="st1" x1="548.7" y1="487.4" x2="548.7" y2="492.8"/>
		</g>
		<g>
			<line class="st1" x1="506.7" y1="500.2" x2="506.7" y2="505.7"/>
			<line class="st1" x1="513.7" y1="500.2" x2="513.7" y2="505.7"/>
			<line class="st1" x1="520.7" y1="500.2" x2="520.7" y2="505.7"/>
			<line class="st1" x1="527.7" y1="500.2" x2="527.7" y2="505.7"/>
			<line class="st1" x1="534.7" y1="500.2" x2="534.7" y2="505.7"/>
			<line class="st1" x1="541.7" y1="500.2" x2="541.7" y2="505.7"/>
			<line class="st1" x1="548.7" y1="500.2" x2="548.7" y2="505.7"/>
		</g>
		<g>
			<line class="st1" x1="506.7" y1="513.1" x2="506.7" y2="518.5"/>
			<line class="st1" x1="513.7" y1="513.1" x2="513.7" y2="518.5"/>
			<line class="st1" x1="520.7" y1="513.1" x2="520.7" y2="518.5"/>
			<line class="st1" x1="527.7" y1="513.1" x2="527.7" y2="518.5"/>
			<line class="st1" x1="534.7" y1="513.1" x2="534.7" y2="518.5"/>
			<line class="st1" x1="541.7" y1="513.1" x2="541.7" y2="518.5"/>
			<line class="st1" x1="548.7" y1="513.1" x2="548.7" y2="518.5"/>
		</g>
		<g>
			<line class="st1" x1="527.7" y1="525.9" x2="527.7" y2="531.3"/>
			<line class="st1" x1="534.7" y1="525.9" x2="534.7" y2="531.3"/>
			<line class="st1" x1="541.7" y1="525.9" x2="541.7" y2="531.3"/>
			<line class="st1" x1="548.7" y1="525.9" x2="548.7" y2="531.3"/>
		</g>
		<g>
			<line class="st1" x1="534.7" y1="538.7" x2="534.7" y2="544.1"/>
			<line class="st1" x1="541.7" y1="538.7" x2="541.7" y2="544.1"/>
			<line class="st1" x1="548.7" y1="538.7" x2="548.7" y2="544.1"/>
		</g>
		<g>
			<line class="st1" x1="534.7" y1="551.6" x2="534.7" y2="557"/>
			<line class="st1" x1="541.7" y1="551.6" x2="541.7" y2="557"/>
			<line class="st1" x1="548.7" y1="551.6" x2="548.7" y2="557"/>
		</g>
		<g>
			<line class="st1" x1="527.7" y1="567.1" x2="527.7" y2="569.8"/>
			<line class="st1" x1="534.7" y1="564.4" x2="534.7" y2="569.8"/>
			<line class="st1" x1="541.7" y1="564.4" x2="541.7" y2="569.8"/>
			<line class="st1" x1="548.7" y1="564.4" x2="548.7" y2="569.8"/>
		</g>
		<g>
			<line class="st1" x1="527.7" y1="577.2" x2="527.7" y2="582.6"/>
			<line class="st1" x1="534.7" y1="577.2" x2="534.7" y2="582.6"/>
			<line class="st1" x1="541.7" y1="577.2" x2="541.7" y2="582.6"/>
			<line class="st1" x1="548.7" y1="577.2" x2="548.7" y2="582.6"/>
		</g>
		<g>
			<line class="st1" x1="527.7" y1="590" x2="527.7" y2="595.5"/>
			<line class="st1" x1="534.7" y1="590" x2="534.7" y2="595.5"/>
			<line class="st1" x1="541.7" y1="590" x2="541.7" y2="595.5"/>
			<line class="st1" x1="548.7" y1="590" x2="548.7" y2="595.5"/>
		</g>
		<g>
			<line class="st1" x1="527.7" y1="602.9" x2="527.7" y2="608.3"/>
			<line class="st1" x1="534.7" y1="602.9" x2="534.7" y2="608.3"/>
			<line class="st1" x1="541.7" y1="602.9" x2="541.7" y2="608.3"/>
			<line class="st1" x1="548.7" y1="602.9" x2="548.7" y2="608.3"/>
		</g>
		<g>
			<line class="st1" x1="527.7" y1="615.7" x2="527.7" y2="621.1"/>
			<line class="st1" x1="534.7" y1="615.7" x2="534.7" y2="621.1"/>
			<line class="st1" x1="541.7" y1="615.7" x2="541.7" y2="621.1"/>
			<line class="st1" x1="548.7" y1="615.7" x2="548.7" y2="621.1"/>
		</g>
		<g>
			<line class="st1" x1="527.7" y1="628.5" x2="527.7" y2="632"/>
			<line class="st1" x1="534.7" y1="628.5" x2="534.7" y2="633.9"/>
			<line class="st1" x1="541.7" y1="628.5" x2="541.7" y2="633.9"/>
			<line class="st1" x1="548.7" y1="628.5" x2="548.7" y2="633.9"/>
		</g>
		<g>
			<line class="st1" x1="534.7" y1="641.3" x2="534.7" y2="646.8"/>
			<line class="st1" x1="541.7" y1="641.3" x2="541.7" y2="646.8"/>
			<line class="st1" x1="548.7" y1="641.3" x2="548.7" y2="646.8"/>
		</g>
		<g>
			<line class="st1" x1="527.7" y1="654.2" x2="527.7" y2="659.6"/>
			<line class="st1" x1="534.7" y1="654.2" x2="534.7" y2="659.6"/>
			<line class="st1" x1="541.7" y1="654.2" x2="541.7" y2="659.6"/>
			<line class="st1" x1="548.7" y1="654.2" x2="548.7" y2="659.6"/>
		</g>
		<g>
			<line class="st1" x1="527.7" y1="667" x2="527.7" y2="672.4"/>
			<line class="st1" x1="534.7" y1="667" x2="534.7" y2="672.4"/>
			<line class="st1" x1="541.7" y1="667" x2="541.7" y2="672.4"/>
			<line class="st1" x1="548.7" y1="667" x2="548.7" y2="672.4"/>
		</g>
		<g>
			<line class="st1" x1="527.7" y1="679.8" x2="527.7" y2="685.3"/>
			<line class="st1" x1="534.7" y1="679.8" x2="534.7" y2="685.3"/>
			<line class="st1" x1="541.7" y1="679.8" x2="541.7" y2="685.3"/>
			<line class="st1" x1="548.7" y1="679.8" x2="548.7" y2="685.3"/>
		</g>
		<g>
			<line class="st1" x1="527.7" y1="692.7" x2="527.7" y2="698.1"/>
			<line class="st1" x1="534.7" y1="692.7" x2="534.7" y2="698.1"/>
			<line class="st1" x1="541.7" y1="692.7" x2="541.7" y2="698.1"/>
			<line class="st1" x1="548.7" y1="692.7" x2="548.7" y2="698.1"/>
		</g>
	</g>
	<line class="st1" x1="525.3" y1="710.2" x2="548.1" y2="710.2"/>
	<polyline class="st1" points="664.3,709.7 664.3,482.7 708.2,482.7 	"/>
	<line class="st1" x1="672.1" y1="487.7" x2="672.1" y2="710.2"/>
	<line class="st1" x1="676" y1="487.7" x2="676" y2="710.2"/>
	<line class="st1" x1="679.8" y1="487.7" x2="679.8" y2="710.2"/>
	<line class="st1" x1="683.7" y1="487.7" x2="683.7" y2="710.2"/>
	<line class="st1" x1="687.6" y1="487.7" x2="687.6" y2="710.2"/>
	<line class="st1" x1="691.4" y1="487.7" x2="691.4" y2="710.2"/>
	<line class="st1" x1="695.3" y1="487.7" x2="695.3" y2="710.2"/>
	<line class="st1" x1="699.1" y1="487.7" x2="699.1" y2="710.2"/>
	<line class="st1" x1="703" y1="487.7" x2="703" y2="710.2"/>
	<line class="st1" x1="706.8" y1="487.7" x2="706.8" y2="710.2"/>
	<rect x="662.7" y="479.6" class="st1" width="47.1" height="3.1"/>
	<rect x="666.9" y="475.6" class="st1" width="42.9" height="4"/>
	<rect x="663.5" y="472.1" class="st1" width="45.4" height="3.5"/>
	<line class="st1" x1="659.9" y1="710.2" x2="664.3" y2="710.2"/>
	<g>
		<polyline class="st1" points="458.2,481 458.2,413.3 520.6,413.3 520.6,453.9 		"/>
		<g>
			<line class="st1" x1="463.5" y1="422" x2="469.6" y2="422"/>
			<line class="st1" x1="511.1" y1="422" x2="517.2" y2="422"/>
			<line class="st1" x1="474" y1="422" x2="507" y2="422"/>
		</g>
		<g>
			<line class="st1" x1="463.5" y1="427" x2="469.6" y2="427"/>
			<line class="st1" x1="511.1" y1="427" x2="517.2" y2="427"/>
			<line class="st1" x1="474" y1="427" x2="507" y2="427"/>
		</g>
		<g>
			<line class="st1" x1="463.5" y1="432.1" x2="469.6" y2="432.1"/>
			<line class="st1" x1="511.1" y1="432.1" x2="517.2" y2="432.1"/>
			<line class="st1" x1="474" y1="432.1" x2="507" y2="432.1"/>
		</g>
		<g>
			<line class="st1" x1="463.5" y1="437.2" x2="469.6" y2="437.2"/>
			<line class="st1" x1="511.1" y1="437.2" x2="517.2" y2="437.2"/>
			<line class="st1" x1="474" y1="437.2" x2="507" y2="437.2"/>
		</g>
		<g>
			<line class="st1" x1="463.5" y1="442.2" x2="469.6" y2="442.2"/>
			<line class="st1" x1="511.1" y1="442.2" x2="517.2" y2="442.2"/>
			<line class="st1" x1="474" y1="442.2" x2="507" y2="442.2"/>
		</g>
		<g>
			<line class="st1" x1="463.5" y1="447.3" x2="469.6" y2="447.3"/>
			<line class="st1" x1="511.1" y1="447.3" x2="517.2" y2="447.3"/>
			<line class="st1" x1="474" y1="447.3" x2="507" y2="447.3"/>
		</g>
		<g>
			<line class="st1" x1="463.5" y1="452.4" x2="469.6" y2="452.4"/>
			<line class="st1" x1="511.1" y1="452.4" x2="517.2" y2="452.4"/>
			<line class="st1" x1="474" y1="452.4" x2="507" y2="452.4"/>
		</g>
		<g>
			<line class="st1" x1="463.5" y1="457.4" x2="469.6" y2="457.4"/>
			<line class="st1" x1="474" y1="457.4" x2="499.8" y2="457.4"/>
		</g>
		<g>
			<line class="st1" x1="463.5" y1="462.5" x2="469.6" y2="462.5"/>
			<line class="st1" x1="474" y1="462.5" x2="499.8" y2="462.5"/>
		</g>
		<g>
			<line class="st1" x1="463.5" y1="467.5" x2="469.6" y2="467.5"/>
			<line class="st1" x1="474" y1="467.5" x2="499.8" y2="467.5"/>
		</g>
		<g>
			<line class="st1" x1="463.5" y1="472.6" x2="469.6" y2="472.6"/>
			<line class="st1" x1="474" y1="472.6" x2="499.8" y2="472.6"/>
		</g>
		<g>
			<line class="st1" x1="463.5" y1="477.7" x2="469.6" y2="477.7"/>
			<line class="st1" x1="474" y1="477.7" x2="499.8" y2="477.7"/>
		</g>
		<g>
			<line class="st1" x1="463.5" y1="482.7" x2="469.6" y2="482.7"/>
			<line class="st1" x1="474" y1="482.7" x2="499.8" y2="482.7"/>
		</g>
		<g>
			<line class="st1" x1="465" y1="487.8" x2="469.6" y2="487.8"/>
			<line class="st1" x1="474" y1="487.8" x2="499.8" y2="487.8"/>
		</g>
		<g>
			<line class="st1" x1="474" y1="492.9" x2="499.8" y2="492.9"/>
		</g>
		<g>
			<line class="st1" x1="478.9" y1="497.9" x2="499.8" y2="497.9"/>
		</g>
		<g>
			<line class="st1" x1="478.9" y1="503" x2="499.8" y2="503"/>
		</g>
		<g>
			<line class="st1" x1="478.9" y1="508.1" x2="499.8" y2="508.1"/>
		</g>
		<g>
			<line class="st1" x1="478.9" y1="513.1" x2="499.8" y2="513.1"/>
		</g>
		<g>
			<line class="st1" x1="476.1" y1="518.2" x2="499.8" y2="518.2"/>
		</g>
	</g>
	<polyline class="st1" points="555.5,554.3 574.1,554.3 574.1,579 591.1,579 	"/>
	<polyline class="st1" points="616.4,568.4 639.1,568.4 639.1,585.7 652.4,585.7 652.4,529.6 664.3,529.6 	"/>
	<polyline class="st1" points="709.8,482.7 709.8,710.2 664.3,710.2 664.3,709.4 	"/>
</g>
</svg>
